%TF.GenerationSoftware,KiCad,Pcbnew,(5.99.0-11163-g08fb05e522)*%
%TF.CreationDate,2021-06-27T20:24:35-07:00*%
%TF.ProjectId,MeditationLamp,4d656469-7461-4746-996f-6e4c616d702e,rev?*%
%TF.SameCoordinates,Original*%
%TF.FileFunction,Copper,L2,Bot*%
%TF.FilePolarity,Positive*%
%FSLAX46Y46*%
G04 Gerber Fmt 4.6, Leading zero omitted, Abs format (unit mm)*
G04 Created by KiCad (PCBNEW (5.99.0-11163-g08fb05e522)) date 2021-06-27 20:24:35*
%MOMM*%
%LPD*%
G01*
G04 APERTURE LIST*
%TA.AperFunction,ComponentPad*%
%ADD10R,1.600000X1.600000*%
%TD*%
%TA.AperFunction,ComponentPad*%
%ADD11O,1.600000X1.600000*%
%TD*%
%TA.AperFunction,ComponentPad*%
%ADD12R,1.700000X1.700000*%
%TD*%
%TA.AperFunction,ComponentPad*%
%ADD13O,1.700000X1.700000*%
%TD*%
%TA.AperFunction,ComponentPad*%
%ADD14R,2.000000X2.000000*%
%TD*%
%TA.AperFunction,ComponentPad*%
%ADD15C,2.000000*%
%TD*%
%TA.AperFunction,ViaPad*%
%ADD16C,1.524000*%
%TD*%
%TA.AperFunction,ViaPad*%
%ADD17C,0.800000*%
%TD*%
%TA.AperFunction,Conductor*%
%ADD18C,1.524000*%
%TD*%
%TA.AperFunction,Conductor*%
%ADD19C,0.250000*%
%TD*%
G04 APERTURE END LIST*
D10*
%TO.P,U1,1,~{RESET}/PC6*%
%TO.N,unconnected-(U1-Pad1)*%
X113395600Y-72425400D03*
D11*
%TO.P,U1,15,PB1*%
%TO.N,unconnected-(U1-Pad15)*%
X121015600Y-105445400D03*
%TO.P,U1,2,PD0*%
%TO.N,unconnected-(U1-Pad2)*%
X113395600Y-74965400D03*
%TO.P,U1,16,PB2*%
%TO.N,unconnected-(U1-Pad16)*%
X121015600Y-102905400D03*
%TO.P,U1,3,PD1*%
%TO.N,unconnected-(U1-Pad3)*%
X113395600Y-77505400D03*
%TO.P,U1,17,PB3*%
%TO.N,unconnected-(U1-Pad17)*%
X121015600Y-100365400D03*
%TO.P,U1,4,PD2*%
%TO.N,unconnected-(U1-Pad4)*%
X113395600Y-80045400D03*
%TO.P,U1,18,PB4*%
%TO.N,unconnected-(U1-Pad18)*%
X121015600Y-97825400D03*
%TO.P,U1,5,PD3*%
%TO.N,Net-(SW1-Pad1)*%
X113395600Y-82585400D03*
%TO.P,U1,19,PB5*%
%TO.N,unconnected-(U1-Pad19)*%
X121015600Y-95285400D03*
%TO.P,U1,6,PD4*%
%TO.N,unconnected-(U1-Pad6)*%
X113395600Y-85125400D03*
%TO.P,U1,20,AVCC*%
%TO.N,+5V*%
X121015600Y-92745400D03*
%TO.P,U1,7,VCC*%
X113395600Y-87665400D03*
%TO.P,U1,21,AREF*%
X121015600Y-90205400D03*
%TO.P,U1,8,GND*%
%TO.N,GND*%
X113395600Y-90205400D03*
%TO.P,U1,22,GND*%
X121015600Y-87665400D03*
%TO.P,U1,9,XTAL1/PB6*%
%TO.N,unconnected-(U1-Pad9)*%
X113395600Y-92745400D03*
%TO.P,U1,23,PC0*%
%TO.N,unconnected-(U1-Pad23)*%
X121015600Y-85125400D03*
%TO.P,U1,10,XTAL2/PB7*%
%TO.N,unconnected-(U1-Pad10)*%
X113395600Y-95285400D03*
%TO.P,U1,24,PC1*%
%TO.N,unconnected-(U1-Pad24)*%
X121015600Y-82585400D03*
%TO.P,U1,11,PD5*%
%TO.N,unconnected-(U1-Pad11)*%
X113395600Y-97825400D03*
%TO.P,U1,25,PC2*%
%TO.N,unconnected-(U1-Pad25)*%
X121015600Y-80045400D03*
%TO.P,U1,12,PD6*%
%TO.N,/BUZZ*%
X113395600Y-100365400D03*
%TO.P,U1,26,PC3*%
%TO.N,unconnected-(U1-Pad26)*%
X121015600Y-77505400D03*
%TO.P,U1,13,PD7*%
%TO.N,Net-(U1-Pad13)*%
X113395600Y-102905400D03*
%TO.P,U1,27,PC4*%
%TO.N,unconnected-(U1-Pad27)*%
X121015600Y-74965400D03*
%TO.P,U1,14,PB0*%
%TO.N,unconnected-(U1-Pad14)*%
X113395600Y-105445400D03*
%TO.P,U1,28,PC5*%
%TO.N,unconnected-(U1-Pad28)*%
X121015600Y-72425400D03*
%TD*%
D12*
%TO.P,J1,1,Pin_1*%
%TO.N,+5V*%
X115305600Y-123926600D03*
D13*
%TO.P,J1,2,Pin_2*%
%TO.N,Net-(J1-Pad2)*%
X117845600Y-123926600D03*
%TO.P,J1,3,Pin_3*%
%TO.N,GND*%
X120385600Y-123926600D03*
%TD*%
D14*
%TO.P,BZ1,1,-*%
%TO.N,/BUZZ*%
X113624200Y-62687200D03*
D15*
%TO.P,BZ1,2,+*%
%TO.N,Net-(BZ1-Pad2)*%
X121224200Y-62687200D03*
%TD*%
D16*
%TO.N,+5V*%
X113131600Y-109321600D03*
D17*
%TO.N,Net-(R1-Pad1)*%
X114300000Y-65659000D03*
X118999000Y-59436000D03*
%TD*%
D18*
%TO.N,+5V*%
X117754400Y-93903800D02*
X117754400Y-92024200D01*
X117754400Y-92024200D02*
X113395600Y-87665400D01*
X121015600Y-92745400D02*
X121015600Y-90205400D01*
X117754400Y-104698800D02*
X117754400Y-93903800D01*
X117754400Y-93903800D02*
X118912800Y-92745400D01*
X118912800Y-92745400D02*
X121015600Y-92745400D01*
X113131600Y-109321600D02*
X117754400Y-104698800D01*
D19*
%TO.N,Net-(R1-Pad1)*%
X118999000Y-59436000D02*
X118999000Y-60985400D01*
X118999000Y-60985400D02*
X114325400Y-65659000D01*
X114325400Y-65659000D02*
X114300000Y-65659000D01*
%TD*%
%TA.AperFunction,Conductor*%
%TO.N,GND*%
G36*
X125799121Y-46629002D02*
G01*
X125845614Y-46682658D01*
X125857000Y-46735000D01*
X125857000Y-127280400D01*
X125836998Y-127348521D01*
X125783342Y-127395014D01*
X125731000Y-127406400D01*
X108101400Y-127406400D01*
X108033279Y-127386398D01*
X107986786Y-127332742D01*
X107975400Y-127280400D01*
X107975400Y-123076600D01*
X113942100Y-123076600D01*
X113942100Y-124776600D01*
X113947327Y-124849679D01*
X113963303Y-124904087D01*
X113982848Y-124970652D01*
X113988504Y-124989916D01*
X113993375Y-124997495D01*
X114062651Y-125105291D01*
X114062653Y-125105294D01*
X114067523Y-125112871D01*
X114074333Y-125118772D01*
X114171169Y-125202682D01*
X114171172Y-125202684D01*
X114177981Y-125208584D01*
X114186179Y-125212328D01*
X114291232Y-125260304D01*
X114310930Y-125269300D01*
X114319845Y-125270582D01*
X114319846Y-125270582D01*
X114451152Y-125289461D01*
X114451159Y-125289462D01*
X114455600Y-125290100D01*
X116155600Y-125290100D01*
X116228679Y-125284873D01*
X116319080Y-125258329D01*
X116360270Y-125246235D01*
X116360272Y-125246234D01*
X116368916Y-125243696D01*
X116432735Y-125202682D01*
X116484291Y-125169549D01*
X116484294Y-125169547D01*
X116491871Y-125164677D01*
X116531648Y-125118772D01*
X116581682Y-125061031D01*
X116581684Y-125061028D01*
X116587584Y-125054219D01*
X116648300Y-124921270D01*
X116649166Y-124915246D01*
X116686752Y-124856761D01*
X116751333Y-124827268D01*
X116821606Y-124837372D01*
X116864499Y-124869487D01*
X116891609Y-124900783D01*
X116895584Y-124904083D01*
X116895588Y-124904087D01*
X116926155Y-124929464D01*
X117063529Y-125043514D01*
X117067981Y-125046116D01*
X117067986Y-125046119D01*
X117192317Y-125118772D01*
X117256451Y-125156249D01*
X117465196Y-125235960D01*
X117470262Y-125236991D01*
X117470263Y-125236991D01*
X117514628Y-125246017D01*
X117684156Y-125280508D01*
X117809995Y-125285122D01*
X117902288Y-125288507D01*
X117902292Y-125288507D01*
X117907452Y-125288696D01*
X117912572Y-125288040D01*
X117912574Y-125288040D01*
X117980602Y-125279325D01*
X118129088Y-125260304D01*
X118134037Y-125258819D01*
X118134043Y-125258818D01*
X118338159Y-125197580D01*
X118338158Y-125197580D01*
X118343109Y-125196095D01*
X118543770Y-125097792D01*
X118547975Y-125094792D01*
X118547981Y-125094789D01*
X118695007Y-124989916D01*
X118725682Y-124968036D01*
X118789854Y-124904087D01*
X118880288Y-124813968D01*
X118880292Y-124813963D01*
X118883957Y-124810311D01*
X119014348Y-124628854D01*
X119015665Y-124629800D01*
X119062575Y-124586619D01*
X119132514Y-124574409D01*
X119197951Y-124601949D01*
X119225769Y-124633775D01*
X119283006Y-124727179D01*
X119289104Y-124735511D01*
X119428574Y-124896519D01*
X119435937Y-124903729D01*
X119599841Y-125039804D01*
X119608272Y-125045709D01*
X119792209Y-125153193D01*
X119801492Y-125157640D01*
X120000509Y-125233637D01*
X120010402Y-125236511D01*
X120113848Y-125257557D01*
X120127900Y-125256362D01*
X120131600Y-125246017D01*
X120131600Y-124194148D01*
X120639600Y-124194148D01*
X120639600Y-125245464D01*
X120643664Y-125259306D01*
X120657078Y-125261340D01*
X120663854Y-125260472D01*
X120673937Y-125258329D01*
X120877976Y-125197114D01*
X120887571Y-125193354D01*
X121078872Y-125099636D01*
X121087722Y-125094361D01*
X121261155Y-124970652D01*
X121269015Y-124964010D01*
X121419916Y-124813635D01*
X121426593Y-124805790D01*
X121550901Y-124632796D01*
X121556212Y-124623958D01*
X121650591Y-124432995D01*
X121654390Y-124423400D01*
X121716313Y-124219589D01*
X121718493Y-124209506D01*
X121719935Y-124198560D01*
X121717723Y-124184378D01*
X121704566Y-124180600D01*
X120657715Y-124180600D01*
X120642476Y-124185075D01*
X120641271Y-124186465D01*
X120639600Y-124194148D01*
X120131600Y-124194148D01*
X120131600Y-122611239D01*
X120639600Y-122611239D01*
X120639600Y-123654485D01*
X120644075Y-123669724D01*
X120645465Y-123670929D01*
X120653148Y-123672600D01*
X121704299Y-123672600D01*
X121717830Y-123668627D01*
X121719135Y-123659547D01*
X121677142Y-123492363D01*
X121673824Y-123482615D01*
X121588877Y-123287250D01*
X121584010Y-123278175D01*
X121468301Y-123099315D01*
X121462010Y-123091146D01*
X121318642Y-122933587D01*
X121311109Y-122926562D01*
X121143928Y-122794530D01*
X121135350Y-122788831D01*
X120948853Y-122685880D01*
X120939447Y-122681653D01*
X120738647Y-122610546D01*
X120728681Y-122607913D01*
X120657436Y-122595222D01*
X120644141Y-122596681D01*
X120639600Y-122611239D01*
X120131600Y-122611239D01*
X120131600Y-122609353D01*
X120127682Y-122596009D01*
X120113406Y-122594022D01*
X120074837Y-122599924D01*
X120064818Y-122602311D01*
X119862329Y-122668495D01*
X119852827Y-122672490D01*
X119663879Y-122770850D01*
X119655154Y-122776344D01*
X119484804Y-122904246D01*
X119477097Y-122911089D01*
X119329921Y-123065099D01*
X119323442Y-123073101D01*
X119219106Y-123226052D01*
X119164194Y-123271055D01*
X119093669Y-123279226D01*
X119029922Y-123247972D01*
X119009225Y-123223488D01*
X118928697Y-123099011D01*
X118925887Y-123094667D01*
X118913539Y-123081096D01*
X118862831Y-123025369D01*
X118775505Y-122929399D01*
X118771454Y-122926200D01*
X118771450Y-122926196D01*
X118604207Y-122794117D01*
X118600149Y-122790912D01*
X118404530Y-122682924D01*
X118210954Y-122614375D01*
X118198775Y-122610062D01*
X118198771Y-122610061D01*
X118193900Y-122608336D01*
X118188807Y-122607429D01*
X118188804Y-122607428D01*
X117979006Y-122570057D01*
X117979000Y-122570056D01*
X117973917Y-122569151D01*
X117887760Y-122568098D01*
X117755656Y-122566484D01*
X117755654Y-122566484D01*
X117750487Y-122566421D01*
X117529612Y-122600220D01*
X117317222Y-122669640D01*
X117286025Y-122685880D01*
X117192766Y-122734428D01*
X117119023Y-122772816D01*
X117114890Y-122775919D01*
X117114887Y-122775921D01*
X116987015Y-122871930D01*
X116940337Y-122906977D01*
X116924322Y-122923736D01*
X116857753Y-122993396D01*
X116796228Y-123028826D01*
X116725316Y-123025369D01*
X116667530Y-122984123D01*
X116645763Y-122941843D01*
X116625235Y-122871930D01*
X116625234Y-122871928D01*
X116622696Y-122863284D01*
X116574848Y-122788831D01*
X116548549Y-122747909D01*
X116548547Y-122747906D01*
X116543677Y-122740329D01*
X116536867Y-122734428D01*
X116440031Y-122650518D01*
X116440028Y-122650516D01*
X116433219Y-122644616D01*
X116360134Y-122611239D01*
X116308464Y-122587642D01*
X116308463Y-122587642D01*
X116300270Y-122583900D01*
X116291355Y-122582618D01*
X116291354Y-122582618D01*
X116160048Y-122563739D01*
X116160041Y-122563738D01*
X116155600Y-122563100D01*
X114455600Y-122563100D01*
X114382521Y-122568327D01*
X114329484Y-122583900D01*
X114250930Y-122606965D01*
X114250928Y-122606966D01*
X114242284Y-122609504D01*
X114234705Y-122614375D01*
X114126909Y-122683651D01*
X114126906Y-122683653D01*
X114119329Y-122688523D01*
X114113428Y-122695333D01*
X114029518Y-122792169D01*
X114029516Y-122792172D01*
X114023616Y-122798981D01*
X113962900Y-122931930D01*
X113961618Y-122940845D01*
X113961618Y-122940846D01*
X113942739Y-123072152D01*
X113942738Y-123072159D01*
X113942100Y-123076600D01*
X107975400Y-123076600D01*
X107975400Y-109321600D01*
X111856100Y-109321600D01*
X111856580Y-109327083D01*
X111861671Y-109385269D01*
X111862135Y-109394270D01*
X111863087Y-109454926D01*
X111864167Y-109460429D01*
X111870237Y-109491368D01*
X111872115Y-109504646D01*
X111875478Y-109543088D01*
X111876902Y-109548401D01*
X111892688Y-109607316D01*
X111894624Y-109615668D01*
X111906745Y-109677453D01*
X111908784Y-109682684D01*
X111908785Y-109682686D01*
X111919367Y-109709828D01*
X111923679Y-109722982D01*
X111931596Y-109752529D01*
X111931600Y-109752540D01*
X111933022Y-109757847D01*
X111935348Y-109762834D01*
X111962219Y-109820459D01*
X111965418Y-109827941D01*
X111989119Y-109888732D01*
X111992047Y-109893510D01*
X111992049Y-109893514D01*
X112006029Y-109916326D01*
X112012789Y-109928905D01*
X112026985Y-109959350D01*
X112030145Y-109963863D01*
X112068101Y-110018070D01*
X112072319Y-110024502D01*
X112107606Y-110082085D01*
X112127543Y-110104461D01*
X112136674Y-110116003D01*
X112154510Y-110141476D01*
X112207079Y-110194045D01*
X112212059Y-110199320D01*
X112258460Y-110251399D01*
X112262872Y-110254859D01*
X112262879Y-110254865D01*
X112280156Y-110268412D01*
X112291504Y-110278470D01*
X112311724Y-110298690D01*
X112316226Y-110301842D01*
X112316234Y-110301849D01*
X112374803Y-110342859D01*
X112380280Y-110346918D01*
X112436913Y-110391324D01*
X112441880Y-110393954D01*
X112459151Y-110403099D01*
X112472463Y-110411240D01*
X112489343Y-110423060D01*
X112489349Y-110423064D01*
X112493850Y-110426215D01*
X112540293Y-110447872D01*
X112566071Y-110459893D01*
X112571757Y-110462721D01*
X112637324Y-110497437D01*
X112658464Y-110504184D01*
X112659010Y-110504358D01*
X112673948Y-110510197D01*
X112690365Y-110517852D01*
X112695353Y-110520178D01*
X112774953Y-110541506D01*
X112780651Y-110543178D01*
X112796708Y-110548302D01*
X112853358Y-110566382D01*
X112873542Y-110569039D01*
X112889709Y-110572255D01*
X112910112Y-110577722D01*
X112915598Y-110578202D01*
X112994960Y-110585146D01*
X113000422Y-110585744D01*
X113072626Y-110595249D01*
X113072627Y-110595249D01*
X113078187Y-110595981D01*
X113083785Y-110595717D01*
X113084560Y-110595680D01*
X113096120Y-110595135D01*
X113113026Y-110595475D01*
X113131600Y-110597100D01*
X113137075Y-110596621D01*
X113137078Y-110596621D01*
X113188251Y-110592144D01*
X113219298Y-110589427D01*
X113224331Y-110589089D01*
X113304705Y-110585299D01*
X113319850Y-110581830D01*
X113336995Y-110579130D01*
X113347607Y-110578202D01*
X113347612Y-110578201D01*
X113353088Y-110577722D01*
X113440938Y-110554183D01*
X113445367Y-110553083D01*
X113525751Y-110534673D01*
X113530912Y-110532472D01*
X113530917Y-110532470D01*
X113537822Y-110529525D01*
X113554638Y-110523718D01*
X113562532Y-110521603D01*
X113562541Y-110521600D01*
X113567847Y-110520178D01*
X113572828Y-110517855D01*
X113572837Y-110517852D01*
X113652979Y-110480480D01*
X113656735Y-110478803D01*
X113734339Y-110445702D01*
X113739028Y-110442622D01*
X113739035Y-110442618D01*
X113743293Y-110439821D01*
X113759214Y-110430942D01*
X113764360Y-110428542D01*
X113764362Y-110428541D01*
X113769350Y-110426215D01*
X113773856Y-110423060D01*
X113773863Y-110423056D01*
X113848854Y-110370547D01*
X113851947Y-110368448D01*
X113884724Y-110346918D01*
X113923874Y-110321201D01*
X113935061Y-110311234D01*
X113946601Y-110302104D01*
X113946962Y-110301851D01*
X113946965Y-110301849D01*
X113951476Y-110298690D01*
X114108690Y-110141476D01*
X114109013Y-110141015D01*
X114109771Y-110140188D01*
X118588319Y-105661639D01*
X118600710Y-105650771D01*
X118613304Y-105641107D01*
X118617755Y-105637692D01*
X118621528Y-105633546D01*
X118621533Y-105633541D01*
X118671218Y-105578937D01*
X118675316Y-105574642D01*
X118692393Y-105557565D01*
X118710285Y-105536167D01*
X118713743Y-105532202D01*
X118766597Y-105474117D01*
X118766598Y-105474116D01*
X118770374Y-105469966D01*
X118780044Y-105454551D01*
X118790109Y-105440697D01*
X118801775Y-105426745D01*
X118843455Y-105353671D01*
X118846158Y-105349155D01*
X118887899Y-105282616D01*
X118887900Y-105282613D01*
X118890879Y-105277865D01*
X118897664Y-105260987D01*
X118905119Y-105245563D01*
X118914130Y-105229766D01*
X118916001Y-105224483D01*
X118916004Y-105224476D01*
X118942214Y-105150459D01*
X118944069Y-105145551D01*
X118975461Y-105067460D01*
X118979150Y-105049648D01*
X118983759Y-105033143D01*
X118987954Y-105021296D01*
X118987956Y-105021287D01*
X118989827Y-105016004D01*
X119003422Y-104932986D01*
X119004384Y-104927798D01*
X119020510Y-104849927D01*
X119020510Y-104849926D01*
X119021447Y-104845402D01*
X119023068Y-104817283D01*
X119024516Y-104804170D01*
X119026474Y-104792215D01*
X119024916Y-104693039D01*
X119024900Y-104691060D01*
X119024900Y-94482250D01*
X119044902Y-94414129D01*
X119061804Y-94393155D01*
X119402153Y-94052805D01*
X119464466Y-94018780D01*
X119491249Y-94015900D01*
X120147710Y-94015900D01*
X120215831Y-94035902D01*
X120262324Y-94089558D01*
X120272428Y-94159832D01*
X120242934Y-94224412D01*
X120219980Y-94245113D01*
X120175814Y-94276038D01*
X120175808Y-94276043D01*
X120171298Y-94279201D01*
X120009401Y-94441098D01*
X119878076Y-94628650D01*
X119875753Y-94633632D01*
X119875750Y-94633637D01*
X119783637Y-94831175D01*
X119781314Y-94836157D01*
X119722055Y-95057313D01*
X119702100Y-95285400D01*
X119722055Y-95513487D01*
X119781314Y-95734643D01*
X119783636Y-95739624D01*
X119783637Y-95739625D01*
X119875750Y-95937163D01*
X119875753Y-95937168D01*
X119878076Y-95942150D01*
X120009401Y-96129702D01*
X120171298Y-96291599D01*
X120175806Y-96294756D01*
X120175809Y-96294758D01*
X120354341Y-96419767D01*
X120358850Y-96422924D01*
X120363832Y-96425247D01*
X120363837Y-96425250D01*
X120398054Y-96441205D01*
X120451339Y-96488122D01*
X120470800Y-96556399D01*
X120450258Y-96624359D01*
X120398054Y-96669595D01*
X120363837Y-96685550D01*
X120363832Y-96685553D01*
X120358850Y-96687876D01*
X120354343Y-96691032D01*
X120354341Y-96691033D01*
X120175809Y-96816042D01*
X120175806Y-96816044D01*
X120171298Y-96819201D01*
X120009401Y-96981098D01*
X119878076Y-97168650D01*
X119875753Y-97173632D01*
X119875750Y-97173637D01*
X119783637Y-97371175D01*
X119781314Y-97376157D01*
X119722055Y-97597313D01*
X119702100Y-97825400D01*
X119722055Y-98053487D01*
X119781314Y-98274643D01*
X119783636Y-98279624D01*
X119783637Y-98279625D01*
X119875750Y-98477163D01*
X119875753Y-98477168D01*
X119878076Y-98482150D01*
X120009401Y-98669702D01*
X120171298Y-98831599D01*
X120175806Y-98834756D01*
X120175809Y-98834758D01*
X120354341Y-98959767D01*
X120358850Y-98962924D01*
X120363832Y-98965247D01*
X120363837Y-98965250D01*
X120398054Y-98981205D01*
X120451339Y-99028122D01*
X120470800Y-99096399D01*
X120450258Y-99164359D01*
X120398054Y-99209595D01*
X120363837Y-99225550D01*
X120363832Y-99225553D01*
X120358850Y-99227876D01*
X120354343Y-99231032D01*
X120354341Y-99231033D01*
X120175809Y-99356042D01*
X120175806Y-99356044D01*
X120171298Y-99359201D01*
X120009401Y-99521098D01*
X119878076Y-99708650D01*
X119875753Y-99713632D01*
X119875750Y-99713637D01*
X119783637Y-99911175D01*
X119781314Y-99916157D01*
X119722055Y-100137313D01*
X119702100Y-100365400D01*
X119722055Y-100593487D01*
X119781314Y-100814643D01*
X119783636Y-100819624D01*
X119783637Y-100819625D01*
X119875750Y-101017163D01*
X119875753Y-101017168D01*
X119878076Y-101022150D01*
X120009401Y-101209702D01*
X120171298Y-101371599D01*
X120175806Y-101374756D01*
X120175809Y-101374758D01*
X120354341Y-101499767D01*
X120358850Y-101502924D01*
X120363832Y-101505247D01*
X120363837Y-101505250D01*
X120398054Y-101521205D01*
X120451339Y-101568122D01*
X120470800Y-101636399D01*
X120450258Y-101704359D01*
X120398054Y-101749595D01*
X120363837Y-101765550D01*
X120363832Y-101765553D01*
X120358850Y-101767876D01*
X120354343Y-101771032D01*
X120354341Y-101771033D01*
X120175809Y-101896042D01*
X120175806Y-101896044D01*
X120171298Y-101899201D01*
X120009401Y-102061098D01*
X119878076Y-102248650D01*
X119875753Y-102253632D01*
X119875750Y-102253637D01*
X119783637Y-102451175D01*
X119781314Y-102456157D01*
X119722055Y-102677313D01*
X119702100Y-102905400D01*
X119722055Y-103133487D01*
X119781314Y-103354643D01*
X119783636Y-103359624D01*
X119783637Y-103359625D01*
X119875750Y-103557163D01*
X119875753Y-103557168D01*
X119878076Y-103562150D01*
X120009401Y-103749702D01*
X120171298Y-103911599D01*
X120175806Y-103914756D01*
X120175809Y-103914758D01*
X120354341Y-104039767D01*
X120358850Y-104042924D01*
X120363832Y-104045247D01*
X120363837Y-104045250D01*
X120398054Y-104061205D01*
X120451339Y-104108122D01*
X120470800Y-104176399D01*
X120450258Y-104244359D01*
X120398054Y-104289595D01*
X120363837Y-104305550D01*
X120363832Y-104305553D01*
X120358850Y-104307876D01*
X120354343Y-104311032D01*
X120354341Y-104311033D01*
X120175809Y-104436042D01*
X120175806Y-104436044D01*
X120171298Y-104439201D01*
X120009401Y-104601098D01*
X119878076Y-104788650D01*
X119875753Y-104793632D01*
X119875750Y-104793637D01*
X119867798Y-104810691D01*
X119781314Y-104996157D01*
X119779892Y-105001465D01*
X119779891Y-105001467D01*
X119723479Y-105211998D01*
X119722055Y-105217313D01*
X119702100Y-105445400D01*
X119722055Y-105673487D01*
X119781314Y-105894643D01*
X119783636Y-105899624D01*
X119783637Y-105899625D01*
X119875750Y-106097163D01*
X119875753Y-106097168D01*
X119878076Y-106102150D01*
X120009401Y-106289702D01*
X120171298Y-106451599D01*
X120175806Y-106454756D01*
X120175809Y-106454758D01*
X120288242Y-106533484D01*
X120358850Y-106582924D01*
X120363832Y-106585247D01*
X120363837Y-106585250D01*
X120561375Y-106677363D01*
X120566357Y-106679686D01*
X120571665Y-106681108D01*
X120571667Y-106681109D01*
X120782198Y-106737521D01*
X120782200Y-106737521D01*
X120787513Y-106738945D01*
X121015600Y-106758900D01*
X121243687Y-106738945D01*
X121249000Y-106737521D01*
X121249002Y-106737521D01*
X121459533Y-106681109D01*
X121459535Y-106681108D01*
X121464843Y-106679686D01*
X121469825Y-106677363D01*
X121667363Y-106585250D01*
X121667368Y-106585247D01*
X121672350Y-106582924D01*
X121742958Y-106533484D01*
X121855391Y-106454758D01*
X121855394Y-106454756D01*
X121859902Y-106451599D01*
X122021799Y-106289702D01*
X122153124Y-106102150D01*
X122155447Y-106097168D01*
X122155450Y-106097163D01*
X122247563Y-105899625D01*
X122247564Y-105899624D01*
X122249886Y-105894643D01*
X122309145Y-105673487D01*
X122329100Y-105445400D01*
X122309145Y-105217313D01*
X122307721Y-105211998D01*
X122251309Y-105001467D01*
X122251308Y-105001465D01*
X122249886Y-104996157D01*
X122163402Y-104810691D01*
X122155450Y-104793637D01*
X122155447Y-104793632D01*
X122153124Y-104788650D01*
X122021799Y-104601098D01*
X121859902Y-104439201D01*
X121855394Y-104436044D01*
X121855391Y-104436042D01*
X121676859Y-104311033D01*
X121676857Y-104311032D01*
X121672350Y-104307876D01*
X121667368Y-104305553D01*
X121667363Y-104305550D01*
X121633146Y-104289595D01*
X121579861Y-104242678D01*
X121560400Y-104174401D01*
X121580942Y-104106441D01*
X121633146Y-104061205D01*
X121667363Y-104045250D01*
X121667368Y-104045247D01*
X121672350Y-104042924D01*
X121676859Y-104039767D01*
X121855391Y-103914758D01*
X121855394Y-103914756D01*
X121859902Y-103911599D01*
X122021799Y-103749702D01*
X122153124Y-103562150D01*
X122155447Y-103557168D01*
X122155450Y-103557163D01*
X122247563Y-103359625D01*
X122247564Y-103359624D01*
X122249886Y-103354643D01*
X122309145Y-103133487D01*
X122329100Y-102905400D01*
X122309145Y-102677313D01*
X122249886Y-102456157D01*
X122247563Y-102451175D01*
X122155450Y-102253637D01*
X122155447Y-102253632D01*
X122153124Y-102248650D01*
X122021799Y-102061098D01*
X121859902Y-101899201D01*
X121855394Y-101896044D01*
X121855391Y-101896042D01*
X121676859Y-101771033D01*
X121676857Y-101771032D01*
X121672350Y-101767876D01*
X121667368Y-101765553D01*
X121667363Y-101765550D01*
X121633146Y-101749595D01*
X121579861Y-101702678D01*
X121560400Y-101634401D01*
X121580942Y-101566441D01*
X121633146Y-101521205D01*
X121667363Y-101505250D01*
X121667368Y-101505247D01*
X121672350Y-101502924D01*
X121676859Y-101499767D01*
X121855391Y-101374758D01*
X121855394Y-101374756D01*
X121859902Y-101371599D01*
X122021799Y-101209702D01*
X122153124Y-101022150D01*
X122155447Y-101017168D01*
X122155450Y-101017163D01*
X122247563Y-100819625D01*
X122247564Y-100819624D01*
X122249886Y-100814643D01*
X122309145Y-100593487D01*
X122329100Y-100365400D01*
X122309145Y-100137313D01*
X122249886Y-99916157D01*
X122247563Y-99911175D01*
X122155450Y-99713637D01*
X122155447Y-99713632D01*
X122153124Y-99708650D01*
X122021799Y-99521098D01*
X121859902Y-99359201D01*
X121855394Y-99356044D01*
X121855391Y-99356042D01*
X121676859Y-99231033D01*
X121676857Y-99231032D01*
X121672350Y-99227876D01*
X121667368Y-99225553D01*
X121667363Y-99225550D01*
X121633146Y-99209595D01*
X121579861Y-99162678D01*
X121560400Y-99094401D01*
X121580942Y-99026441D01*
X121633146Y-98981205D01*
X121667363Y-98965250D01*
X121667368Y-98965247D01*
X121672350Y-98962924D01*
X121676859Y-98959767D01*
X121855391Y-98834758D01*
X121855394Y-98834756D01*
X121859902Y-98831599D01*
X122021799Y-98669702D01*
X122153124Y-98482150D01*
X122155447Y-98477168D01*
X122155450Y-98477163D01*
X122247563Y-98279625D01*
X122247564Y-98279624D01*
X122249886Y-98274643D01*
X122309145Y-98053487D01*
X122329100Y-97825400D01*
X122309145Y-97597313D01*
X122249886Y-97376157D01*
X122247563Y-97371175D01*
X122155450Y-97173637D01*
X122155447Y-97173632D01*
X122153124Y-97168650D01*
X122021799Y-96981098D01*
X121859902Y-96819201D01*
X121855394Y-96816044D01*
X121855391Y-96816042D01*
X121676859Y-96691033D01*
X121676857Y-96691032D01*
X121672350Y-96687876D01*
X121667368Y-96685553D01*
X121667363Y-96685550D01*
X121633146Y-96669595D01*
X121579861Y-96622678D01*
X121560400Y-96554401D01*
X121580942Y-96486441D01*
X121633146Y-96441205D01*
X121667363Y-96425250D01*
X121667368Y-96425247D01*
X121672350Y-96422924D01*
X121676859Y-96419767D01*
X121855391Y-96294758D01*
X121855394Y-96294756D01*
X121859902Y-96291599D01*
X122021799Y-96129702D01*
X122153124Y-95942150D01*
X122155447Y-95937168D01*
X122155450Y-95937163D01*
X122247563Y-95739625D01*
X122247564Y-95739624D01*
X122249886Y-95734643D01*
X122309145Y-95513487D01*
X122329100Y-95285400D01*
X122309145Y-95057313D01*
X122249886Y-94836157D01*
X122247563Y-94831175D01*
X122155450Y-94633637D01*
X122155447Y-94633632D01*
X122153124Y-94628650D01*
X122021799Y-94441098D01*
X121859902Y-94279201D01*
X121855394Y-94276044D01*
X121855391Y-94276042D01*
X121676859Y-94151033D01*
X121676857Y-94151032D01*
X121672350Y-94147876D01*
X121667368Y-94145553D01*
X121667363Y-94145550D01*
X121633146Y-94129595D01*
X121579861Y-94082678D01*
X121560400Y-94014401D01*
X121580942Y-93946441D01*
X121633146Y-93901205D01*
X121667363Y-93885250D01*
X121667368Y-93885247D01*
X121672350Y-93882924D01*
X121676859Y-93879767D01*
X121855391Y-93754758D01*
X121855394Y-93754756D01*
X121859902Y-93751599D01*
X122021799Y-93589702D01*
X122153124Y-93402150D01*
X122155447Y-93397168D01*
X122155450Y-93397163D01*
X122247563Y-93199625D01*
X122247564Y-93199624D01*
X122249886Y-93194643D01*
X122309145Y-92973487D01*
X122329100Y-92745400D01*
X122309145Y-92517313D01*
X122290393Y-92447329D01*
X122286100Y-92414718D01*
X122286100Y-90536082D01*
X122290393Y-90503471D01*
X122307721Y-90438801D01*
X122309145Y-90433487D01*
X122329100Y-90205400D01*
X122309145Y-89977313D01*
X122249886Y-89756157D01*
X122247563Y-89751175D01*
X122155450Y-89553637D01*
X122155447Y-89553632D01*
X122153124Y-89548650D01*
X122021799Y-89361098D01*
X121859902Y-89199201D01*
X121855394Y-89196044D01*
X121855391Y-89196042D01*
X121676859Y-89071033D01*
X121676857Y-89071032D01*
X121672350Y-89067876D01*
X121657240Y-89060830D01*
X121632557Y-89049320D01*
X121579272Y-89002402D01*
X121559811Y-88934125D01*
X121580353Y-88866165D01*
X121632558Y-88820930D01*
X121667109Y-88804819D01*
X121676609Y-88799334D01*
X121855069Y-88674375D01*
X121863477Y-88667319D01*
X122017519Y-88513277D01*
X122024575Y-88504869D01*
X122149534Y-88326409D01*
X122155017Y-88316913D01*
X122247091Y-88119457D01*
X122250839Y-88109161D01*
X122296998Y-87936897D01*
X122296662Y-87922801D01*
X122288720Y-87919400D01*
X119747629Y-87919400D01*
X119734098Y-87923373D01*
X119732869Y-87931922D01*
X119780361Y-88109161D01*
X119784109Y-88119457D01*
X119876183Y-88316913D01*
X119881666Y-88326409D01*
X120006625Y-88504869D01*
X120013681Y-88513277D01*
X120167723Y-88667319D01*
X120176131Y-88674375D01*
X120354591Y-88799334D01*
X120364091Y-88804819D01*
X120398642Y-88820930D01*
X120451928Y-88867847D01*
X120471389Y-88936124D01*
X120450847Y-89004084D01*
X120398643Y-89049320D01*
X120373960Y-89060830D01*
X120358850Y-89067876D01*
X120354343Y-89071032D01*
X120354341Y-89071033D01*
X120175809Y-89196042D01*
X120175806Y-89196044D01*
X120171298Y-89199201D01*
X120009401Y-89361098D01*
X119878076Y-89548650D01*
X119875753Y-89553632D01*
X119875750Y-89553637D01*
X119783637Y-89751175D01*
X119781314Y-89756157D01*
X119722055Y-89977313D01*
X119702100Y-90205400D01*
X119722055Y-90433487D01*
X119723479Y-90438801D01*
X119740807Y-90503471D01*
X119745100Y-90536082D01*
X119745100Y-91348900D01*
X119725098Y-91417021D01*
X119671442Y-91463514D01*
X119619100Y-91474900D01*
X119003950Y-91474900D01*
X118987504Y-91473822D01*
X118966213Y-91471019D01*
X118966457Y-91469162D01*
X118907181Y-91449034D01*
X118874358Y-91415152D01*
X118868512Y-91406253D01*
X118860104Y-91391330D01*
X118854691Y-91379981D01*
X118852276Y-91374918D01*
X118803181Y-91306595D01*
X118800192Y-91302246D01*
X118754001Y-91231926D01*
X118735260Y-91210892D01*
X118727022Y-91200609D01*
X118719947Y-91190762D01*
X118648658Y-91121678D01*
X118647248Y-91120289D01*
X116592509Y-89065550D01*
X114535117Y-87008159D01*
X114520999Y-86991334D01*
X114404958Y-86825610D01*
X114401799Y-86821098D01*
X114239902Y-86659201D01*
X114235394Y-86656044D01*
X114235391Y-86656042D01*
X114056859Y-86531033D01*
X114056857Y-86531032D01*
X114052350Y-86527876D01*
X114047368Y-86525553D01*
X114047363Y-86525550D01*
X114013146Y-86509595D01*
X113959861Y-86462678D01*
X113940400Y-86394401D01*
X113960942Y-86326441D01*
X114013146Y-86281205D01*
X114047363Y-86265250D01*
X114047368Y-86265247D01*
X114052350Y-86262924D01*
X114056859Y-86259767D01*
X114235391Y-86134758D01*
X114235394Y-86134756D01*
X114239902Y-86131599D01*
X114401799Y-85969702D01*
X114533124Y-85782150D01*
X114535447Y-85777168D01*
X114535450Y-85777163D01*
X114627563Y-85579625D01*
X114627564Y-85579624D01*
X114629886Y-85574643D01*
X114689145Y-85353487D01*
X114709100Y-85125400D01*
X114689145Y-84897313D01*
X114629886Y-84676157D01*
X114627563Y-84671175D01*
X114535450Y-84473637D01*
X114535447Y-84473632D01*
X114533124Y-84468650D01*
X114401799Y-84281098D01*
X114239902Y-84119201D01*
X114235394Y-84116044D01*
X114235391Y-84116042D01*
X114056859Y-83991033D01*
X114056857Y-83991032D01*
X114052350Y-83987876D01*
X114047368Y-83985553D01*
X114047363Y-83985550D01*
X114013146Y-83969595D01*
X113959861Y-83922678D01*
X113940400Y-83854401D01*
X113960942Y-83786441D01*
X114013146Y-83741205D01*
X114047363Y-83725250D01*
X114047368Y-83725247D01*
X114052350Y-83722924D01*
X114056859Y-83719767D01*
X114235391Y-83594758D01*
X114235394Y-83594756D01*
X114239902Y-83591599D01*
X114401799Y-83429702D01*
X114533124Y-83242150D01*
X114535447Y-83237168D01*
X114535450Y-83237163D01*
X114627563Y-83039625D01*
X114627564Y-83039624D01*
X114629886Y-83034643D01*
X114689145Y-82813487D01*
X114709100Y-82585400D01*
X114689145Y-82357313D01*
X114629886Y-82136157D01*
X114627563Y-82131175D01*
X114535450Y-81933637D01*
X114535447Y-81933632D01*
X114533124Y-81928650D01*
X114401799Y-81741098D01*
X114239902Y-81579201D01*
X114235394Y-81576044D01*
X114235391Y-81576042D01*
X114056859Y-81451033D01*
X114056857Y-81451032D01*
X114052350Y-81447876D01*
X114047368Y-81445553D01*
X114047363Y-81445550D01*
X114013146Y-81429595D01*
X113959861Y-81382678D01*
X113940400Y-81314401D01*
X113960942Y-81246441D01*
X114013146Y-81201205D01*
X114047363Y-81185250D01*
X114047368Y-81185247D01*
X114052350Y-81182924D01*
X114056859Y-81179767D01*
X114235391Y-81054758D01*
X114235394Y-81054756D01*
X114239902Y-81051599D01*
X114401799Y-80889702D01*
X114533124Y-80702150D01*
X114535447Y-80697168D01*
X114535450Y-80697163D01*
X114627563Y-80499625D01*
X114627564Y-80499624D01*
X114629886Y-80494643D01*
X114689145Y-80273487D01*
X114709100Y-80045400D01*
X114689145Y-79817313D01*
X114629886Y-79596157D01*
X114627563Y-79591175D01*
X114535450Y-79393637D01*
X114535447Y-79393632D01*
X114533124Y-79388650D01*
X114401799Y-79201098D01*
X114239902Y-79039201D01*
X114235394Y-79036044D01*
X114235391Y-79036042D01*
X114056859Y-78911033D01*
X114056857Y-78911032D01*
X114052350Y-78907876D01*
X114047368Y-78905553D01*
X114047363Y-78905550D01*
X114013146Y-78889595D01*
X113959861Y-78842678D01*
X113940400Y-78774401D01*
X113960942Y-78706441D01*
X114013146Y-78661205D01*
X114047363Y-78645250D01*
X114047368Y-78645247D01*
X114052350Y-78642924D01*
X114056859Y-78639767D01*
X114235391Y-78514758D01*
X114235394Y-78514756D01*
X114239902Y-78511599D01*
X114401799Y-78349702D01*
X114533124Y-78162150D01*
X114535447Y-78157168D01*
X114535450Y-78157163D01*
X114627563Y-77959625D01*
X114627564Y-77959624D01*
X114629886Y-77954643D01*
X114689145Y-77733487D01*
X114709100Y-77505400D01*
X114689145Y-77277313D01*
X114629886Y-77056157D01*
X114627563Y-77051175D01*
X114535450Y-76853637D01*
X114535447Y-76853632D01*
X114533124Y-76848650D01*
X114401799Y-76661098D01*
X114239902Y-76499201D01*
X114235394Y-76496044D01*
X114235391Y-76496042D01*
X114056859Y-76371033D01*
X114056857Y-76371032D01*
X114052350Y-76367876D01*
X114047368Y-76365553D01*
X114047363Y-76365550D01*
X114013146Y-76349595D01*
X113959861Y-76302678D01*
X113940400Y-76234401D01*
X113960942Y-76166441D01*
X114013146Y-76121205D01*
X114047363Y-76105250D01*
X114047368Y-76105247D01*
X114052350Y-76102924D01*
X114056859Y-76099767D01*
X114235391Y-75974758D01*
X114235394Y-75974756D01*
X114239902Y-75971599D01*
X114401799Y-75809702D01*
X114533124Y-75622150D01*
X114535447Y-75617168D01*
X114535450Y-75617163D01*
X114627563Y-75419625D01*
X114627564Y-75419624D01*
X114629886Y-75414643D01*
X114689145Y-75193487D01*
X114709100Y-74965400D01*
X114689145Y-74737313D01*
X114629886Y-74516157D01*
X114627563Y-74511175D01*
X114535450Y-74313637D01*
X114535447Y-74313632D01*
X114533124Y-74308650D01*
X114401799Y-74121098D01*
X114239902Y-73959201D01*
X114235391Y-73956042D01*
X114231178Y-73952507D01*
X114232050Y-73951467D01*
X114191782Y-73901086D01*
X114184476Y-73830466D01*
X114216509Y-73767107D01*
X114272885Y-73732438D01*
X114400270Y-73695035D01*
X114400272Y-73695034D01*
X114408916Y-73692496D01*
X114472735Y-73651482D01*
X114524291Y-73618349D01*
X114524294Y-73618347D01*
X114531871Y-73613477D01*
X114571648Y-73567572D01*
X114621682Y-73509831D01*
X114621684Y-73509828D01*
X114627584Y-73503019D01*
X114688300Y-73370070D01*
X114699562Y-73291740D01*
X114708461Y-73229848D01*
X114708462Y-73229841D01*
X114709100Y-73225400D01*
X114709100Y-72425400D01*
X119702100Y-72425400D01*
X119722055Y-72653487D01*
X119781314Y-72874643D01*
X119783636Y-72879624D01*
X119783637Y-72879625D01*
X119875750Y-73077163D01*
X119875753Y-73077168D01*
X119878076Y-73082150D01*
X119881232Y-73086657D01*
X119881233Y-73086659D01*
X119975232Y-73220903D01*
X120009401Y-73269702D01*
X120171298Y-73431599D01*
X120175806Y-73434756D01*
X120175809Y-73434758D01*
X120283025Y-73509831D01*
X120358850Y-73562924D01*
X120363832Y-73565247D01*
X120363837Y-73565250D01*
X120398054Y-73581205D01*
X120451339Y-73628122D01*
X120470800Y-73696399D01*
X120450258Y-73764359D01*
X120398054Y-73809595D01*
X120363837Y-73825550D01*
X120363832Y-73825553D01*
X120358850Y-73827876D01*
X120354343Y-73831032D01*
X120354341Y-73831033D01*
X120175809Y-73956042D01*
X120175806Y-73956044D01*
X120171298Y-73959201D01*
X120009401Y-74121098D01*
X119878076Y-74308650D01*
X119875753Y-74313632D01*
X119875750Y-74313637D01*
X119783637Y-74511175D01*
X119781314Y-74516157D01*
X119722055Y-74737313D01*
X119702100Y-74965400D01*
X119722055Y-75193487D01*
X119781314Y-75414643D01*
X119783636Y-75419624D01*
X119783637Y-75419625D01*
X119875750Y-75617163D01*
X119875753Y-75617168D01*
X119878076Y-75622150D01*
X120009401Y-75809702D01*
X120171298Y-75971599D01*
X120175806Y-75974756D01*
X120175809Y-75974758D01*
X120354341Y-76099767D01*
X120358850Y-76102924D01*
X120363832Y-76105247D01*
X120363837Y-76105250D01*
X120398054Y-76121205D01*
X120451339Y-76168122D01*
X120470800Y-76236399D01*
X120450258Y-76304359D01*
X120398054Y-76349595D01*
X120363837Y-76365550D01*
X120363832Y-76365553D01*
X120358850Y-76367876D01*
X120354343Y-76371032D01*
X120354341Y-76371033D01*
X120175809Y-76496042D01*
X120175806Y-76496044D01*
X120171298Y-76499201D01*
X120009401Y-76661098D01*
X119878076Y-76848650D01*
X119875753Y-76853632D01*
X119875750Y-76853637D01*
X119783637Y-77051175D01*
X119781314Y-77056157D01*
X119722055Y-77277313D01*
X119702100Y-77505400D01*
X119722055Y-77733487D01*
X119781314Y-77954643D01*
X119783636Y-77959624D01*
X119783637Y-77959625D01*
X119875750Y-78157163D01*
X119875753Y-78157168D01*
X119878076Y-78162150D01*
X120009401Y-78349702D01*
X120171298Y-78511599D01*
X120175806Y-78514756D01*
X120175809Y-78514758D01*
X120354341Y-78639767D01*
X120358850Y-78642924D01*
X120363832Y-78645247D01*
X120363837Y-78645250D01*
X120398054Y-78661205D01*
X120451339Y-78708122D01*
X120470800Y-78776399D01*
X120450258Y-78844359D01*
X120398054Y-78889595D01*
X120363837Y-78905550D01*
X120363832Y-78905553D01*
X120358850Y-78907876D01*
X120354343Y-78911032D01*
X120354341Y-78911033D01*
X120175809Y-79036042D01*
X120175806Y-79036044D01*
X120171298Y-79039201D01*
X120009401Y-79201098D01*
X119878076Y-79388650D01*
X119875753Y-79393632D01*
X119875750Y-79393637D01*
X119783637Y-79591175D01*
X119781314Y-79596157D01*
X119722055Y-79817313D01*
X119702100Y-80045400D01*
X119722055Y-80273487D01*
X119781314Y-80494643D01*
X119783636Y-80499624D01*
X119783637Y-80499625D01*
X119875750Y-80697163D01*
X119875753Y-80697168D01*
X119878076Y-80702150D01*
X120009401Y-80889702D01*
X120171298Y-81051599D01*
X120175806Y-81054756D01*
X120175809Y-81054758D01*
X120354341Y-81179767D01*
X120358850Y-81182924D01*
X120363832Y-81185247D01*
X120363837Y-81185250D01*
X120398054Y-81201205D01*
X120451339Y-81248122D01*
X120470800Y-81316399D01*
X120450258Y-81384359D01*
X120398054Y-81429595D01*
X120363837Y-81445550D01*
X120363832Y-81445553D01*
X120358850Y-81447876D01*
X120354343Y-81451032D01*
X120354341Y-81451033D01*
X120175809Y-81576042D01*
X120175806Y-81576044D01*
X120171298Y-81579201D01*
X120009401Y-81741098D01*
X119878076Y-81928650D01*
X119875753Y-81933632D01*
X119875750Y-81933637D01*
X119783637Y-82131175D01*
X119781314Y-82136157D01*
X119722055Y-82357313D01*
X119702100Y-82585400D01*
X119722055Y-82813487D01*
X119781314Y-83034643D01*
X119783636Y-83039624D01*
X119783637Y-83039625D01*
X119875750Y-83237163D01*
X119875753Y-83237168D01*
X119878076Y-83242150D01*
X120009401Y-83429702D01*
X120171298Y-83591599D01*
X120175806Y-83594756D01*
X120175809Y-83594758D01*
X120354341Y-83719767D01*
X120358850Y-83722924D01*
X120363832Y-83725247D01*
X120363837Y-83725250D01*
X120398054Y-83741205D01*
X120451339Y-83788122D01*
X120470800Y-83856399D01*
X120450258Y-83924359D01*
X120398054Y-83969595D01*
X120363837Y-83985550D01*
X120363832Y-83985553D01*
X120358850Y-83987876D01*
X120354343Y-83991032D01*
X120354341Y-83991033D01*
X120175809Y-84116042D01*
X120175806Y-84116044D01*
X120171298Y-84119201D01*
X120009401Y-84281098D01*
X119878076Y-84468650D01*
X119875753Y-84473632D01*
X119875750Y-84473637D01*
X119783637Y-84671175D01*
X119781314Y-84676157D01*
X119722055Y-84897313D01*
X119702100Y-85125400D01*
X119722055Y-85353487D01*
X119781314Y-85574643D01*
X119783636Y-85579624D01*
X119783637Y-85579625D01*
X119875750Y-85777163D01*
X119875753Y-85777168D01*
X119878076Y-85782150D01*
X120009401Y-85969702D01*
X120171298Y-86131599D01*
X120175806Y-86134756D01*
X120175809Y-86134758D01*
X120354341Y-86259767D01*
X120358850Y-86262924D01*
X120363837Y-86265250D01*
X120363838Y-86265250D01*
X120398643Y-86281480D01*
X120451928Y-86328398D01*
X120471389Y-86396675D01*
X120450847Y-86464635D01*
X120398642Y-86509870D01*
X120364091Y-86525981D01*
X120354591Y-86531466D01*
X120176131Y-86656425D01*
X120167723Y-86663481D01*
X120013681Y-86817523D01*
X120006625Y-86825931D01*
X119881666Y-87004391D01*
X119876183Y-87013887D01*
X119784109Y-87211343D01*
X119780361Y-87221639D01*
X119734202Y-87393903D01*
X119734538Y-87407999D01*
X119742480Y-87411400D01*
X122283571Y-87411400D01*
X122297102Y-87407427D01*
X122298331Y-87398878D01*
X122250839Y-87221639D01*
X122247091Y-87211343D01*
X122155017Y-87013887D01*
X122149534Y-87004391D01*
X122024575Y-86825931D01*
X122017519Y-86817523D01*
X121863477Y-86663481D01*
X121855069Y-86656425D01*
X121676609Y-86531466D01*
X121667109Y-86525981D01*
X121632558Y-86509870D01*
X121579272Y-86462953D01*
X121559811Y-86394676D01*
X121580353Y-86326716D01*
X121632557Y-86281480D01*
X121667362Y-86265250D01*
X121667363Y-86265250D01*
X121672350Y-86262924D01*
X121676859Y-86259767D01*
X121855391Y-86134758D01*
X121855394Y-86134756D01*
X121859902Y-86131599D01*
X122021799Y-85969702D01*
X122153124Y-85782150D01*
X122155447Y-85777168D01*
X122155450Y-85777163D01*
X122247563Y-85579625D01*
X122247564Y-85579624D01*
X122249886Y-85574643D01*
X122309145Y-85353487D01*
X122329100Y-85125400D01*
X122309145Y-84897313D01*
X122249886Y-84676157D01*
X122247563Y-84671175D01*
X122155450Y-84473637D01*
X122155447Y-84473632D01*
X122153124Y-84468650D01*
X122021799Y-84281098D01*
X121859902Y-84119201D01*
X121855394Y-84116044D01*
X121855391Y-84116042D01*
X121676859Y-83991033D01*
X121676857Y-83991032D01*
X121672350Y-83987876D01*
X121667368Y-83985553D01*
X121667363Y-83985550D01*
X121633146Y-83969595D01*
X121579861Y-83922678D01*
X121560400Y-83854401D01*
X121580942Y-83786441D01*
X121633146Y-83741205D01*
X121667363Y-83725250D01*
X121667368Y-83725247D01*
X121672350Y-83722924D01*
X121676859Y-83719767D01*
X121855391Y-83594758D01*
X121855394Y-83594756D01*
X121859902Y-83591599D01*
X122021799Y-83429702D01*
X122153124Y-83242150D01*
X122155447Y-83237168D01*
X122155450Y-83237163D01*
X122247563Y-83039625D01*
X122247564Y-83039624D01*
X122249886Y-83034643D01*
X122309145Y-82813487D01*
X122329100Y-82585400D01*
X122309145Y-82357313D01*
X122249886Y-82136157D01*
X122247563Y-82131175D01*
X122155450Y-81933637D01*
X122155447Y-81933632D01*
X122153124Y-81928650D01*
X122021799Y-81741098D01*
X121859902Y-81579201D01*
X121855394Y-81576044D01*
X121855391Y-81576042D01*
X121676859Y-81451033D01*
X121676857Y-81451032D01*
X121672350Y-81447876D01*
X121667368Y-81445553D01*
X121667363Y-81445550D01*
X121633146Y-81429595D01*
X121579861Y-81382678D01*
X121560400Y-81314401D01*
X121580942Y-81246441D01*
X121633146Y-81201205D01*
X121667363Y-81185250D01*
X121667368Y-81185247D01*
X121672350Y-81182924D01*
X121676859Y-81179767D01*
X121855391Y-81054758D01*
X121855394Y-81054756D01*
X121859902Y-81051599D01*
X122021799Y-80889702D01*
X122153124Y-80702150D01*
X122155447Y-80697168D01*
X122155450Y-80697163D01*
X122247563Y-80499625D01*
X122247564Y-80499624D01*
X122249886Y-80494643D01*
X122309145Y-80273487D01*
X122329100Y-80045400D01*
X122309145Y-79817313D01*
X122249886Y-79596157D01*
X122247563Y-79591175D01*
X122155450Y-79393637D01*
X122155447Y-79393632D01*
X122153124Y-79388650D01*
X122021799Y-79201098D01*
X121859902Y-79039201D01*
X121855394Y-79036044D01*
X121855391Y-79036042D01*
X121676859Y-78911033D01*
X121676857Y-78911032D01*
X121672350Y-78907876D01*
X121667368Y-78905553D01*
X121667363Y-78905550D01*
X121633146Y-78889595D01*
X121579861Y-78842678D01*
X121560400Y-78774401D01*
X121580942Y-78706441D01*
X121633146Y-78661205D01*
X121667363Y-78645250D01*
X121667368Y-78645247D01*
X121672350Y-78642924D01*
X121676859Y-78639767D01*
X121855391Y-78514758D01*
X121855394Y-78514756D01*
X121859902Y-78511599D01*
X122021799Y-78349702D01*
X122153124Y-78162150D01*
X122155447Y-78157168D01*
X122155450Y-78157163D01*
X122247563Y-77959625D01*
X122247564Y-77959624D01*
X122249886Y-77954643D01*
X122309145Y-77733487D01*
X122329100Y-77505400D01*
X122309145Y-77277313D01*
X122249886Y-77056157D01*
X122247563Y-77051175D01*
X122155450Y-76853637D01*
X122155447Y-76853632D01*
X122153124Y-76848650D01*
X122021799Y-76661098D01*
X121859902Y-76499201D01*
X121855394Y-76496044D01*
X121855391Y-76496042D01*
X121676859Y-76371033D01*
X121676857Y-76371032D01*
X121672350Y-76367876D01*
X121667368Y-76365553D01*
X121667363Y-76365550D01*
X121633146Y-76349595D01*
X121579861Y-76302678D01*
X121560400Y-76234401D01*
X121580942Y-76166441D01*
X121633146Y-76121205D01*
X121667363Y-76105250D01*
X121667368Y-76105247D01*
X121672350Y-76102924D01*
X121676859Y-76099767D01*
X121855391Y-75974758D01*
X121855394Y-75974756D01*
X121859902Y-75971599D01*
X122021799Y-75809702D01*
X122153124Y-75622150D01*
X122155447Y-75617168D01*
X122155450Y-75617163D01*
X122247563Y-75419625D01*
X122247564Y-75419624D01*
X122249886Y-75414643D01*
X122309145Y-75193487D01*
X122329100Y-74965400D01*
X122309145Y-74737313D01*
X122249886Y-74516157D01*
X122247563Y-74511175D01*
X122155450Y-74313637D01*
X122155447Y-74313632D01*
X122153124Y-74308650D01*
X122021799Y-74121098D01*
X121859902Y-73959201D01*
X121855394Y-73956044D01*
X121855391Y-73956042D01*
X121676859Y-73831033D01*
X121676857Y-73831032D01*
X121672350Y-73827876D01*
X121667368Y-73825553D01*
X121667363Y-73825550D01*
X121633146Y-73809595D01*
X121579861Y-73762678D01*
X121560400Y-73694401D01*
X121580942Y-73626441D01*
X121633146Y-73581205D01*
X121667363Y-73565250D01*
X121667368Y-73565247D01*
X121672350Y-73562924D01*
X121748175Y-73509831D01*
X121855391Y-73434758D01*
X121855394Y-73434756D01*
X121859902Y-73431599D01*
X122021799Y-73269702D01*
X122055969Y-73220903D01*
X122149967Y-73086659D01*
X122149968Y-73086657D01*
X122153124Y-73082150D01*
X122155447Y-73077168D01*
X122155450Y-73077163D01*
X122247563Y-72879625D01*
X122247564Y-72879624D01*
X122249886Y-72874643D01*
X122309145Y-72653487D01*
X122329100Y-72425400D01*
X122309145Y-72197313D01*
X122249886Y-71976157D01*
X122247563Y-71971175D01*
X122155450Y-71773637D01*
X122155447Y-71773632D01*
X122153124Y-71768650D01*
X122021799Y-71581098D01*
X121859902Y-71419201D01*
X121855394Y-71416044D01*
X121855391Y-71416042D01*
X121676859Y-71291033D01*
X121676857Y-71291032D01*
X121672350Y-71287876D01*
X121667368Y-71285553D01*
X121667363Y-71285550D01*
X121469825Y-71193437D01*
X121469824Y-71193436D01*
X121464843Y-71191114D01*
X121459535Y-71189692D01*
X121459533Y-71189691D01*
X121249002Y-71133279D01*
X121249000Y-71133279D01*
X121243687Y-71131855D01*
X121015600Y-71111900D01*
X120787513Y-71131855D01*
X120782200Y-71133279D01*
X120782198Y-71133279D01*
X120571667Y-71189691D01*
X120571665Y-71189692D01*
X120566357Y-71191114D01*
X120561376Y-71193436D01*
X120561375Y-71193437D01*
X120363837Y-71285550D01*
X120363832Y-71285553D01*
X120358850Y-71287876D01*
X120354343Y-71291032D01*
X120354341Y-71291033D01*
X120175809Y-71416042D01*
X120175806Y-71416044D01*
X120171298Y-71419201D01*
X120009401Y-71581098D01*
X119878076Y-71768650D01*
X119875753Y-71773632D01*
X119875750Y-71773637D01*
X119783637Y-71971175D01*
X119781314Y-71976157D01*
X119722055Y-72197313D01*
X119702100Y-72425400D01*
X114709100Y-72425400D01*
X114709100Y-71625400D01*
X114703873Y-71552321D01*
X114662696Y-71412084D01*
X114616993Y-71340969D01*
X114588549Y-71296709D01*
X114588547Y-71296706D01*
X114583677Y-71289129D01*
X114576867Y-71283228D01*
X114480031Y-71199318D01*
X114480028Y-71199316D01*
X114473219Y-71193416D01*
X114340270Y-71132700D01*
X114331355Y-71131418D01*
X114331354Y-71131418D01*
X114200048Y-71112539D01*
X114200041Y-71112538D01*
X114195600Y-71111900D01*
X112595600Y-71111900D01*
X112522521Y-71117127D01*
X112472362Y-71131855D01*
X112390930Y-71155765D01*
X112390928Y-71155766D01*
X112382284Y-71158304D01*
X112374705Y-71163175D01*
X112266909Y-71232451D01*
X112266906Y-71232453D01*
X112259329Y-71237323D01*
X112253428Y-71244133D01*
X112169518Y-71340969D01*
X112169516Y-71340972D01*
X112163616Y-71347781D01*
X112102900Y-71480730D01*
X112101618Y-71489645D01*
X112101618Y-71489646D01*
X112082739Y-71620952D01*
X112082738Y-71620959D01*
X112082100Y-71625400D01*
X112082100Y-73225400D01*
X112087327Y-73298479D01*
X112128504Y-73438716D01*
X112133375Y-73446295D01*
X112202651Y-73554091D01*
X112202653Y-73554094D01*
X112207523Y-73561671D01*
X112214333Y-73567572D01*
X112311169Y-73651482D01*
X112311172Y-73651484D01*
X112317981Y-73657384D01*
X112326179Y-73661128D01*
X112403412Y-73696399D01*
X112450930Y-73718100D01*
X112459845Y-73719382D01*
X112459846Y-73719382D01*
X112504722Y-73725834D01*
X112569303Y-73755327D01*
X112607687Y-73815053D01*
X112607687Y-73886050D01*
X112569304Y-73945776D01*
X112559065Y-73953762D01*
X112551298Y-73959201D01*
X112389401Y-74121098D01*
X112258076Y-74308650D01*
X112255753Y-74313632D01*
X112255750Y-74313637D01*
X112163637Y-74511175D01*
X112161314Y-74516157D01*
X112102055Y-74737313D01*
X112082100Y-74965400D01*
X112102055Y-75193487D01*
X112161314Y-75414643D01*
X112163636Y-75419624D01*
X112163637Y-75419625D01*
X112255750Y-75617163D01*
X112255753Y-75617168D01*
X112258076Y-75622150D01*
X112389401Y-75809702D01*
X112551298Y-75971599D01*
X112555806Y-75974756D01*
X112555809Y-75974758D01*
X112734341Y-76099767D01*
X112738850Y-76102924D01*
X112743832Y-76105247D01*
X112743837Y-76105250D01*
X112778054Y-76121205D01*
X112831339Y-76168122D01*
X112850800Y-76236399D01*
X112830258Y-76304359D01*
X112778054Y-76349595D01*
X112743837Y-76365550D01*
X112743832Y-76365553D01*
X112738850Y-76367876D01*
X112734343Y-76371032D01*
X112734341Y-76371033D01*
X112555809Y-76496042D01*
X112555806Y-76496044D01*
X112551298Y-76499201D01*
X112389401Y-76661098D01*
X112258076Y-76848650D01*
X112255753Y-76853632D01*
X112255750Y-76853637D01*
X112163637Y-77051175D01*
X112161314Y-77056157D01*
X112102055Y-77277313D01*
X112082100Y-77505400D01*
X112102055Y-77733487D01*
X112161314Y-77954643D01*
X112163636Y-77959624D01*
X112163637Y-77959625D01*
X112255750Y-78157163D01*
X112255753Y-78157168D01*
X112258076Y-78162150D01*
X112389401Y-78349702D01*
X112551298Y-78511599D01*
X112555806Y-78514756D01*
X112555809Y-78514758D01*
X112734341Y-78639767D01*
X112738850Y-78642924D01*
X112743832Y-78645247D01*
X112743837Y-78645250D01*
X112778054Y-78661205D01*
X112831339Y-78708122D01*
X112850800Y-78776399D01*
X112830258Y-78844359D01*
X112778054Y-78889595D01*
X112743837Y-78905550D01*
X112743832Y-78905553D01*
X112738850Y-78907876D01*
X112734343Y-78911032D01*
X112734341Y-78911033D01*
X112555809Y-79036042D01*
X112555806Y-79036044D01*
X112551298Y-79039201D01*
X112389401Y-79201098D01*
X112258076Y-79388650D01*
X112255753Y-79393632D01*
X112255750Y-79393637D01*
X112163637Y-79591175D01*
X112161314Y-79596157D01*
X112102055Y-79817313D01*
X112082100Y-80045400D01*
X112102055Y-80273487D01*
X112161314Y-80494643D01*
X112163636Y-80499624D01*
X112163637Y-80499625D01*
X112255750Y-80697163D01*
X112255753Y-80697168D01*
X112258076Y-80702150D01*
X112389401Y-80889702D01*
X112551298Y-81051599D01*
X112555806Y-81054756D01*
X112555809Y-81054758D01*
X112734341Y-81179767D01*
X112738850Y-81182924D01*
X112743832Y-81185247D01*
X112743837Y-81185250D01*
X112778054Y-81201205D01*
X112831339Y-81248122D01*
X112850800Y-81316399D01*
X112830258Y-81384359D01*
X112778054Y-81429595D01*
X112743837Y-81445550D01*
X112743832Y-81445553D01*
X112738850Y-81447876D01*
X112734343Y-81451032D01*
X112734341Y-81451033D01*
X112555809Y-81576042D01*
X112555806Y-81576044D01*
X112551298Y-81579201D01*
X112389401Y-81741098D01*
X112258076Y-81928650D01*
X112255753Y-81933632D01*
X112255750Y-81933637D01*
X112163637Y-82131175D01*
X112161314Y-82136157D01*
X112102055Y-82357313D01*
X112082100Y-82585400D01*
X112102055Y-82813487D01*
X112161314Y-83034643D01*
X112163636Y-83039624D01*
X112163637Y-83039625D01*
X112255750Y-83237163D01*
X112255753Y-83237168D01*
X112258076Y-83242150D01*
X112389401Y-83429702D01*
X112551298Y-83591599D01*
X112555806Y-83594756D01*
X112555809Y-83594758D01*
X112734341Y-83719767D01*
X112738850Y-83722924D01*
X112743832Y-83725247D01*
X112743837Y-83725250D01*
X112778054Y-83741205D01*
X112831339Y-83788122D01*
X112850800Y-83856399D01*
X112830258Y-83924359D01*
X112778054Y-83969595D01*
X112743837Y-83985550D01*
X112743832Y-83985553D01*
X112738850Y-83987876D01*
X112734343Y-83991032D01*
X112734341Y-83991033D01*
X112555809Y-84116042D01*
X112555806Y-84116044D01*
X112551298Y-84119201D01*
X112389401Y-84281098D01*
X112258076Y-84468650D01*
X112255753Y-84473632D01*
X112255750Y-84473637D01*
X112163637Y-84671175D01*
X112161314Y-84676157D01*
X112102055Y-84897313D01*
X112082100Y-85125400D01*
X112102055Y-85353487D01*
X112161314Y-85574643D01*
X112163636Y-85579624D01*
X112163637Y-85579625D01*
X112255750Y-85777163D01*
X112255753Y-85777168D01*
X112258076Y-85782150D01*
X112389401Y-85969702D01*
X112551298Y-86131599D01*
X112555806Y-86134756D01*
X112555809Y-86134758D01*
X112734341Y-86259767D01*
X112738850Y-86262924D01*
X112743832Y-86265247D01*
X112743837Y-86265250D01*
X112778054Y-86281205D01*
X112831339Y-86328122D01*
X112850800Y-86396399D01*
X112830258Y-86464359D01*
X112778054Y-86509595D01*
X112743837Y-86525550D01*
X112743832Y-86525553D01*
X112738850Y-86527876D01*
X112734343Y-86531032D01*
X112734341Y-86531033D01*
X112555809Y-86656042D01*
X112555806Y-86656044D01*
X112551298Y-86659201D01*
X112389401Y-86821098D01*
X112386244Y-86825606D01*
X112386242Y-86825609D01*
X112386017Y-86825931D01*
X112258076Y-87008650D01*
X112255753Y-87013632D01*
X112255750Y-87013637D01*
X112163637Y-87211175D01*
X112161314Y-87216157D01*
X112102055Y-87437313D01*
X112082100Y-87665400D01*
X112102055Y-87893487D01*
X112161314Y-88114643D01*
X112163636Y-88119624D01*
X112163637Y-88119625D01*
X112255750Y-88317163D01*
X112255753Y-88317168D01*
X112258076Y-88322150D01*
X112389401Y-88509702D01*
X112551298Y-88671599D01*
X112555806Y-88674756D01*
X112555809Y-88674758D01*
X112721535Y-88790800D01*
X112738359Y-88804918D01*
X112790982Y-88857541D01*
X112825008Y-88919853D01*
X112819943Y-88990668D01*
X112777396Y-89047504D01*
X112755139Y-89060830D01*
X112744082Y-89065986D01*
X112734596Y-89071463D01*
X112556131Y-89196425D01*
X112547723Y-89203481D01*
X112393681Y-89357523D01*
X112386625Y-89365931D01*
X112261666Y-89544391D01*
X112256183Y-89553887D01*
X112164109Y-89751343D01*
X112160361Y-89761639D01*
X112114202Y-89933903D01*
X112114538Y-89947999D01*
X112122480Y-89951400D01*
X113523600Y-89951400D01*
X113591721Y-89971402D01*
X113638214Y-90025058D01*
X113649600Y-90077400D01*
X113649600Y-90333400D01*
X113629598Y-90401521D01*
X113575942Y-90448014D01*
X113523600Y-90459400D01*
X112127629Y-90459400D01*
X112114098Y-90463373D01*
X112112869Y-90471922D01*
X112160361Y-90649161D01*
X112164109Y-90659457D01*
X112256183Y-90856913D01*
X112261666Y-90866409D01*
X112386625Y-91044869D01*
X112393681Y-91053277D01*
X112547723Y-91207319D01*
X112556131Y-91214375D01*
X112734591Y-91339334D01*
X112744091Y-91344819D01*
X112778642Y-91360930D01*
X112831928Y-91407847D01*
X112851389Y-91476124D01*
X112830847Y-91544084D01*
X112778643Y-91589320D01*
X112743838Y-91605550D01*
X112738850Y-91607876D01*
X112734343Y-91611032D01*
X112734341Y-91611033D01*
X112555809Y-91736042D01*
X112555806Y-91736044D01*
X112551298Y-91739201D01*
X112389401Y-91901098D01*
X112258076Y-92088650D01*
X112255753Y-92093632D01*
X112255750Y-92093637D01*
X112163637Y-92291175D01*
X112161314Y-92296157D01*
X112102055Y-92517313D01*
X112082100Y-92745400D01*
X112102055Y-92973487D01*
X112161314Y-93194643D01*
X112163636Y-93199624D01*
X112163637Y-93199625D01*
X112255750Y-93397163D01*
X112255753Y-93397168D01*
X112258076Y-93402150D01*
X112389401Y-93589702D01*
X112551298Y-93751599D01*
X112555806Y-93754756D01*
X112555809Y-93754758D01*
X112734341Y-93879767D01*
X112738850Y-93882924D01*
X112743832Y-93885247D01*
X112743837Y-93885250D01*
X112778054Y-93901205D01*
X112831339Y-93948122D01*
X112850800Y-94016399D01*
X112830258Y-94084359D01*
X112778054Y-94129595D01*
X112743837Y-94145550D01*
X112743832Y-94145553D01*
X112738850Y-94147876D01*
X112734343Y-94151032D01*
X112734341Y-94151033D01*
X112555809Y-94276042D01*
X112555806Y-94276044D01*
X112551298Y-94279201D01*
X112389401Y-94441098D01*
X112258076Y-94628650D01*
X112255753Y-94633632D01*
X112255750Y-94633637D01*
X112163637Y-94831175D01*
X112161314Y-94836157D01*
X112102055Y-95057313D01*
X112082100Y-95285400D01*
X112102055Y-95513487D01*
X112161314Y-95734643D01*
X112163636Y-95739624D01*
X112163637Y-95739625D01*
X112255750Y-95937163D01*
X112255753Y-95937168D01*
X112258076Y-95942150D01*
X112389401Y-96129702D01*
X112551298Y-96291599D01*
X112555806Y-96294756D01*
X112555809Y-96294758D01*
X112734341Y-96419767D01*
X112738850Y-96422924D01*
X112743832Y-96425247D01*
X112743837Y-96425250D01*
X112778054Y-96441205D01*
X112831339Y-96488122D01*
X112850800Y-96556399D01*
X112830258Y-96624359D01*
X112778054Y-96669595D01*
X112743837Y-96685550D01*
X112743832Y-96685553D01*
X112738850Y-96687876D01*
X112734343Y-96691032D01*
X112734341Y-96691033D01*
X112555809Y-96816042D01*
X112555806Y-96816044D01*
X112551298Y-96819201D01*
X112389401Y-96981098D01*
X112258076Y-97168650D01*
X112255753Y-97173632D01*
X112255750Y-97173637D01*
X112163637Y-97371175D01*
X112161314Y-97376157D01*
X112102055Y-97597313D01*
X112082100Y-97825400D01*
X112102055Y-98053487D01*
X112161314Y-98274643D01*
X112163636Y-98279624D01*
X112163637Y-98279625D01*
X112255750Y-98477163D01*
X112255753Y-98477168D01*
X112258076Y-98482150D01*
X112389401Y-98669702D01*
X112551298Y-98831599D01*
X112555806Y-98834756D01*
X112555809Y-98834758D01*
X112734341Y-98959767D01*
X112738850Y-98962924D01*
X112743832Y-98965247D01*
X112743837Y-98965250D01*
X112778054Y-98981205D01*
X112831339Y-99028122D01*
X112850800Y-99096399D01*
X112830258Y-99164359D01*
X112778054Y-99209595D01*
X112743837Y-99225550D01*
X112743832Y-99225553D01*
X112738850Y-99227876D01*
X112734343Y-99231032D01*
X112734341Y-99231033D01*
X112555809Y-99356042D01*
X112555806Y-99356044D01*
X112551298Y-99359201D01*
X112389401Y-99521098D01*
X112258076Y-99708650D01*
X112255753Y-99713632D01*
X112255750Y-99713637D01*
X112163637Y-99911175D01*
X112161314Y-99916157D01*
X112102055Y-100137313D01*
X112082100Y-100365400D01*
X112102055Y-100593487D01*
X112161314Y-100814643D01*
X112163636Y-100819624D01*
X112163637Y-100819625D01*
X112255750Y-101017163D01*
X112255753Y-101017168D01*
X112258076Y-101022150D01*
X112389401Y-101209702D01*
X112551298Y-101371599D01*
X112555806Y-101374756D01*
X112555809Y-101374758D01*
X112734341Y-101499767D01*
X112738850Y-101502924D01*
X112743832Y-101505247D01*
X112743837Y-101505250D01*
X112778054Y-101521205D01*
X112831339Y-101568122D01*
X112850800Y-101636399D01*
X112830258Y-101704359D01*
X112778054Y-101749595D01*
X112743837Y-101765550D01*
X112743832Y-101765553D01*
X112738850Y-101767876D01*
X112734343Y-101771032D01*
X112734341Y-101771033D01*
X112555809Y-101896042D01*
X112555806Y-101896044D01*
X112551298Y-101899201D01*
X112389401Y-102061098D01*
X112258076Y-102248650D01*
X112255753Y-102253632D01*
X112255750Y-102253637D01*
X112163637Y-102451175D01*
X112161314Y-102456157D01*
X112102055Y-102677313D01*
X112082100Y-102905400D01*
X112102055Y-103133487D01*
X112161314Y-103354643D01*
X112163636Y-103359624D01*
X112163637Y-103359625D01*
X112255750Y-103557163D01*
X112255753Y-103557168D01*
X112258076Y-103562150D01*
X112389401Y-103749702D01*
X112551298Y-103911599D01*
X112555806Y-103914756D01*
X112555809Y-103914758D01*
X112734341Y-104039767D01*
X112738850Y-104042924D01*
X112743832Y-104045247D01*
X112743837Y-104045250D01*
X112778054Y-104061205D01*
X112831339Y-104108122D01*
X112850800Y-104176399D01*
X112830258Y-104244359D01*
X112778054Y-104289595D01*
X112743837Y-104305550D01*
X112743832Y-104305553D01*
X112738850Y-104307876D01*
X112734343Y-104311032D01*
X112734341Y-104311033D01*
X112555809Y-104436042D01*
X112555806Y-104436044D01*
X112551298Y-104439201D01*
X112389401Y-104601098D01*
X112258076Y-104788650D01*
X112255753Y-104793632D01*
X112255750Y-104793637D01*
X112247798Y-104810691D01*
X112161314Y-104996157D01*
X112159892Y-105001465D01*
X112159891Y-105001467D01*
X112103479Y-105211998D01*
X112102055Y-105217313D01*
X112082100Y-105445400D01*
X112102055Y-105673487D01*
X112161314Y-105894643D01*
X112163636Y-105899624D01*
X112163637Y-105899625D01*
X112255750Y-106097163D01*
X112255753Y-106097168D01*
X112258076Y-106102150D01*
X112389401Y-106289702D01*
X112551298Y-106451599D01*
X112555806Y-106454756D01*
X112555809Y-106454758D01*
X112668242Y-106533484D01*
X112738850Y-106582924D01*
X112743832Y-106585247D01*
X112743837Y-106585250D01*
X112941375Y-106677363D01*
X112946357Y-106679686D01*
X112951665Y-106681108D01*
X112951667Y-106681109D01*
X113162198Y-106737521D01*
X113162200Y-106737521D01*
X113167513Y-106738945D01*
X113395600Y-106758900D01*
X113600803Y-106740947D01*
X113670407Y-106754936D01*
X113721400Y-106804336D01*
X113737590Y-106873461D01*
X113713838Y-106940367D01*
X113700879Y-106955563D01*
X112313017Y-108343425D01*
X112312186Y-108344186D01*
X112311724Y-108344510D01*
X112154510Y-108501724D01*
X112123692Y-108545737D01*
X112117157Y-108554267D01*
X112101926Y-108572484D01*
X112087823Y-108589350D01*
X112087821Y-108589354D01*
X112084224Y-108593655D01*
X112081444Y-108598529D01*
X112061123Y-108634155D01*
X112054890Y-108643997D01*
X112026985Y-108683850D01*
X112024661Y-108688833D01*
X112024659Y-108688837D01*
X112003218Y-108734817D01*
X111998472Y-108743993D01*
X111971869Y-108790634D01*
X111969996Y-108795924D01*
X111957095Y-108832356D01*
X111952516Y-108843549D01*
X111933022Y-108885353D01*
X111931598Y-108890668D01*
X111931596Y-108890673D01*
X111917802Y-108942151D01*
X111914869Y-108951597D01*
X111898046Y-108999105D01*
X111898044Y-108999111D01*
X111896173Y-109004396D01*
X111895267Y-109009930D01*
X111889404Y-109045732D01*
X111886768Y-109057977D01*
X111875478Y-109100112D01*
X111874998Y-109105600D01*
X111870131Y-109161224D01*
X111868955Y-109170604D01*
X111859526Y-109228185D01*
X111859614Y-109233799D01*
X111859614Y-109233800D01*
X111860146Y-109267685D01*
X111859683Y-109280642D01*
X111856100Y-109321600D01*
X107975400Y-109321600D01*
X107975400Y-61687200D01*
X112110700Y-61687200D01*
X112110700Y-63687200D01*
X112115927Y-63760279D01*
X112157104Y-63900516D01*
X112164258Y-63911647D01*
X112231251Y-64015891D01*
X112231253Y-64015894D01*
X112236123Y-64023471D01*
X112242933Y-64029372D01*
X112339769Y-64113282D01*
X112339772Y-64113284D01*
X112346581Y-64119184D01*
X112479530Y-64179900D01*
X112488445Y-64181182D01*
X112488446Y-64181182D01*
X112619752Y-64200061D01*
X112619759Y-64200062D01*
X112624200Y-64200700D01*
X114583606Y-64200700D01*
X114651727Y-64220702D01*
X114698220Y-64274358D01*
X114708324Y-64344632D01*
X114678830Y-64409212D01*
X114672701Y-64415795D01*
X114374897Y-64713599D01*
X114312585Y-64747625D01*
X114285802Y-64750504D01*
X114204513Y-64750504D01*
X114198061Y-64751876D01*
X114198056Y-64751876D01*
X114111113Y-64770357D01*
X114017713Y-64790210D01*
X114011683Y-64792895D01*
X114011682Y-64792895D01*
X113849280Y-64865201D01*
X113849278Y-64865202D01*
X113843250Y-64867886D01*
X113837909Y-64871766D01*
X113837908Y-64871767D01*
X113694093Y-64976254D01*
X113694091Y-64976256D01*
X113688749Y-64980137D01*
X113560963Y-65122058D01*
X113465476Y-65287446D01*
X113406462Y-65469073D01*
X113386500Y-65659000D01*
X113406462Y-65848927D01*
X113465476Y-66030554D01*
X113560963Y-66195942D01*
X113688749Y-66337863D01*
X113694091Y-66341744D01*
X113694093Y-66341746D01*
X113837908Y-66446233D01*
X113843250Y-66450114D01*
X113849278Y-66452798D01*
X113849280Y-66452799D01*
X114011682Y-66525105D01*
X114017713Y-66527790D01*
X114111113Y-66547643D01*
X114198056Y-66566124D01*
X114198061Y-66566124D01*
X114204513Y-66567496D01*
X114395487Y-66567496D01*
X114401939Y-66566124D01*
X114401944Y-66566124D01*
X114488887Y-66547643D01*
X114582287Y-66527790D01*
X114588318Y-66525105D01*
X114750720Y-66452799D01*
X114750722Y-66452798D01*
X114756750Y-66450114D01*
X114762092Y-66446233D01*
X114905907Y-66341746D01*
X114905909Y-66341744D01*
X114911251Y-66337863D01*
X115039037Y-66195942D01*
X115134524Y-66030554D01*
X115193538Y-65848927D01*
X115207919Y-65712094D01*
X115234932Y-65646438D01*
X115244134Y-65636170D01*
X118193104Y-62687200D01*
X119710700Y-62687200D01*
X119729334Y-62923964D01*
X119784776Y-63154897D01*
X119875662Y-63374315D01*
X119999753Y-63576813D01*
X120002965Y-63580573D01*
X120002968Y-63580578D01*
X120067039Y-63655595D01*
X120153994Y-63757406D01*
X120157756Y-63760619D01*
X120330822Y-63908432D01*
X120330827Y-63908435D01*
X120334587Y-63911647D01*
X120537085Y-64035738D01*
X120541655Y-64037631D01*
X120541659Y-64037633D01*
X120738541Y-64119184D01*
X120756503Y-64126624D01*
X120836715Y-64145881D01*
X120982623Y-64180911D01*
X120982629Y-64180912D01*
X120987436Y-64182066D01*
X121224200Y-64200700D01*
X121460964Y-64182066D01*
X121465771Y-64180912D01*
X121465777Y-64180911D01*
X121611685Y-64145881D01*
X121691897Y-64126624D01*
X121709859Y-64119184D01*
X121906741Y-64037633D01*
X121906745Y-64037631D01*
X121911315Y-64035738D01*
X122113813Y-63911647D01*
X122117573Y-63908435D01*
X122117578Y-63908432D01*
X122290644Y-63760619D01*
X122294406Y-63757406D01*
X122381361Y-63655595D01*
X122445432Y-63580578D01*
X122445435Y-63580573D01*
X122448647Y-63576813D01*
X122572738Y-63374315D01*
X122663624Y-63154897D01*
X122719066Y-62923964D01*
X122737700Y-62687200D01*
X122719066Y-62450436D01*
X122663624Y-62219503D01*
X122572738Y-62000085D01*
X122448647Y-61797587D01*
X122445435Y-61793827D01*
X122445432Y-61793822D01*
X122297619Y-61620756D01*
X122294406Y-61616994D01*
X122144300Y-61488791D01*
X122117578Y-61465968D01*
X122117573Y-61465965D01*
X122113813Y-61462753D01*
X121911315Y-61338662D01*
X121906745Y-61336769D01*
X121906741Y-61336767D01*
X121696470Y-61249670D01*
X121696468Y-61249669D01*
X121691897Y-61247776D01*
X121596924Y-61224975D01*
X121465777Y-61193489D01*
X121465771Y-61193488D01*
X121460964Y-61192334D01*
X121224200Y-61173700D01*
X120987436Y-61192334D01*
X120982629Y-61193488D01*
X120982623Y-61193489D01*
X120851476Y-61224975D01*
X120756503Y-61247776D01*
X120751932Y-61249669D01*
X120751930Y-61249670D01*
X120541659Y-61336767D01*
X120541655Y-61336769D01*
X120537085Y-61338662D01*
X120334587Y-61462753D01*
X120330827Y-61465965D01*
X120330822Y-61465968D01*
X120304100Y-61488791D01*
X120153994Y-61616994D01*
X120150781Y-61620756D01*
X120002968Y-61793822D01*
X120002965Y-61793827D01*
X119999753Y-61797587D01*
X119875662Y-62000085D01*
X119784776Y-62219503D01*
X119729334Y-62450436D01*
X119710700Y-62687200D01*
X118193104Y-62687200D01*
X119391513Y-61488791D01*
X119399601Y-61481431D01*
X119405995Y-61477373D01*
X119451870Y-61428521D01*
X119454624Y-61425680D01*
X119474938Y-61405366D01*
X119477582Y-61401958D01*
X119485292Y-61392930D01*
X119510132Y-61366478D01*
X119515557Y-61360701D01*
X119525320Y-61342942D01*
X119536163Y-61326435D01*
X119548584Y-61310423D01*
X119566142Y-61269849D01*
X119571364Y-61259189D01*
X119588846Y-61227390D01*
X119588847Y-61227387D01*
X119592662Y-61220448D01*
X119597700Y-61200828D01*
X119604099Y-61182136D01*
X119612148Y-61163535D01*
X119619064Y-61119869D01*
X119621471Y-61108244D01*
X119630988Y-61071177D01*
X119632465Y-61065425D01*
X119632500Y-61064869D01*
X119632500Y-61044953D01*
X119634051Y-61025242D01*
X119635945Y-61013284D01*
X119637185Y-61005455D01*
X119633059Y-60961806D01*
X119632500Y-60949949D01*
X119632500Y-60138519D01*
X119652502Y-60070398D01*
X119664864Y-60054209D01*
X119733618Y-59977850D01*
X119733619Y-59977849D01*
X119738037Y-59972942D01*
X119833524Y-59807554D01*
X119892538Y-59625927D01*
X119912500Y-59436000D01*
X119892538Y-59246073D01*
X119833524Y-59064446D01*
X119738037Y-58899058D01*
X119610251Y-58757137D01*
X119604909Y-58753256D01*
X119604907Y-58753254D01*
X119461092Y-58648767D01*
X119461091Y-58648766D01*
X119455750Y-58644886D01*
X119449722Y-58642202D01*
X119449720Y-58642201D01*
X119287318Y-58569895D01*
X119287317Y-58569895D01*
X119281287Y-58567210D01*
X119187887Y-58547357D01*
X119100944Y-58528876D01*
X119100939Y-58528876D01*
X119094487Y-58527504D01*
X118903513Y-58527504D01*
X118897061Y-58528876D01*
X118897056Y-58528876D01*
X118810113Y-58547357D01*
X118716713Y-58567210D01*
X118710683Y-58569895D01*
X118710682Y-58569895D01*
X118548280Y-58642201D01*
X118548278Y-58642202D01*
X118542250Y-58644886D01*
X118536909Y-58648766D01*
X118536908Y-58648767D01*
X118393093Y-58753254D01*
X118393091Y-58753256D01*
X118387749Y-58757137D01*
X118259963Y-58899058D01*
X118164476Y-59064446D01*
X118105462Y-59246073D01*
X118085500Y-59436000D01*
X118105462Y-59625927D01*
X118164476Y-59807554D01*
X118259963Y-59972942D01*
X118264381Y-59977849D01*
X118264382Y-59977850D01*
X118333136Y-60054209D01*
X118363854Y-60118216D01*
X118365500Y-60138519D01*
X118365500Y-60670805D01*
X118345498Y-60738926D01*
X118328595Y-60759900D01*
X116396366Y-62692130D01*
X115352795Y-63735701D01*
X115290483Y-63769727D01*
X115219668Y-63764662D01*
X115162832Y-63722115D01*
X115138021Y-63655595D01*
X115137700Y-63646606D01*
X115137700Y-61687200D01*
X115132473Y-61614121D01*
X115091296Y-61473884D01*
X115045593Y-61402769D01*
X115017149Y-61358509D01*
X115017147Y-61358506D01*
X115012277Y-61350929D01*
X114993045Y-61334264D01*
X114908631Y-61261118D01*
X114908628Y-61261116D01*
X114901819Y-61255216D01*
X114768870Y-61194500D01*
X114759955Y-61193218D01*
X114759954Y-61193218D01*
X114628648Y-61174339D01*
X114628641Y-61174338D01*
X114624200Y-61173700D01*
X112624200Y-61173700D01*
X112551121Y-61178927D01*
X112498084Y-61194500D01*
X112419530Y-61217565D01*
X112419528Y-61217566D01*
X112410884Y-61220104D01*
X112403305Y-61224975D01*
X112295509Y-61294251D01*
X112295506Y-61294253D01*
X112287929Y-61299123D01*
X112282028Y-61305933D01*
X112198118Y-61402769D01*
X112198116Y-61402772D01*
X112192216Y-61409581D01*
X112131500Y-61542530D01*
X112130218Y-61551445D01*
X112130218Y-61551446D01*
X112111339Y-61682752D01*
X112111338Y-61682759D01*
X112110700Y-61687200D01*
X107975400Y-61687200D01*
X107975400Y-46735000D01*
X107995402Y-46666879D01*
X108049058Y-46620386D01*
X108101400Y-46609000D01*
X125731000Y-46609000D01*
X125799121Y-46629002D01*
G37*
%TD.AperFunction*%
%TD*%
M02*
