M48
; DRILL file {KiCad (5.99.0-11163-g08fb05e522)} date Sunday, June 27, 2021 at 08:16:40 PM
; FORMAT={-:-/ absolute / inch / decimal}
; #@! TF.CreationDate,2021-06-27T20:16:40-07:00
; #@! TF.GenerationSoftware,Kicad,Pcbnew,(5.99.0-11163-g08fb05e522)
; #@! TF.FileFunction,MixedPlating,1,2
FMAT,2
INCH
; #@! TA.AperFunction,Plated,PTH,ViaDrill
T1C0.0157
; #@! TA.AperFunction,Plated,PTH,ComponentDrill
T2C0.0315
; #@! TA.AperFunction,Plated,PTH,ViaDrill
T3C0.0350
; #@! TA.AperFunction,Plated,PTH,ComponentDrill
T4C0.0394
%
G90
G05
T1
X4.5Y-2.585
X4.685Y-2.34
T2
X4.4644Y-2.8514
X4.4644Y-2.9514
X4.4644Y-3.0514
X4.4644Y-3.1514
X4.4644Y-3.2514
X4.4644Y-3.3514
X4.4644Y-3.4514
X4.4644Y-3.5514
X4.4644Y-3.6514
X4.4644Y-3.7514
X4.4644Y-3.8514
X4.4644Y-3.9514
X4.4644Y-4.0514
X4.4644Y-4.1514
X4.7644Y-2.8514
X4.7644Y-2.9514
X4.7644Y-3.0514
X4.7644Y-3.1514
X4.7644Y-3.2514
X4.7644Y-3.3514
X4.7644Y-3.4514
X4.7644Y-3.5514
X4.7644Y-3.6514
X4.7644Y-3.7514
X4.7644Y-3.8514
X4.7644Y-3.9514
X4.7644Y-4.0514
X4.7644Y-4.1514
T3
X4.454Y-4.304
T4
X4.4734Y-2.468
X4.5396Y-4.879
X4.6396Y-4.879
X4.7396Y-4.879
X4.7726Y-2.468
T0
M30
