%TF.GenerationSoftware,KiCad,Pcbnew,(5.99.0-11163-g08fb05e522)*%
%TF.CreationDate,2021-06-27T20:24:36-07:00*%
%TF.ProjectId,MeditationLamp,4d656469-7461-4746-996f-6e4c616d702e,rev?*%
%TF.SameCoordinates,Original*%
%TF.FileFunction,Soldermask,Top*%
%TF.FilePolarity,Negative*%
%FSLAX46Y46*%
G04 Gerber Fmt 4.6, Leading zero omitted, Abs format (unit mm)*
G04 Created by KiCad (PCBNEW (5.99.0-11163-g08fb05e522)) date 2021-06-27 20:24:36*
%MOMM*%
%LPD*%
G01*
G04 APERTURE LIST*
G04 Aperture macros list*
%AMRoundRect*
0 Rectangle with rounded corners*
0 $1 Rounding radius*
0 $2 $3 $4 $5 $6 $7 $8 $9 X,Y pos of 4 corners*
0 Add a 4 corners polygon primitive as box body*
4,1,4,$2,$3,$4,$5,$6,$7,$8,$9,$2,$3,0*
0 Add four circle primitives for the rounded corners*
1,1,$1+$1,$2,$3*
1,1,$1+$1,$4,$5*
1,1,$1+$1,$6,$7*
1,1,$1+$1,$8,$9*
0 Add four rect primitives between the rounded corners*
20,1,$1+$1,$2,$3,$4,$5,0*
20,1,$1+$1,$4,$5,$6,$7,0*
20,1,$1+$1,$6,$7,$8,$9,0*
20,1,$1+$1,$8,$9,$2,$3,0*%
G04 Aperture macros list end*
%ADD10R,1.600000X1.600000*%
%ADD11O,1.600000X1.600000*%
%ADD12R,1.600000X1.400000*%
%ADD13RoundRect,0.200000X-0.200000X-0.275000X0.200000X-0.275000X0.200000X0.275000X-0.200000X0.275000X0*%
%ADD14R,1.700000X1.700000*%
%ADD15O,1.700000X1.700000*%
%ADD16RoundRect,0.250000X-1.750000X-1.000000X1.750000X-1.000000X1.750000X1.000000X-1.750000X1.000000X0*%
%ADD17R,2.000000X2.000000*%
%ADD18C,2.000000*%
G04 APERTURE END LIST*
D10*
%TO.C,U1*%
X113395600Y-72425400D03*
D11*
X121015600Y-105445400D03*
X113395600Y-74965400D03*
X121015600Y-102905400D03*
X113395600Y-77505400D03*
X121015600Y-100365400D03*
X113395600Y-80045400D03*
X121015600Y-97825400D03*
X113395600Y-82585400D03*
X121015600Y-95285400D03*
X113395600Y-85125400D03*
X121015600Y-92745400D03*
X113395600Y-87665400D03*
X121015600Y-90205400D03*
X113395600Y-90205400D03*
X121015600Y-87665400D03*
X113395600Y-92745400D03*
X121015600Y-85125400D03*
X113395600Y-95285400D03*
X121015600Y-82585400D03*
X113395600Y-97825400D03*
X121015600Y-80045400D03*
X113395600Y-100365400D03*
X121015600Y-77505400D03*
X113395600Y-102905400D03*
X121015600Y-74965400D03*
X113395600Y-105445400D03*
X121015600Y-72425400D03*
%TD*%
D12*
%TO.C,SW1*%
X113060300Y-54650200D03*
X121060300Y-54650200D03*
X113060300Y-50150200D03*
X121060300Y-50150200D03*
%TD*%
D13*
%TO.C,R3*%
X120104400Y-69723000D03*
X121754400Y-69723000D03*
%TD*%
%TO.C,R2*%
X119799600Y-109245400D03*
X121449600Y-109245400D03*
%TD*%
%TO.C,R1*%
X114654600Y-69850000D03*
X113004600Y-69850000D03*
%TD*%
D14*
%TO.C,J1*%
X115305600Y-123926600D03*
D15*
X117845600Y-123926600D03*
X120385600Y-123926600D03*
%TD*%
D16*
%TO.C,C1*%
X120738400Y-116459000D03*
X112738400Y-116459000D03*
%TD*%
D17*
%TO.C,BZ1*%
X113624200Y-62687200D03*
D18*
X121224200Y-62687200D03*
%TD*%
M02*
