%TF.GenerationSoftware,KiCad,Pcbnew,(5.99.0-11067-gb10f156dd0)*%
%TF.CreationDate,2021-06-27T22:48:24-06:00*%
%TF.ProjectId,MeditationLamp,4d656469-7461-4746-996f-6e4c616d702e,rev?*%
%TF.SameCoordinates,Original*%
%TF.FileFunction,Soldermask,Top*%
%TF.FilePolarity,Negative*%
%FSLAX46Y46*%
G04 Gerber Fmt 4.6, Leading zero omitted, Abs format (unit mm)*
G04 Created by KiCad (PCBNEW (5.99.0-11067-gb10f156dd0)) date 2021-06-27 22:48:24*
%MOMM*%
%LPD*%
G01*
G04 APERTURE LIST*
G04 Aperture macros list*
%AMRoundRect*
0 Rectangle with rounded corners*
0 $1 Rounding radius*
0 $2 $3 $4 $5 $6 $7 $8 $9 X,Y pos of 4 corners*
0 Add a 4 corners polygon primitive as box body*
4,1,4,$2,$3,$4,$5,$6,$7,$8,$9,$2,$3,0*
0 Add four circle primitives for the rounded corners*
1,1,$1+$1,$2,$3*
1,1,$1+$1,$4,$5*
1,1,$1+$1,$6,$7*
1,1,$1+$1,$8,$9*
0 Add four rect primitives between the rounded corners*
20,1,$1+$1,$2,$3,$4,$5,0*
20,1,$1+$1,$4,$5,$6,$7,0*
20,1,$1+$1,$6,$7,$8,$9,0*
20,1,$1+$1,$8,$9,$2,$3,0*%
G04 Aperture macros list end*
%ADD10O,1.700000X1.700000*%
%ADD11R,1.700000X1.700000*%
%ADD12R,1.600000X1.400000*%
%ADD13RoundRect,0.200000X-0.200000X-0.275000X0.200000X-0.275000X0.200000X0.275000X-0.200000X0.275000X0*%
%ADD14O,1.600000X1.600000*%
%ADD15R,1.600000X1.600000*%
%ADD16RoundRect,0.250000X-1.750000X-1.000000X1.750000X-1.000000X1.750000X1.000000X-1.750000X1.000000X0*%
%ADD17C,2.000000*%
%ADD18R,2.000000X2.000000*%
G04 APERTURE END LIST*
D10*
%TO.C,J1*%
X33299200Y-99502000D03*
X30759200Y-99502000D03*
D11*
X28219200Y-99502000D03*
%TD*%
D12*
%TO.C,SW1*%
X34532700Y-28574600D03*
X26532700Y-28574600D03*
X34532700Y-24074600D03*
X26532700Y-24074600D03*
%TD*%
D13*
%TO.C,R2*%
X34922000Y-83169800D03*
X33272000Y-83169800D03*
%TD*%
D14*
%TO.C,U1*%
X34488000Y-46349800D03*
X34488000Y-48889800D03*
X34488000Y-51429800D03*
X34488000Y-53969800D03*
X34488000Y-56509800D03*
X34488000Y-59049800D03*
X34488000Y-61589800D03*
X34488000Y-64129800D03*
X34488000Y-66669800D03*
X34488000Y-69209800D03*
X34488000Y-71749800D03*
X34488000Y-74289800D03*
X34488000Y-76829800D03*
X34488000Y-79369800D03*
X26868000Y-79369800D03*
X26868000Y-76829800D03*
X26868000Y-74289800D03*
X26868000Y-71749800D03*
X26868000Y-69209800D03*
X26868000Y-66669800D03*
X26868000Y-64129800D03*
X26868000Y-61589800D03*
X26868000Y-59049800D03*
X26868000Y-56509800D03*
X26868000Y-53969800D03*
X26868000Y-51429800D03*
X26868000Y-48889800D03*
D15*
X26868000Y-46349800D03*
%TD*%
D16*
%TO.C,C1*%
X34210800Y-90383400D03*
X26210800Y-90383400D03*
%TD*%
D13*
%TO.C,R3*%
X35226800Y-43647400D03*
X33576800Y-43647400D03*
%TD*%
D17*
%TO.C,BZ1*%
X34696600Y-36611600D03*
D18*
X27096600Y-36611600D03*
%TD*%
D13*
%TO.C,R1*%
X28127000Y-43774400D03*
X26477000Y-43774400D03*
%TD*%
M02*
