M48
; DRILL file {KiCad (5.99.0-11067-gb10f156dd0)} date Sun Jun 27 22:48:26 2021
; FORMAT={-:-/ absolute / inch / decimal}
; #@! TF.CreationDate,2021-06-27T22:48:26-06:00
; #@! TF.GenerationSoftware,Kicad,Pcbnew,(5.99.0-11067-gb10f156dd0)
; #@! TF.FileFunction,MixedPlating,1,2
FMAT,2
INCH
; #@! TA.AperFunction,Plated,PTH,ViaDrill
T1C0.0157
; #@! TA.AperFunction,Plated,PTH,ComponentDrill
T2C0.0315
; #@! TA.AperFunction,Plated,PTH,ViaDrill
T3C0.0350
; #@! TA.AperFunction,Plated,PTH,ComponentDrill
T4C0.0394
%
G90
G05
T1
X1.0934Y-1.5584
X1.2784Y-1.3134
T2
X1.0578Y-1.8248
X1.0578Y-1.9248
X1.0578Y-2.0248
X1.0578Y-2.1248
X1.0578Y-2.2248
X1.0578Y-2.3248
X1.0578Y-2.4248
X1.0578Y-2.5248
X1.0578Y-2.6248
X1.0578Y-2.7248
X1.0578Y-2.8248
X1.0578Y-2.9248
X1.0578Y-3.0248
X1.0578Y-3.1248
X1.3578Y-1.8248
X1.3578Y-1.9248
X1.3578Y-2.0248
X1.3578Y-2.1248
X1.3578Y-2.2248
X1.3578Y-2.3248
X1.3578Y-2.4248
X1.3578Y-2.5248
X1.3578Y-2.6248
X1.3578Y-2.7248
X1.3578Y-2.8248
X1.3578Y-2.9248
X1.3578Y-3.0248
X1.3578Y-3.1248
T3
X1.0474Y-3.2774
T4
X1.0668Y-1.4414
X1.111Y-3.9174
X1.211Y-3.9174
X1.311Y-3.9174
X1.366Y-1.4414
T0
M30
