%TF.GenerationSoftware,KiCad,Pcbnew,(5.99.0-11067-gb10f156dd0)*%
%TF.CreationDate,2021-06-27T22:48:24-06:00*%
%TF.ProjectId,MeditationLamp,4d656469-7461-4746-996f-6e4c616d702e,rev?*%
%TF.SameCoordinates,Original*%
%TF.FileFunction,Copper,L2,Bot*%
%TF.FilePolarity,Positive*%
%FSLAX46Y46*%
G04 Gerber Fmt 4.6, Leading zero omitted, Abs format (unit mm)*
G04 Created by KiCad (PCBNEW (5.99.0-11067-gb10f156dd0)) date 2021-06-27 22:48:24*
%MOMM*%
%LPD*%
G01*
G04 APERTURE LIST*
%TA.AperFunction,ComponentPad*%
%ADD10O,1.700000X1.700000*%
%TD*%
%TA.AperFunction,ComponentPad*%
%ADD11R,1.700000X1.700000*%
%TD*%
%TA.AperFunction,ComponentPad*%
%ADD12O,1.600000X1.600000*%
%TD*%
%TA.AperFunction,ComponentPad*%
%ADD13R,1.600000X1.600000*%
%TD*%
%TA.AperFunction,ComponentPad*%
%ADD14C,2.000000*%
%TD*%
%TA.AperFunction,ComponentPad*%
%ADD15R,2.000000X2.000000*%
%TD*%
%TA.AperFunction,ViaPad*%
%ADD16C,1.524000*%
%TD*%
%TA.AperFunction,ViaPad*%
%ADD17C,0.800000*%
%TD*%
%TA.AperFunction,Conductor*%
%ADD18C,1.524000*%
%TD*%
%TA.AperFunction,Conductor*%
%ADD19C,0.250000*%
%TD*%
G04 APERTURE END LIST*
D10*
%TO.P,J1,3,Pin_3*%
%TO.N,GND*%
X33299200Y-99502000D03*
%TO.P,J1,2,Pin_2*%
%TO.N,Net-(J1-Pad2)*%
X30759200Y-99502000D03*
D11*
%TO.P,J1,1,Pin_1*%
%TO.N,+5V*%
X28219200Y-99502000D03*
%TD*%
D12*
%TO.P,U1,28,PC5*%
%TO.N,unconnected-(U1-Pad28)*%
X34488000Y-46349800D03*
%TO.P,U1,27,PC4*%
%TO.N,unconnected-(U1-Pad27)*%
X34488000Y-48889800D03*
%TO.P,U1,26,PC3*%
%TO.N,unconnected-(U1-Pad26)*%
X34488000Y-51429800D03*
%TO.P,U1,25,PC2*%
%TO.N,unconnected-(U1-Pad25)*%
X34488000Y-53969800D03*
%TO.P,U1,24,PC1*%
%TO.N,unconnected-(U1-Pad24)*%
X34488000Y-56509800D03*
%TO.P,U1,23,PC0*%
%TO.N,unconnected-(U1-Pad23)*%
X34488000Y-59049800D03*
%TO.P,U1,22,GND*%
%TO.N,GND*%
X34488000Y-61589800D03*
%TO.P,U1,21,AREF*%
%TO.N,+5V*%
X34488000Y-64129800D03*
%TO.P,U1,20,AVCC*%
X34488000Y-66669800D03*
%TO.P,U1,19,PB5*%
%TO.N,unconnected-(U1-Pad19)*%
X34488000Y-69209800D03*
%TO.P,U1,18,PB4*%
%TO.N,unconnected-(U1-Pad18)*%
X34488000Y-71749800D03*
%TO.P,U1,17,PB3*%
%TO.N,unconnected-(U1-Pad17)*%
X34488000Y-74289800D03*
%TO.P,U1,16,PB2*%
%TO.N,unconnected-(U1-Pad16)*%
X34488000Y-76829800D03*
%TO.P,U1,15,PB1*%
%TO.N,unconnected-(U1-Pad15)*%
X34488000Y-79369800D03*
%TO.P,U1,14,PB0*%
%TO.N,unconnected-(U1-Pad14)*%
X26868000Y-79369800D03*
%TO.P,U1,13,PD7*%
%TO.N,Net-(U1-Pad13)*%
X26868000Y-76829800D03*
%TO.P,U1,12,PD6*%
%TO.N,/BUZZ*%
X26868000Y-74289800D03*
%TO.P,U1,11,PD5*%
%TO.N,unconnected-(U1-Pad11)*%
X26868000Y-71749800D03*
%TO.P,U1,10,XTAL2/PB7*%
%TO.N,unconnected-(U1-Pad10)*%
X26868000Y-69209800D03*
%TO.P,U1,9,XTAL1/PB6*%
%TO.N,unconnected-(U1-Pad9)*%
X26868000Y-66669800D03*
%TO.P,U1,8,GND*%
%TO.N,GND*%
X26868000Y-64129800D03*
%TO.P,U1,7,VCC*%
%TO.N,+5V*%
X26868000Y-61589800D03*
%TO.P,U1,6,PD4*%
%TO.N,unconnected-(U1-Pad6)*%
X26868000Y-59049800D03*
%TO.P,U1,5,PD3*%
%TO.N,Net-(SW1-Pad1)*%
X26868000Y-56509800D03*
%TO.P,U1,4,PD2*%
%TO.N,unconnected-(U1-Pad4)*%
X26868000Y-53969800D03*
%TO.P,U1,3,PD1*%
%TO.N,unconnected-(U1-Pad3)*%
X26868000Y-51429800D03*
%TO.P,U1,2,PD0*%
%TO.N,unconnected-(U1-Pad2)*%
X26868000Y-48889800D03*
D13*
%TO.P,U1,1,~{RESET}/PC6*%
%TO.N,unconnected-(U1-Pad1)*%
X26868000Y-46349800D03*
%TD*%
D14*
%TO.P,BZ1,2,+*%
%TO.N,Net-(BZ1-Pad2)*%
X34696600Y-36611600D03*
D15*
%TO.P,BZ1,1,-*%
%TO.N,/BUZZ*%
X27096600Y-36611600D03*
%TD*%
D16*
%TO.N,+5V*%
X26604000Y-83246000D03*
D17*
%TO.N,Net-(R1-Pad1)*%
X27772400Y-39583400D03*
X32471400Y-33360400D03*
%TD*%
D18*
%TO.N,+5V*%
X31226800Y-67828200D02*
X31226800Y-65948600D01*
X26604000Y-83246000D02*
X31226800Y-78623200D01*
X31226800Y-65948600D02*
X26868000Y-61589800D01*
X34488000Y-66669800D02*
X34488000Y-64129800D01*
X32385200Y-66669800D02*
X34488000Y-66669800D01*
X31226800Y-78623200D02*
X31226800Y-67828200D01*
X31226800Y-67828200D02*
X32385200Y-66669800D01*
D19*
%TO.N,Net-(R1-Pad1)*%
X32471400Y-33360400D02*
X32471400Y-34909800D01*
X27797800Y-39583400D02*
X27772400Y-39583400D01*
X32471400Y-34909800D02*
X27797800Y-39583400D01*
%TD*%
%TA.AperFunction,Conductor*%
%TO.N,GND*%
G36*
X38855498Y-20533402D02*
G01*
X38881600Y-20536533D01*
X38881600Y-20538402D01*
X38893568Y-20538990D01*
X38921618Y-20540368D01*
X38940017Y-20542637D01*
X39015441Y-20557640D01*
X39039077Y-20564810D01*
X39107248Y-20593047D01*
X39129032Y-20604691D01*
X39190384Y-20645685D01*
X39209477Y-20661355D01*
X39261647Y-20713525D01*
X39277317Y-20732618D01*
X39318311Y-20793970D01*
X39329955Y-20815754D01*
X39358192Y-20883925D01*
X39365362Y-20907561D01*
X39380365Y-20982985D01*
X39382634Y-21001384D01*
X39384600Y-21041401D01*
X39382462Y-21041506D01*
X39382476Y-21041792D01*
X39385458Y-21041402D01*
X39388537Y-21064950D01*
X39389600Y-21081286D01*
X39389600Y-100774914D01*
X39388100Y-100794297D01*
X39384638Y-100816533D01*
X39385092Y-100820006D01*
X39384740Y-100822801D01*
X39384600Y-100822801D01*
X39383708Y-100840958D01*
X39382634Y-100862817D01*
X39380365Y-100881215D01*
X39365362Y-100956642D01*
X39358192Y-100980278D01*
X39329956Y-101048447D01*
X39318317Y-101070223D01*
X39277317Y-101131585D01*
X39261648Y-101150676D01*
X39209477Y-101202847D01*
X39190390Y-101218513D01*
X39129024Y-101259516D01*
X39107249Y-101271155D01*
X39073163Y-101285273D01*
X39039079Y-101299391D01*
X39015443Y-101306561D01*
X38940016Y-101321564D01*
X38921618Y-101323833D01*
X38914151Y-101324200D01*
X38881602Y-101325799D01*
X38881602Y-101327400D01*
X38861479Y-101330799D01*
X38853979Y-101330799D01*
X38853209Y-101330797D01*
X38852653Y-101330794D01*
X38811979Y-101330545D01*
X38811147Y-101330783D01*
X38810909Y-101330799D01*
X38688543Y-101330799D01*
X21042101Y-101330800D01*
X21015999Y-101327669D01*
X21015999Y-101325800D01*
X21004031Y-101325212D01*
X20975983Y-101323834D01*
X20957585Y-101321565D01*
X20882158Y-101306562D01*
X20858522Y-101299392D01*
X20790353Y-101271156D01*
X20768577Y-101259517D01*
X20707211Y-101218514D01*
X20688124Y-101202848D01*
X20635953Y-101150677D01*
X20620287Y-101131590D01*
X20579284Y-101070224D01*
X20567645Y-101048448D01*
X20539409Y-100980279D01*
X20532239Y-100956643D01*
X20517236Y-100881216D01*
X20514967Y-100862818D01*
X20513193Y-100826704D01*
X20513193Y-100826703D01*
X20513001Y-100822802D01*
X20513001Y-100822801D01*
X20509274Y-100796777D01*
X20508001Y-100778914D01*
X20508001Y-98652000D01*
X26855700Y-98652000D01*
X26855700Y-100352000D01*
X26860927Y-100425079D01*
X26864391Y-100436875D01*
X26893550Y-100536182D01*
X26902104Y-100565316D01*
X26906975Y-100572895D01*
X26976251Y-100680691D01*
X26976253Y-100680694D01*
X26981123Y-100688271D01*
X26987933Y-100694172D01*
X27084769Y-100778082D01*
X27084772Y-100778084D01*
X27091581Y-100783984D01*
X27099779Y-100787728D01*
X27212198Y-100839068D01*
X27224530Y-100844700D01*
X27233445Y-100845982D01*
X27233446Y-100845982D01*
X27364752Y-100864861D01*
X27364759Y-100864862D01*
X27369200Y-100865500D01*
X29069200Y-100865500D01*
X29142279Y-100860273D01*
X29234836Y-100833096D01*
X29273870Y-100821635D01*
X29273872Y-100821634D01*
X29282516Y-100819096D01*
X29349646Y-100775954D01*
X29397891Y-100744949D01*
X29397894Y-100744947D01*
X29405471Y-100740077D01*
X29430286Y-100711439D01*
X29495282Y-100636431D01*
X29495284Y-100636428D01*
X29501184Y-100629619D01*
X29561900Y-100496670D01*
X29562520Y-100492360D01*
X29599632Y-100434610D01*
X29664212Y-100405117D01*
X29734486Y-100415220D01*
X29766535Y-100436270D01*
X29934829Y-100588069D01*
X30129606Y-100711439D01*
X30342384Y-100800228D01*
X30347587Y-100801425D01*
X30347592Y-100801426D01*
X30561878Y-100850701D01*
X30561883Y-100850702D01*
X30567081Y-100851897D01*
X30572409Y-100852200D01*
X30572412Y-100852200D01*
X30723077Y-100860755D01*
X30797271Y-100864968D01*
X30802578Y-100864368D01*
X30802580Y-100864368D01*
X30976554Y-100844700D01*
X31026373Y-100839068D01*
X31031488Y-100837587D01*
X31031492Y-100837586D01*
X31118100Y-100812506D01*
X31247835Y-100774937D01*
X31455325Y-100674409D01*
X31459663Y-100671309D01*
X31459668Y-100671306D01*
X31638570Y-100543459D01*
X31642911Y-100540357D01*
X31805230Y-100376617D01*
X31927153Y-100202816D01*
X31982649Y-100158536D01*
X32053275Y-100151289D01*
X32116607Y-100183375D01*
X32140981Y-100214958D01*
X32158750Y-100247617D01*
X32164602Y-100256491D01*
X32300686Y-100429113D01*
X32307950Y-100436875D01*
X32471167Y-100584094D01*
X32479644Y-100590528D01*
X32665322Y-100708136D01*
X32674767Y-100713053D01*
X32877606Y-100797694D01*
X32887745Y-100800950D01*
X33027545Y-100833096D01*
X33041622Y-100832257D01*
X33045200Y-100822999D01*
X33045200Y-99769548D01*
X33553200Y-99769548D01*
X33553200Y-100821941D01*
X33557351Y-100836079D01*
X33567998Y-100837774D01*
X33571392Y-100837096D01*
X33782533Y-100775954D01*
X33792459Y-100772143D01*
X33990265Y-100676307D01*
X33999412Y-100670876D01*
X34178241Y-100543083D01*
X34186349Y-100536182D01*
X34341093Y-100380082D01*
X34347906Y-100371933D01*
X34474140Y-100191988D01*
X34479495Y-100182787D01*
X34573599Y-99984156D01*
X34577323Y-99974197D01*
X34635168Y-99767718D01*
X34633630Y-99759351D01*
X34621337Y-99756000D01*
X33571315Y-99756000D01*
X33556076Y-99760475D01*
X33554871Y-99761865D01*
X33553200Y-99769548D01*
X33045200Y-99769548D01*
X33045200Y-98185717D01*
X33044528Y-98183430D01*
X33553200Y-98183430D01*
X33553200Y-99229885D01*
X33557675Y-99245124D01*
X33559065Y-99246329D01*
X33566748Y-99248000D01*
X34618279Y-99248000D01*
X34631810Y-99244027D01*
X34633076Y-99235218D01*
X34586154Y-99054433D01*
X34582619Y-99044395D01*
X34492347Y-98843998D01*
X34487167Y-98834692D01*
X34364418Y-98652366D01*
X34357757Y-98644080D01*
X34206030Y-98485030D01*
X34198073Y-98477990D01*
X34021723Y-98346782D01*
X34012686Y-98341178D01*
X33816750Y-98241559D01*
X33806899Y-98237559D01*
X33596978Y-98172378D01*
X33586596Y-98170095D01*
X33571159Y-98168049D01*
X33556992Y-98170246D01*
X33553200Y-98183430D01*
X33044528Y-98183430D01*
X33041227Y-98172186D01*
X33030620Y-98170661D01*
X32912754Y-98195391D01*
X32902558Y-98198451D01*
X32698132Y-98279182D01*
X32688596Y-98283916D01*
X32500686Y-98397942D01*
X32492096Y-98404206D01*
X32326084Y-98548264D01*
X32318664Y-98555895D01*
X32179300Y-98725860D01*
X32173279Y-98734622D01*
X32139627Y-98793739D01*
X32088544Y-98843045D01*
X32018914Y-98856906D01*
X31952843Y-98830922D01*
X31925605Y-98801773D01*
X31874497Y-98725860D01*
X31821827Y-98647626D01*
X31662682Y-98480799D01*
X31477704Y-98343171D01*
X31472953Y-98340755D01*
X31472949Y-98340753D01*
X31276940Y-98241097D01*
X31276939Y-98241097D01*
X31272182Y-98238678D01*
X31162087Y-98204492D01*
X31057095Y-98171891D01*
X31057089Y-98171890D01*
X31051992Y-98170307D01*
X30946998Y-98156391D01*
X30828715Y-98140714D01*
X30828710Y-98140714D01*
X30823430Y-98140014D01*
X30818100Y-98140214D01*
X30818099Y-98140214D01*
X30724520Y-98143727D01*
X30593031Y-98148663D01*
X30548446Y-98158018D01*
X30372611Y-98194912D01*
X30372608Y-98194913D01*
X30367384Y-98196009D01*
X30152940Y-98280697D01*
X29955831Y-98400306D01*
X29951801Y-98403803D01*
X29825606Y-98513309D01*
X29781692Y-98551415D01*
X29776539Y-98557700D01*
X29775564Y-98558365D01*
X29774590Y-98559366D01*
X29774386Y-98559168D01*
X29717881Y-98597695D01*
X29646910Y-98599628D01*
X29586161Y-98562885D01*
X29558208Y-98513309D01*
X29538834Y-98447329D01*
X29536296Y-98438684D01*
X29474913Y-98343171D01*
X29462149Y-98323309D01*
X29462147Y-98323306D01*
X29457277Y-98315729D01*
X29414584Y-98278735D01*
X29353631Y-98225918D01*
X29353628Y-98225916D01*
X29346819Y-98220016D01*
X29338621Y-98216272D01*
X29222064Y-98163042D01*
X29222063Y-98163042D01*
X29213870Y-98159300D01*
X29204955Y-98158018D01*
X29204954Y-98158018D01*
X29073648Y-98139139D01*
X29073641Y-98139138D01*
X29069200Y-98138500D01*
X27369200Y-98138500D01*
X27296121Y-98143727D01*
X27243084Y-98159300D01*
X27164530Y-98182365D01*
X27164528Y-98182366D01*
X27155884Y-98184904D01*
X27135550Y-98197972D01*
X27040509Y-98259051D01*
X27040506Y-98259053D01*
X27032929Y-98263923D01*
X27027028Y-98270733D01*
X26943118Y-98367569D01*
X26943116Y-98367572D01*
X26937216Y-98374381D01*
X26876500Y-98507330D01*
X26875218Y-98516245D01*
X26875218Y-98516246D01*
X26856339Y-98647552D01*
X26856338Y-98647559D01*
X26855700Y-98652000D01*
X20508001Y-98652000D01*
X20508001Y-83326089D01*
X25331017Y-83326089D01*
X25331865Y-83331630D01*
X25333768Y-83344063D01*
X25335202Y-83361133D01*
X25335487Y-83379326D01*
X25351694Y-83461934D01*
X25352592Y-83467081D01*
X25365318Y-83550249D01*
X25371209Y-83567455D01*
X25375644Y-83584009D01*
X25379145Y-83601853D01*
X25381186Y-83607088D01*
X25409707Y-83680242D01*
X25411521Y-83685197D01*
X25438773Y-83764793D01*
X25441503Y-83769698D01*
X25441504Y-83769700D01*
X25447615Y-83780679D01*
X25454912Y-83796186D01*
X25461519Y-83813132D01*
X25505491Y-83884888D01*
X25508150Y-83889439D01*
X25549059Y-83962937D01*
X25552611Y-83967277D01*
X25552618Y-83967287D01*
X25560571Y-83977003D01*
X25570501Y-83990975D01*
X25575685Y-83999434D01*
X25580006Y-84006485D01*
X25583741Y-84010678D01*
X25583744Y-84010681D01*
X25635968Y-84069295D01*
X25639391Y-84073303D01*
X25692690Y-84138421D01*
X25696953Y-84142062D01*
X25696954Y-84142063D01*
X25706520Y-84150233D01*
X25718765Y-84162225D01*
X25727125Y-84171608D01*
X25727131Y-84171613D01*
X25730860Y-84175799D01*
X25767321Y-84204388D01*
X25797072Y-84227716D01*
X25801155Y-84231059D01*
X25865127Y-84285696D01*
X25880836Y-84294876D01*
X25895001Y-84304502D01*
X25909313Y-84315724D01*
X25914277Y-84318352D01*
X25914278Y-84318353D01*
X25983667Y-84355093D01*
X25988247Y-84357641D01*
X26060919Y-84400107D01*
X26078002Y-84406358D01*
X26093651Y-84413327D01*
X26109724Y-84421837D01*
X26115077Y-84423546D01*
X26115081Y-84423547D01*
X26166061Y-84439816D01*
X26189884Y-84447419D01*
X26194864Y-84449124D01*
X26273876Y-84478038D01*
X26291790Y-84481165D01*
X26308421Y-84485249D01*
X26325758Y-84490782D01*
X26409161Y-84501762D01*
X26414377Y-84502560D01*
X26497269Y-84517027D01*
X26502875Y-84516998D01*
X26502879Y-84516998D01*
X26515457Y-84516932D01*
X26532559Y-84518008D01*
X26545025Y-84519649D01*
X26545027Y-84519649D01*
X26550587Y-84520381D01*
X26556187Y-84520117D01*
X26556188Y-84520117D01*
X26587547Y-84518638D01*
X26634637Y-84516418D01*
X26639898Y-84516280D01*
X26724035Y-84515839D01*
X26729549Y-84514817D01*
X26729559Y-84514816D01*
X26741911Y-84512526D01*
X26758941Y-84510555D01*
X26777105Y-84509699D01*
X26859124Y-84490914D01*
X26864288Y-84489845D01*
X26947007Y-84474514D01*
X26964022Y-84468085D01*
X26980417Y-84463135D01*
X26992680Y-84460326D01*
X26992679Y-84460326D01*
X26998151Y-84459073D01*
X27075540Y-84426064D01*
X27080436Y-84424096D01*
X27098011Y-84417455D01*
X27159137Y-84394357D01*
X27163947Y-84391478D01*
X27163954Y-84391475D01*
X27174743Y-84385018D01*
X27190010Y-84377239D01*
X27201572Y-84372307D01*
X27201581Y-84372302D01*
X27206739Y-84370102D01*
X27277067Y-84323905D01*
X27281538Y-84321101D01*
X27348903Y-84280784D01*
X27348904Y-84280783D01*
X27353720Y-84277901D01*
X27367422Y-84265948D01*
X27381074Y-84255586D01*
X27392408Y-84248141D01*
X27392413Y-84248137D01*
X27396274Y-84245601D01*
X27441062Y-84205697D01*
X27469274Y-84177485D01*
X27475540Y-84171631D01*
X27500069Y-84150233D01*
X27524605Y-84128829D01*
X27547167Y-84100667D01*
X27556406Y-84090353D01*
X32060719Y-79586039D01*
X32073110Y-79575171D01*
X32085704Y-79565507D01*
X32090155Y-79562092D01*
X32093928Y-79557946D01*
X32093933Y-79557941D01*
X32143618Y-79503337D01*
X32147716Y-79499042D01*
X32164793Y-79481965D01*
X32182685Y-79460567D01*
X32186143Y-79456602D01*
X32238997Y-79398517D01*
X32238998Y-79398516D01*
X32242774Y-79394366D01*
X32252444Y-79378951D01*
X32262509Y-79365097D01*
X32274175Y-79351145D01*
X32315855Y-79278071D01*
X32318558Y-79273555D01*
X32360299Y-79207016D01*
X32360300Y-79207013D01*
X32363279Y-79202265D01*
X32370064Y-79185387D01*
X32377519Y-79169963D01*
X32386530Y-79154166D01*
X32388401Y-79148883D01*
X32388404Y-79148876D01*
X32414614Y-79074859D01*
X32416469Y-79069951D01*
X32447861Y-78991860D01*
X32451550Y-78974048D01*
X32456159Y-78957543D01*
X32460354Y-78945696D01*
X32460356Y-78945687D01*
X32462227Y-78940404D01*
X32475822Y-78857386D01*
X32476784Y-78852198D01*
X32492910Y-78774327D01*
X32492910Y-78774326D01*
X32493847Y-78769802D01*
X32495468Y-78741683D01*
X32496916Y-78728570D01*
X32498874Y-78716615D01*
X32497316Y-78617439D01*
X32497300Y-78615460D01*
X32497300Y-68406650D01*
X32517302Y-68338529D01*
X32534204Y-68317555D01*
X32874553Y-67977205D01*
X32936866Y-67943180D01*
X32963649Y-67940300D01*
X33620110Y-67940300D01*
X33688231Y-67960302D01*
X33734724Y-68013958D01*
X33744828Y-68084232D01*
X33715334Y-68148812D01*
X33692380Y-68169513D01*
X33648214Y-68200438D01*
X33648208Y-68200443D01*
X33643698Y-68203601D01*
X33481801Y-68365498D01*
X33350476Y-68553050D01*
X33348153Y-68558032D01*
X33348150Y-68558037D01*
X33256037Y-68755575D01*
X33253714Y-68760557D01*
X33194455Y-68981713D01*
X33174500Y-69209800D01*
X33194455Y-69437887D01*
X33253714Y-69659043D01*
X33256036Y-69664024D01*
X33256037Y-69664025D01*
X33348150Y-69861563D01*
X33348153Y-69861568D01*
X33350476Y-69866550D01*
X33481801Y-70054102D01*
X33643698Y-70215999D01*
X33648206Y-70219156D01*
X33648209Y-70219158D01*
X33826741Y-70344167D01*
X33831250Y-70347324D01*
X33836232Y-70349647D01*
X33836237Y-70349650D01*
X33870454Y-70365605D01*
X33923739Y-70412522D01*
X33943200Y-70480799D01*
X33922658Y-70548759D01*
X33870454Y-70593995D01*
X33836237Y-70609950D01*
X33836232Y-70609953D01*
X33831250Y-70612276D01*
X33826743Y-70615432D01*
X33826741Y-70615433D01*
X33648209Y-70740442D01*
X33648206Y-70740444D01*
X33643698Y-70743601D01*
X33481801Y-70905498D01*
X33350476Y-71093050D01*
X33348153Y-71098032D01*
X33348150Y-71098037D01*
X33256037Y-71295575D01*
X33253714Y-71300557D01*
X33194455Y-71521713D01*
X33174500Y-71749800D01*
X33194455Y-71977887D01*
X33253714Y-72199043D01*
X33256036Y-72204024D01*
X33256037Y-72204025D01*
X33348150Y-72401563D01*
X33348153Y-72401568D01*
X33350476Y-72406550D01*
X33481801Y-72594102D01*
X33643698Y-72755999D01*
X33648206Y-72759156D01*
X33648209Y-72759158D01*
X33826741Y-72884167D01*
X33831250Y-72887324D01*
X33836232Y-72889647D01*
X33836237Y-72889650D01*
X33870454Y-72905605D01*
X33923739Y-72952522D01*
X33943200Y-73020799D01*
X33922658Y-73088759D01*
X33870454Y-73133995D01*
X33836237Y-73149950D01*
X33836232Y-73149953D01*
X33831250Y-73152276D01*
X33826743Y-73155432D01*
X33826741Y-73155433D01*
X33648209Y-73280442D01*
X33648206Y-73280444D01*
X33643698Y-73283601D01*
X33481801Y-73445498D01*
X33350476Y-73633050D01*
X33348153Y-73638032D01*
X33348150Y-73638037D01*
X33256037Y-73835575D01*
X33253714Y-73840557D01*
X33194455Y-74061713D01*
X33174500Y-74289800D01*
X33194455Y-74517887D01*
X33253714Y-74739043D01*
X33256036Y-74744024D01*
X33256037Y-74744025D01*
X33348150Y-74941563D01*
X33348153Y-74941568D01*
X33350476Y-74946550D01*
X33481801Y-75134102D01*
X33643698Y-75295999D01*
X33648206Y-75299156D01*
X33648209Y-75299158D01*
X33826741Y-75424167D01*
X33831250Y-75427324D01*
X33836232Y-75429647D01*
X33836237Y-75429650D01*
X33870454Y-75445605D01*
X33923739Y-75492522D01*
X33943200Y-75560799D01*
X33922658Y-75628759D01*
X33870454Y-75673995D01*
X33836237Y-75689950D01*
X33836232Y-75689953D01*
X33831250Y-75692276D01*
X33826743Y-75695432D01*
X33826741Y-75695433D01*
X33648209Y-75820442D01*
X33648206Y-75820444D01*
X33643698Y-75823601D01*
X33481801Y-75985498D01*
X33350476Y-76173050D01*
X33348153Y-76178032D01*
X33348150Y-76178037D01*
X33256037Y-76375575D01*
X33253714Y-76380557D01*
X33194455Y-76601713D01*
X33174500Y-76829800D01*
X33194455Y-77057887D01*
X33253714Y-77279043D01*
X33256036Y-77284024D01*
X33256037Y-77284025D01*
X33348150Y-77481563D01*
X33348153Y-77481568D01*
X33350476Y-77486550D01*
X33481801Y-77674102D01*
X33643698Y-77835999D01*
X33648206Y-77839156D01*
X33648209Y-77839158D01*
X33826741Y-77964167D01*
X33831250Y-77967324D01*
X33836232Y-77969647D01*
X33836237Y-77969650D01*
X33870454Y-77985605D01*
X33923739Y-78032522D01*
X33943200Y-78100799D01*
X33922658Y-78168759D01*
X33870454Y-78213995D01*
X33836237Y-78229950D01*
X33836232Y-78229953D01*
X33831250Y-78232276D01*
X33826743Y-78235432D01*
X33826741Y-78235433D01*
X33648209Y-78360442D01*
X33648206Y-78360444D01*
X33643698Y-78363601D01*
X33481801Y-78525498D01*
X33350476Y-78713050D01*
X33348153Y-78718032D01*
X33348150Y-78718037D01*
X33340198Y-78735091D01*
X33253714Y-78920557D01*
X33252292Y-78925865D01*
X33252291Y-78925867D01*
X33195879Y-79136398D01*
X33194455Y-79141713D01*
X33174500Y-79369800D01*
X33194455Y-79597887D01*
X33253714Y-79819043D01*
X33256036Y-79824024D01*
X33256037Y-79824025D01*
X33348150Y-80021563D01*
X33348153Y-80021568D01*
X33350476Y-80026550D01*
X33481801Y-80214102D01*
X33643698Y-80375999D01*
X33648206Y-80379156D01*
X33648209Y-80379158D01*
X33760642Y-80457884D01*
X33831250Y-80507324D01*
X33836232Y-80509647D01*
X33836237Y-80509650D01*
X34033775Y-80601763D01*
X34038757Y-80604086D01*
X34044065Y-80605508D01*
X34044067Y-80605509D01*
X34254598Y-80661921D01*
X34254600Y-80661921D01*
X34259913Y-80663345D01*
X34488000Y-80683300D01*
X34716087Y-80663345D01*
X34721400Y-80661921D01*
X34721402Y-80661921D01*
X34931933Y-80605509D01*
X34931935Y-80605508D01*
X34937243Y-80604086D01*
X34942225Y-80601763D01*
X35139763Y-80509650D01*
X35139768Y-80509647D01*
X35144750Y-80507324D01*
X35215358Y-80457884D01*
X35327791Y-80379158D01*
X35327794Y-80379156D01*
X35332302Y-80375999D01*
X35494199Y-80214102D01*
X35625524Y-80026550D01*
X35627847Y-80021568D01*
X35627850Y-80021563D01*
X35719963Y-79824025D01*
X35719964Y-79824024D01*
X35722286Y-79819043D01*
X35781545Y-79597887D01*
X35801500Y-79369800D01*
X35781545Y-79141713D01*
X35780121Y-79136398D01*
X35723709Y-78925867D01*
X35723708Y-78925865D01*
X35722286Y-78920557D01*
X35635802Y-78735091D01*
X35627850Y-78718037D01*
X35627847Y-78718032D01*
X35625524Y-78713050D01*
X35494199Y-78525498D01*
X35332302Y-78363601D01*
X35327794Y-78360444D01*
X35327791Y-78360442D01*
X35149259Y-78235433D01*
X35149257Y-78235432D01*
X35144750Y-78232276D01*
X35139768Y-78229953D01*
X35139763Y-78229950D01*
X35105546Y-78213995D01*
X35052261Y-78167078D01*
X35032800Y-78098801D01*
X35053342Y-78030841D01*
X35105546Y-77985605D01*
X35139763Y-77969650D01*
X35139768Y-77969647D01*
X35144750Y-77967324D01*
X35149259Y-77964167D01*
X35327791Y-77839158D01*
X35327794Y-77839156D01*
X35332302Y-77835999D01*
X35494199Y-77674102D01*
X35625524Y-77486550D01*
X35627847Y-77481568D01*
X35627850Y-77481563D01*
X35719963Y-77284025D01*
X35719964Y-77284024D01*
X35722286Y-77279043D01*
X35781545Y-77057887D01*
X35801500Y-76829800D01*
X35781545Y-76601713D01*
X35722286Y-76380557D01*
X35719963Y-76375575D01*
X35627850Y-76178037D01*
X35627847Y-76178032D01*
X35625524Y-76173050D01*
X35494199Y-75985498D01*
X35332302Y-75823601D01*
X35327794Y-75820444D01*
X35327791Y-75820442D01*
X35149259Y-75695433D01*
X35149257Y-75695432D01*
X35144750Y-75692276D01*
X35139768Y-75689953D01*
X35139763Y-75689950D01*
X35105546Y-75673995D01*
X35052261Y-75627078D01*
X35032800Y-75558801D01*
X35053342Y-75490841D01*
X35105546Y-75445605D01*
X35139763Y-75429650D01*
X35139768Y-75429647D01*
X35144750Y-75427324D01*
X35149259Y-75424167D01*
X35327791Y-75299158D01*
X35327794Y-75299156D01*
X35332302Y-75295999D01*
X35494199Y-75134102D01*
X35625524Y-74946550D01*
X35627847Y-74941568D01*
X35627850Y-74941563D01*
X35719963Y-74744025D01*
X35719964Y-74744024D01*
X35722286Y-74739043D01*
X35781545Y-74517887D01*
X35801500Y-74289800D01*
X35781545Y-74061713D01*
X35722286Y-73840557D01*
X35719963Y-73835575D01*
X35627850Y-73638037D01*
X35627847Y-73638032D01*
X35625524Y-73633050D01*
X35494199Y-73445498D01*
X35332302Y-73283601D01*
X35327794Y-73280444D01*
X35327791Y-73280442D01*
X35149259Y-73155433D01*
X35149257Y-73155432D01*
X35144750Y-73152276D01*
X35139768Y-73149953D01*
X35139763Y-73149950D01*
X35105546Y-73133995D01*
X35052261Y-73087078D01*
X35032800Y-73018801D01*
X35053342Y-72950841D01*
X35105546Y-72905605D01*
X35139763Y-72889650D01*
X35139768Y-72889647D01*
X35144750Y-72887324D01*
X35149259Y-72884167D01*
X35327791Y-72759158D01*
X35327794Y-72759156D01*
X35332302Y-72755999D01*
X35494199Y-72594102D01*
X35625524Y-72406550D01*
X35627847Y-72401568D01*
X35627850Y-72401563D01*
X35719963Y-72204025D01*
X35719964Y-72204024D01*
X35722286Y-72199043D01*
X35781545Y-71977887D01*
X35801500Y-71749800D01*
X35781545Y-71521713D01*
X35722286Y-71300557D01*
X35719963Y-71295575D01*
X35627850Y-71098037D01*
X35627847Y-71098032D01*
X35625524Y-71093050D01*
X35494199Y-70905498D01*
X35332302Y-70743601D01*
X35327794Y-70740444D01*
X35327791Y-70740442D01*
X35149259Y-70615433D01*
X35149257Y-70615432D01*
X35144750Y-70612276D01*
X35139768Y-70609953D01*
X35139763Y-70609950D01*
X35105546Y-70593995D01*
X35052261Y-70547078D01*
X35032800Y-70478801D01*
X35053342Y-70410841D01*
X35105546Y-70365605D01*
X35139763Y-70349650D01*
X35139768Y-70349647D01*
X35144750Y-70347324D01*
X35149259Y-70344167D01*
X35327791Y-70219158D01*
X35327794Y-70219156D01*
X35332302Y-70215999D01*
X35494199Y-70054102D01*
X35625524Y-69866550D01*
X35627847Y-69861568D01*
X35627850Y-69861563D01*
X35719963Y-69664025D01*
X35719964Y-69664024D01*
X35722286Y-69659043D01*
X35781545Y-69437887D01*
X35801500Y-69209800D01*
X35781545Y-68981713D01*
X35722286Y-68760557D01*
X35719963Y-68755575D01*
X35627850Y-68558037D01*
X35627847Y-68558032D01*
X35625524Y-68553050D01*
X35494199Y-68365498D01*
X35332302Y-68203601D01*
X35327794Y-68200444D01*
X35327791Y-68200442D01*
X35149259Y-68075433D01*
X35149257Y-68075432D01*
X35144750Y-68072276D01*
X35139768Y-68069953D01*
X35139763Y-68069950D01*
X35105546Y-68053995D01*
X35052261Y-68007078D01*
X35032800Y-67938801D01*
X35053342Y-67870841D01*
X35105546Y-67825605D01*
X35139763Y-67809650D01*
X35139768Y-67809647D01*
X35144750Y-67807324D01*
X35149259Y-67804167D01*
X35327791Y-67679158D01*
X35327794Y-67679156D01*
X35332302Y-67675999D01*
X35494199Y-67514102D01*
X35625524Y-67326550D01*
X35627847Y-67321568D01*
X35627850Y-67321563D01*
X35719963Y-67124025D01*
X35719964Y-67124024D01*
X35722286Y-67119043D01*
X35781545Y-66897887D01*
X35801500Y-66669800D01*
X35781545Y-66441713D01*
X35762793Y-66371729D01*
X35758500Y-66339118D01*
X35758500Y-64460482D01*
X35762793Y-64427871D01*
X35780121Y-64363201D01*
X35781545Y-64357887D01*
X35801500Y-64129800D01*
X35781545Y-63901713D01*
X35722286Y-63680557D01*
X35719963Y-63675575D01*
X35627850Y-63478037D01*
X35627847Y-63478032D01*
X35625524Y-63473050D01*
X35494199Y-63285498D01*
X35332302Y-63123601D01*
X35327794Y-63120444D01*
X35327791Y-63120442D01*
X35149259Y-62995433D01*
X35149257Y-62995432D01*
X35144750Y-62992276D01*
X35129640Y-62985230D01*
X35104957Y-62973720D01*
X35051672Y-62926802D01*
X35032211Y-62858525D01*
X35052753Y-62790565D01*
X35104958Y-62745330D01*
X35139509Y-62729219D01*
X35149009Y-62723734D01*
X35327469Y-62598775D01*
X35335877Y-62591719D01*
X35489919Y-62437677D01*
X35496975Y-62429269D01*
X35621934Y-62250809D01*
X35627417Y-62241313D01*
X35719491Y-62043857D01*
X35723239Y-62033561D01*
X35769398Y-61861297D01*
X35769062Y-61847201D01*
X35761120Y-61843800D01*
X33220029Y-61843800D01*
X33206498Y-61847773D01*
X33205269Y-61856322D01*
X33252761Y-62033561D01*
X33256509Y-62043857D01*
X33348583Y-62241313D01*
X33354066Y-62250809D01*
X33479025Y-62429269D01*
X33486081Y-62437677D01*
X33640123Y-62591719D01*
X33648531Y-62598775D01*
X33826991Y-62723734D01*
X33836491Y-62729219D01*
X33871042Y-62745330D01*
X33924328Y-62792247D01*
X33943789Y-62860524D01*
X33923247Y-62928484D01*
X33871043Y-62973720D01*
X33846360Y-62985230D01*
X33831250Y-62992276D01*
X33826743Y-62995432D01*
X33826741Y-62995433D01*
X33648209Y-63120442D01*
X33648206Y-63120444D01*
X33643698Y-63123601D01*
X33481801Y-63285498D01*
X33350476Y-63473050D01*
X33348153Y-63478032D01*
X33348150Y-63478037D01*
X33256037Y-63675575D01*
X33253714Y-63680557D01*
X33194455Y-63901713D01*
X33174500Y-64129800D01*
X33194455Y-64357887D01*
X33195879Y-64363201D01*
X33213207Y-64427871D01*
X33217500Y-64460482D01*
X33217500Y-65273300D01*
X33197498Y-65341421D01*
X33143842Y-65387914D01*
X33091500Y-65399300D01*
X32476350Y-65399300D01*
X32459904Y-65398222D01*
X32438613Y-65395419D01*
X32438857Y-65393562D01*
X32379581Y-65373434D01*
X32346758Y-65339552D01*
X32340912Y-65330653D01*
X32332504Y-65315730D01*
X32327091Y-65304381D01*
X32324676Y-65299318D01*
X32275581Y-65230995D01*
X32272592Y-65226646D01*
X32226401Y-65156326D01*
X32207660Y-65135292D01*
X32199422Y-65125009D01*
X32192347Y-65115162D01*
X32121058Y-65046078D01*
X32119648Y-65044689D01*
X30064909Y-62989950D01*
X28007517Y-60932559D01*
X27993399Y-60915734D01*
X27877358Y-60750010D01*
X27874199Y-60745498D01*
X27712302Y-60583601D01*
X27707794Y-60580444D01*
X27707791Y-60580442D01*
X27529259Y-60455433D01*
X27529257Y-60455432D01*
X27524750Y-60452276D01*
X27519768Y-60449953D01*
X27519763Y-60449950D01*
X27485546Y-60433995D01*
X27432261Y-60387078D01*
X27412800Y-60318801D01*
X27433342Y-60250841D01*
X27485546Y-60205605D01*
X27519763Y-60189650D01*
X27519768Y-60189647D01*
X27524750Y-60187324D01*
X27529259Y-60184167D01*
X27707791Y-60059158D01*
X27707794Y-60059156D01*
X27712302Y-60055999D01*
X27874199Y-59894102D01*
X28005524Y-59706550D01*
X28007847Y-59701568D01*
X28007850Y-59701563D01*
X28099963Y-59504025D01*
X28099964Y-59504024D01*
X28102286Y-59499043D01*
X28161545Y-59277887D01*
X28181500Y-59049800D01*
X28161545Y-58821713D01*
X28102286Y-58600557D01*
X28099963Y-58595575D01*
X28007850Y-58398037D01*
X28007847Y-58398032D01*
X28005524Y-58393050D01*
X27874199Y-58205498D01*
X27712302Y-58043601D01*
X27707794Y-58040444D01*
X27707791Y-58040442D01*
X27529259Y-57915433D01*
X27529257Y-57915432D01*
X27524750Y-57912276D01*
X27519768Y-57909953D01*
X27519763Y-57909950D01*
X27485546Y-57893995D01*
X27432261Y-57847078D01*
X27412800Y-57778801D01*
X27433342Y-57710841D01*
X27485546Y-57665605D01*
X27519763Y-57649650D01*
X27519768Y-57649647D01*
X27524750Y-57647324D01*
X27529259Y-57644167D01*
X27707791Y-57519158D01*
X27707794Y-57519156D01*
X27712302Y-57515999D01*
X27874199Y-57354102D01*
X28005524Y-57166550D01*
X28007847Y-57161568D01*
X28007850Y-57161563D01*
X28099963Y-56964025D01*
X28099964Y-56964024D01*
X28102286Y-56959043D01*
X28161545Y-56737887D01*
X28181500Y-56509800D01*
X28161545Y-56281713D01*
X28102286Y-56060557D01*
X28099963Y-56055575D01*
X28007850Y-55858037D01*
X28007847Y-55858032D01*
X28005524Y-55853050D01*
X27874199Y-55665498D01*
X27712302Y-55503601D01*
X27707794Y-55500444D01*
X27707791Y-55500442D01*
X27529259Y-55375433D01*
X27529257Y-55375432D01*
X27524750Y-55372276D01*
X27519768Y-55369953D01*
X27519763Y-55369950D01*
X27485546Y-55353995D01*
X27432261Y-55307078D01*
X27412800Y-55238801D01*
X27433342Y-55170841D01*
X27485546Y-55125605D01*
X27519763Y-55109650D01*
X27519768Y-55109647D01*
X27524750Y-55107324D01*
X27529259Y-55104167D01*
X27707791Y-54979158D01*
X27707794Y-54979156D01*
X27712302Y-54975999D01*
X27874199Y-54814102D01*
X28005524Y-54626550D01*
X28007847Y-54621568D01*
X28007850Y-54621563D01*
X28099963Y-54424025D01*
X28099964Y-54424024D01*
X28102286Y-54419043D01*
X28161545Y-54197887D01*
X28181500Y-53969800D01*
X28161545Y-53741713D01*
X28102286Y-53520557D01*
X28099963Y-53515575D01*
X28007850Y-53318037D01*
X28007847Y-53318032D01*
X28005524Y-53313050D01*
X27874199Y-53125498D01*
X27712302Y-52963601D01*
X27707794Y-52960444D01*
X27707791Y-52960442D01*
X27529259Y-52835433D01*
X27529257Y-52835432D01*
X27524750Y-52832276D01*
X27519768Y-52829953D01*
X27519763Y-52829950D01*
X27485546Y-52813995D01*
X27432261Y-52767078D01*
X27412800Y-52698801D01*
X27433342Y-52630841D01*
X27485546Y-52585605D01*
X27519763Y-52569650D01*
X27519768Y-52569647D01*
X27524750Y-52567324D01*
X27529259Y-52564167D01*
X27707791Y-52439158D01*
X27707794Y-52439156D01*
X27712302Y-52435999D01*
X27874199Y-52274102D01*
X28005524Y-52086550D01*
X28007847Y-52081568D01*
X28007850Y-52081563D01*
X28099963Y-51884025D01*
X28099964Y-51884024D01*
X28102286Y-51879043D01*
X28161545Y-51657887D01*
X28181500Y-51429800D01*
X28161545Y-51201713D01*
X28102286Y-50980557D01*
X28099963Y-50975575D01*
X28007850Y-50778037D01*
X28007847Y-50778032D01*
X28005524Y-50773050D01*
X27874199Y-50585498D01*
X27712302Y-50423601D01*
X27707794Y-50420444D01*
X27707791Y-50420442D01*
X27529259Y-50295433D01*
X27529257Y-50295432D01*
X27524750Y-50292276D01*
X27519768Y-50289953D01*
X27519763Y-50289950D01*
X27485546Y-50273995D01*
X27432261Y-50227078D01*
X27412800Y-50158801D01*
X27433342Y-50090841D01*
X27485546Y-50045605D01*
X27519763Y-50029650D01*
X27519768Y-50029647D01*
X27524750Y-50027324D01*
X27529259Y-50024167D01*
X27707791Y-49899158D01*
X27707794Y-49899156D01*
X27712302Y-49895999D01*
X27874199Y-49734102D01*
X28005524Y-49546550D01*
X28007847Y-49541568D01*
X28007850Y-49541563D01*
X28099963Y-49344025D01*
X28099964Y-49344024D01*
X28102286Y-49339043D01*
X28161545Y-49117887D01*
X28181500Y-48889800D01*
X28161545Y-48661713D01*
X28102286Y-48440557D01*
X28099963Y-48435575D01*
X28007850Y-48238037D01*
X28007847Y-48238032D01*
X28005524Y-48233050D01*
X27874199Y-48045498D01*
X27712302Y-47883601D01*
X27707791Y-47880442D01*
X27703578Y-47876907D01*
X27704450Y-47875867D01*
X27664182Y-47825486D01*
X27656876Y-47754866D01*
X27688909Y-47691507D01*
X27745285Y-47656838D01*
X27872670Y-47619435D01*
X27872672Y-47619434D01*
X27881316Y-47616896D01*
X27945135Y-47575882D01*
X27996691Y-47542749D01*
X27996694Y-47542747D01*
X28004271Y-47537877D01*
X28044048Y-47491972D01*
X28094082Y-47434231D01*
X28094084Y-47434228D01*
X28099984Y-47427419D01*
X28160700Y-47294470D01*
X28171962Y-47216140D01*
X28180861Y-47154248D01*
X28180862Y-47154241D01*
X28181500Y-47149800D01*
X28181500Y-46349800D01*
X33174500Y-46349800D01*
X33194455Y-46577887D01*
X33253714Y-46799043D01*
X33256036Y-46804024D01*
X33256037Y-46804025D01*
X33348150Y-47001563D01*
X33348153Y-47001568D01*
X33350476Y-47006550D01*
X33353632Y-47011057D01*
X33353633Y-47011059D01*
X33447632Y-47145303D01*
X33481801Y-47194102D01*
X33643698Y-47355999D01*
X33648206Y-47359156D01*
X33648209Y-47359158D01*
X33755425Y-47434231D01*
X33831250Y-47487324D01*
X33836232Y-47489647D01*
X33836237Y-47489650D01*
X33870454Y-47505605D01*
X33923739Y-47552522D01*
X33943200Y-47620799D01*
X33922658Y-47688759D01*
X33870454Y-47733995D01*
X33836237Y-47749950D01*
X33836232Y-47749953D01*
X33831250Y-47752276D01*
X33826743Y-47755432D01*
X33826741Y-47755433D01*
X33648209Y-47880442D01*
X33648206Y-47880444D01*
X33643698Y-47883601D01*
X33481801Y-48045498D01*
X33350476Y-48233050D01*
X33348153Y-48238032D01*
X33348150Y-48238037D01*
X33256037Y-48435575D01*
X33253714Y-48440557D01*
X33194455Y-48661713D01*
X33174500Y-48889800D01*
X33194455Y-49117887D01*
X33253714Y-49339043D01*
X33256036Y-49344024D01*
X33256037Y-49344025D01*
X33348150Y-49541563D01*
X33348153Y-49541568D01*
X33350476Y-49546550D01*
X33481801Y-49734102D01*
X33643698Y-49895999D01*
X33648206Y-49899156D01*
X33648209Y-49899158D01*
X33826741Y-50024167D01*
X33831250Y-50027324D01*
X33836232Y-50029647D01*
X33836237Y-50029650D01*
X33870454Y-50045605D01*
X33923739Y-50092522D01*
X33943200Y-50160799D01*
X33922658Y-50228759D01*
X33870454Y-50273995D01*
X33836237Y-50289950D01*
X33836232Y-50289953D01*
X33831250Y-50292276D01*
X33826743Y-50295432D01*
X33826741Y-50295433D01*
X33648209Y-50420442D01*
X33648206Y-50420444D01*
X33643698Y-50423601D01*
X33481801Y-50585498D01*
X33350476Y-50773050D01*
X33348153Y-50778032D01*
X33348150Y-50778037D01*
X33256037Y-50975575D01*
X33253714Y-50980557D01*
X33194455Y-51201713D01*
X33174500Y-51429800D01*
X33194455Y-51657887D01*
X33253714Y-51879043D01*
X33256036Y-51884024D01*
X33256037Y-51884025D01*
X33348150Y-52081563D01*
X33348153Y-52081568D01*
X33350476Y-52086550D01*
X33481801Y-52274102D01*
X33643698Y-52435999D01*
X33648206Y-52439156D01*
X33648209Y-52439158D01*
X33826741Y-52564167D01*
X33831250Y-52567324D01*
X33836232Y-52569647D01*
X33836237Y-52569650D01*
X33870454Y-52585605D01*
X33923739Y-52632522D01*
X33943200Y-52700799D01*
X33922658Y-52768759D01*
X33870454Y-52813995D01*
X33836237Y-52829950D01*
X33836232Y-52829953D01*
X33831250Y-52832276D01*
X33826743Y-52835432D01*
X33826741Y-52835433D01*
X33648209Y-52960442D01*
X33648206Y-52960444D01*
X33643698Y-52963601D01*
X33481801Y-53125498D01*
X33350476Y-53313050D01*
X33348153Y-53318032D01*
X33348150Y-53318037D01*
X33256037Y-53515575D01*
X33253714Y-53520557D01*
X33194455Y-53741713D01*
X33174500Y-53969800D01*
X33194455Y-54197887D01*
X33253714Y-54419043D01*
X33256036Y-54424024D01*
X33256037Y-54424025D01*
X33348150Y-54621563D01*
X33348153Y-54621568D01*
X33350476Y-54626550D01*
X33481801Y-54814102D01*
X33643698Y-54975999D01*
X33648206Y-54979156D01*
X33648209Y-54979158D01*
X33826741Y-55104167D01*
X33831250Y-55107324D01*
X33836232Y-55109647D01*
X33836237Y-55109650D01*
X33870454Y-55125605D01*
X33923739Y-55172522D01*
X33943200Y-55240799D01*
X33922658Y-55308759D01*
X33870454Y-55353995D01*
X33836237Y-55369950D01*
X33836232Y-55369953D01*
X33831250Y-55372276D01*
X33826743Y-55375432D01*
X33826741Y-55375433D01*
X33648209Y-55500442D01*
X33648206Y-55500444D01*
X33643698Y-55503601D01*
X33481801Y-55665498D01*
X33350476Y-55853050D01*
X33348153Y-55858032D01*
X33348150Y-55858037D01*
X33256037Y-56055575D01*
X33253714Y-56060557D01*
X33194455Y-56281713D01*
X33174500Y-56509800D01*
X33194455Y-56737887D01*
X33253714Y-56959043D01*
X33256036Y-56964024D01*
X33256037Y-56964025D01*
X33348150Y-57161563D01*
X33348153Y-57161568D01*
X33350476Y-57166550D01*
X33481801Y-57354102D01*
X33643698Y-57515999D01*
X33648206Y-57519156D01*
X33648209Y-57519158D01*
X33826741Y-57644167D01*
X33831250Y-57647324D01*
X33836232Y-57649647D01*
X33836237Y-57649650D01*
X33870454Y-57665605D01*
X33923739Y-57712522D01*
X33943200Y-57780799D01*
X33922658Y-57848759D01*
X33870454Y-57893995D01*
X33836237Y-57909950D01*
X33836232Y-57909953D01*
X33831250Y-57912276D01*
X33826743Y-57915432D01*
X33826741Y-57915433D01*
X33648209Y-58040442D01*
X33648206Y-58040444D01*
X33643698Y-58043601D01*
X33481801Y-58205498D01*
X33350476Y-58393050D01*
X33348153Y-58398032D01*
X33348150Y-58398037D01*
X33256037Y-58595575D01*
X33253714Y-58600557D01*
X33194455Y-58821713D01*
X33174500Y-59049800D01*
X33194455Y-59277887D01*
X33253714Y-59499043D01*
X33256036Y-59504024D01*
X33256037Y-59504025D01*
X33348150Y-59701563D01*
X33348153Y-59701568D01*
X33350476Y-59706550D01*
X33481801Y-59894102D01*
X33643698Y-60055999D01*
X33648206Y-60059156D01*
X33648209Y-60059158D01*
X33826741Y-60184167D01*
X33831250Y-60187324D01*
X33836237Y-60189650D01*
X33836238Y-60189650D01*
X33871043Y-60205880D01*
X33924328Y-60252798D01*
X33943789Y-60321075D01*
X33923247Y-60389035D01*
X33871042Y-60434270D01*
X33836491Y-60450381D01*
X33826991Y-60455866D01*
X33648531Y-60580825D01*
X33640123Y-60587881D01*
X33486081Y-60741923D01*
X33479025Y-60750331D01*
X33354066Y-60928791D01*
X33348583Y-60938287D01*
X33256509Y-61135743D01*
X33252761Y-61146039D01*
X33206602Y-61318303D01*
X33206938Y-61332399D01*
X33214880Y-61335800D01*
X35755971Y-61335800D01*
X35769502Y-61331827D01*
X35770731Y-61323278D01*
X35723239Y-61146039D01*
X35719491Y-61135743D01*
X35627417Y-60938287D01*
X35621934Y-60928791D01*
X35496975Y-60750331D01*
X35489919Y-60741923D01*
X35335877Y-60587881D01*
X35327469Y-60580825D01*
X35149009Y-60455866D01*
X35139509Y-60450381D01*
X35104958Y-60434270D01*
X35051672Y-60387353D01*
X35032211Y-60319076D01*
X35052753Y-60251116D01*
X35104957Y-60205880D01*
X35139762Y-60189650D01*
X35139763Y-60189650D01*
X35144750Y-60187324D01*
X35149259Y-60184167D01*
X35327791Y-60059158D01*
X35327794Y-60059156D01*
X35332302Y-60055999D01*
X35494199Y-59894102D01*
X35625524Y-59706550D01*
X35627847Y-59701568D01*
X35627850Y-59701563D01*
X35719963Y-59504025D01*
X35719964Y-59504024D01*
X35722286Y-59499043D01*
X35781545Y-59277887D01*
X35801500Y-59049800D01*
X35781545Y-58821713D01*
X35722286Y-58600557D01*
X35719963Y-58595575D01*
X35627850Y-58398037D01*
X35627847Y-58398032D01*
X35625524Y-58393050D01*
X35494199Y-58205498D01*
X35332302Y-58043601D01*
X35327794Y-58040444D01*
X35327791Y-58040442D01*
X35149259Y-57915433D01*
X35149257Y-57915432D01*
X35144750Y-57912276D01*
X35139768Y-57909953D01*
X35139763Y-57909950D01*
X35105546Y-57893995D01*
X35052261Y-57847078D01*
X35032800Y-57778801D01*
X35053342Y-57710841D01*
X35105546Y-57665605D01*
X35139763Y-57649650D01*
X35139768Y-57649647D01*
X35144750Y-57647324D01*
X35149259Y-57644167D01*
X35327791Y-57519158D01*
X35327794Y-57519156D01*
X35332302Y-57515999D01*
X35494199Y-57354102D01*
X35625524Y-57166550D01*
X35627847Y-57161568D01*
X35627850Y-57161563D01*
X35719963Y-56964025D01*
X35719964Y-56964024D01*
X35722286Y-56959043D01*
X35781545Y-56737887D01*
X35801500Y-56509800D01*
X35781545Y-56281713D01*
X35722286Y-56060557D01*
X35719963Y-56055575D01*
X35627850Y-55858037D01*
X35627847Y-55858032D01*
X35625524Y-55853050D01*
X35494199Y-55665498D01*
X35332302Y-55503601D01*
X35327794Y-55500444D01*
X35327791Y-55500442D01*
X35149259Y-55375433D01*
X35149257Y-55375432D01*
X35144750Y-55372276D01*
X35139768Y-55369953D01*
X35139763Y-55369950D01*
X35105546Y-55353995D01*
X35052261Y-55307078D01*
X35032800Y-55238801D01*
X35053342Y-55170841D01*
X35105546Y-55125605D01*
X35139763Y-55109650D01*
X35139768Y-55109647D01*
X35144750Y-55107324D01*
X35149259Y-55104167D01*
X35327791Y-54979158D01*
X35327794Y-54979156D01*
X35332302Y-54975999D01*
X35494199Y-54814102D01*
X35625524Y-54626550D01*
X35627847Y-54621568D01*
X35627850Y-54621563D01*
X35719963Y-54424025D01*
X35719964Y-54424024D01*
X35722286Y-54419043D01*
X35781545Y-54197887D01*
X35801500Y-53969800D01*
X35781545Y-53741713D01*
X35722286Y-53520557D01*
X35719963Y-53515575D01*
X35627850Y-53318037D01*
X35627847Y-53318032D01*
X35625524Y-53313050D01*
X35494199Y-53125498D01*
X35332302Y-52963601D01*
X35327794Y-52960444D01*
X35327791Y-52960442D01*
X35149259Y-52835433D01*
X35149257Y-52835432D01*
X35144750Y-52832276D01*
X35139768Y-52829953D01*
X35139763Y-52829950D01*
X35105546Y-52813995D01*
X35052261Y-52767078D01*
X35032800Y-52698801D01*
X35053342Y-52630841D01*
X35105546Y-52585605D01*
X35139763Y-52569650D01*
X35139768Y-52569647D01*
X35144750Y-52567324D01*
X35149259Y-52564167D01*
X35327791Y-52439158D01*
X35327794Y-52439156D01*
X35332302Y-52435999D01*
X35494199Y-52274102D01*
X35625524Y-52086550D01*
X35627847Y-52081568D01*
X35627850Y-52081563D01*
X35719963Y-51884025D01*
X35719964Y-51884024D01*
X35722286Y-51879043D01*
X35781545Y-51657887D01*
X35801500Y-51429800D01*
X35781545Y-51201713D01*
X35722286Y-50980557D01*
X35719963Y-50975575D01*
X35627850Y-50778037D01*
X35627847Y-50778032D01*
X35625524Y-50773050D01*
X35494199Y-50585498D01*
X35332302Y-50423601D01*
X35327794Y-50420444D01*
X35327791Y-50420442D01*
X35149259Y-50295433D01*
X35149257Y-50295432D01*
X35144750Y-50292276D01*
X35139768Y-50289953D01*
X35139763Y-50289950D01*
X35105546Y-50273995D01*
X35052261Y-50227078D01*
X35032800Y-50158801D01*
X35053342Y-50090841D01*
X35105546Y-50045605D01*
X35139763Y-50029650D01*
X35139768Y-50029647D01*
X35144750Y-50027324D01*
X35149259Y-50024167D01*
X35327791Y-49899158D01*
X35327794Y-49899156D01*
X35332302Y-49895999D01*
X35494199Y-49734102D01*
X35625524Y-49546550D01*
X35627847Y-49541568D01*
X35627850Y-49541563D01*
X35719963Y-49344025D01*
X35719964Y-49344024D01*
X35722286Y-49339043D01*
X35781545Y-49117887D01*
X35801500Y-48889800D01*
X35781545Y-48661713D01*
X35722286Y-48440557D01*
X35719963Y-48435575D01*
X35627850Y-48238037D01*
X35627847Y-48238032D01*
X35625524Y-48233050D01*
X35494199Y-48045498D01*
X35332302Y-47883601D01*
X35327794Y-47880444D01*
X35327791Y-47880442D01*
X35149259Y-47755433D01*
X35149257Y-47755432D01*
X35144750Y-47752276D01*
X35139768Y-47749953D01*
X35139763Y-47749950D01*
X35105546Y-47733995D01*
X35052261Y-47687078D01*
X35032800Y-47618801D01*
X35053342Y-47550841D01*
X35105546Y-47505605D01*
X35139763Y-47489650D01*
X35139768Y-47489647D01*
X35144750Y-47487324D01*
X35220575Y-47434231D01*
X35327791Y-47359158D01*
X35327794Y-47359156D01*
X35332302Y-47355999D01*
X35494199Y-47194102D01*
X35528369Y-47145303D01*
X35622367Y-47011059D01*
X35622368Y-47011057D01*
X35625524Y-47006550D01*
X35627847Y-47001568D01*
X35627850Y-47001563D01*
X35719963Y-46804025D01*
X35719964Y-46804024D01*
X35722286Y-46799043D01*
X35781545Y-46577887D01*
X35801500Y-46349800D01*
X35781545Y-46121713D01*
X35722286Y-45900557D01*
X35719963Y-45895575D01*
X35627850Y-45698037D01*
X35627847Y-45698032D01*
X35625524Y-45693050D01*
X35494199Y-45505498D01*
X35332302Y-45343601D01*
X35327794Y-45340444D01*
X35327791Y-45340442D01*
X35149259Y-45215433D01*
X35149257Y-45215432D01*
X35144750Y-45212276D01*
X35139768Y-45209953D01*
X35139763Y-45209950D01*
X34942225Y-45117837D01*
X34942224Y-45117836D01*
X34937243Y-45115514D01*
X34931935Y-45114092D01*
X34931933Y-45114091D01*
X34721402Y-45057679D01*
X34721400Y-45057679D01*
X34716087Y-45056255D01*
X34488000Y-45036300D01*
X34259913Y-45056255D01*
X34254600Y-45057679D01*
X34254598Y-45057679D01*
X34044067Y-45114091D01*
X34044065Y-45114092D01*
X34038757Y-45115514D01*
X34033776Y-45117836D01*
X34033775Y-45117837D01*
X33836237Y-45209950D01*
X33836232Y-45209953D01*
X33831250Y-45212276D01*
X33826743Y-45215432D01*
X33826741Y-45215433D01*
X33648209Y-45340442D01*
X33648206Y-45340444D01*
X33643698Y-45343601D01*
X33481801Y-45505498D01*
X33350476Y-45693050D01*
X33348153Y-45698032D01*
X33348150Y-45698037D01*
X33256037Y-45895575D01*
X33253714Y-45900557D01*
X33194455Y-46121713D01*
X33174500Y-46349800D01*
X28181500Y-46349800D01*
X28181500Y-45549800D01*
X28176273Y-45476721D01*
X28135096Y-45336484D01*
X28089393Y-45265369D01*
X28060949Y-45221109D01*
X28060947Y-45221106D01*
X28056077Y-45213529D01*
X28049267Y-45207628D01*
X27952431Y-45123718D01*
X27952428Y-45123716D01*
X27945619Y-45117816D01*
X27812670Y-45057100D01*
X27803755Y-45055818D01*
X27803754Y-45055818D01*
X27672448Y-45036939D01*
X27672441Y-45036938D01*
X27668000Y-45036300D01*
X26068000Y-45036300D01*
X25994921Y-45041527D01*
X25944762Y-45056255D01*
X25863330Y-45080165D01*
X25863328Y-45080166D01*
X25854684Y-45082704D01*
X25847105Y-45087575D01*
X25739309Y-45156851D01*
X25739306Y-45156853D01*
X25731729Y-45161723D01*
X25725828Y-45168533D01*
X25641918Y-45265369D01*
X25641916Y-45265372D01*
X25636016Y-45272181D01*
X25575300Y-45405130D01*
X25574018Y-45414045D01*
X25574018Y-45414046D01*
X25555139Y-45545352D01*
X25555138Y-45545359D01*
X25554500Y-45549800D01*
X25554500Y-47149800D01*
X25559727Y-47222879D01*
X25600904Y-47363116D01*
X25605775Y-47370695D01*
X25675051Y-47478491D01*
X25675053Y-47478494D01*
X25679923Y-47486071D01*
X25686733Y-47491972D01*
X25783569Y-47575882D01*
X25783572Y-47575884D01*
X25790381Y-47581784D01*
X25798579Y-47585528D01*
X25875812Y-47620799D01*
X25923330Y-47642500D01*
X25932245Y-47643782D01*
X25932246Y-47643782D01*
X25977122Y-47650234D01*
X26041703Y-47679727D01*
X26080087Y-47739453D01*
X26080087Y-47810450D01*
X26041704Y-47870176D01*
X26031465Y-47878162D01*
X26023698Y-47883601D01*
X25861801Y-48045498D01*
X25730476Y-48233050D01*
X25728153Y-48238032D01*
X25728150Y-48238037D01*
X25636037Y-48435575D01*
X25633714Y-48440557D01*
X25574455Y-48661713D01*
X25554500Y-48889800D01*
X25574455Y-49117887D01*
X25633714Y-49339043D01*
X25636036Y-49344024D01*
X25636037Y-49344025D01*
X25728150Y-49541563D01*
X25728153Y-49541568D01*
X25730476Y-49546550D01*
X25861801Y-49734102D01*
X26023698Y-49895999D01*
X26028206Y-49899156D01*
X26028209Y-49899158D01*
X26206741Y-50024167D01*
X26211250Y-50027324D01*
X26216232Y-50029647D01*
X26216237Y-50029650D01*
X26250454Y-50045605D01*
X26303739Y-50092522D01*
X26323200Y-50160799D01*
X26302658Y-50228759D01*
X26250454Y-50273995D01*
X26216237Y-50289950D01*
X26216232Y-50289953D01*
X26211250Y-50292276D01*
X26206743Y-50295432D01*
X26206741Y-50295433D01*
X26028209Y-50420442D01*
X26028206Y-50420444D01*
X26023698Y-50423601D01*
X25861801Y-50585498D01*
X25730476Y-50773050D01*
X25728153Y-50778032D01*
X25728150Y-50778037D01*
X25636037Y-50975575D01*
X25633714Y-50980557D01*
X25574455Y-51201713D01*
X25554500Y-51429800D01*
X25574455Y-51657887D01*
X25633714Y-51879043D01*
X25636036Y-51884024D01*
X25636037Y-51884025D01*
X25728150Y-52081563D01*
X25728153Y-52081568D01*
X25730476Y-52086550D01*
X25861801Y-52274102D01*
X26023698Y-52435999D01*
X26028206Y-52439156D01*
X26028209Y-52439158D01*
X26206741Y-52564167D01*
X26211250Y-52567324D01*
X26216232Y-52569647D01*
X26216237Y-52569650D01*
X26250454Y-52585605D01*
X26303739Y-52632522D01*
X26323200Y-52700799D01*
X26302658Y-52768759D01*
X26250454Y-52813995D01*
X26216237Y-52829950D01*
X26216232Y-52829953D01*
X26211250Y-52832276D01*
X26206743Y-52835432D01*
X26206741Y-52835433D01*
X26028209Y-52960442D01*
X26028206Y-52960444D01*
X26023698Y-52963601D01*
X25861801Y-53125498D01*
X25730476Y-53313050D01*
X25728153Y-53318032D01*
X25728150Y-53318037D01*
X25636037Y-53515575D01*
X25633714Y-53520557D01*
X25574455Y-53741713D01*
X25554500Y-53969800D01*
X25574455Y-54197887D01*
X25633714Y-54419043D01*
X25636036Y-54424024D01*
X25636037Y-54424025D01*
X25728150Y-54621563D01*
X25728153Y-54621568D01*
X25730476Y-54626550D01*
X25861801Y-54814102D01*
X26023698Y-54975999D01*
X26028206Y-54979156D01*
X26028209Y-54979158D01*
X26206741Y-55104167D01*
X26211250Y-55107324D01*
X26216232Y-55109647D01*
X26216237Y-55109650D01*
X26250454Y-55125605D01*
X26303739Y-55172522D01*
X26323200Y-55240799D01*
X26302658Y-55308759D01*
X26250454Y-55353995D01*
X26216237Y-55369950D01*
X26216232Y-55369953D01*
X26211250Y-55372276D01*
X26206743Y-55375432D01*
X26206741Y-55375433D01*
X26028209Y-55500442D01*
X26028206Y-55500444D01*
X26023698Y-55503601D01*
X25861801Y-55665498D01*
X25730476Y-55853050D01*
X25728153Y-55858032D01*
X25728150Y-55858037D01*
X25636037Y-56055575D01*
X25633714Y-56060557D01*
X25574455Y-56281713D01*
X25554500Y-56509800D01*
X25574455Y-56737887D01*
X25633714Y-56959043D01*
X25636036Y-56964024D01*
X25636037Y-56964025D01*
X25728150Y-57161563D01*
X25728153Y-57161568D01*
X25730476Y-57166550D01*
X25861801Y-57354102D01*
X26023698Y-57515999D01*
X26028206Y-57519156D01*
X26028209Y-57519158D01*
X26206741Y-57644167D01*
X26211250Y-57647324D01*
X26216232Y-57649647D01*
X26216237Y-57649650D01*
X26250454Y-57665605D01*
X26303739Y-57712522D01*
X26323200Y-57780799D01*
X26302658Y-57848759D01*
X26250454Y-57893995D01*
X26216237Y-57909950D01*
X26216232Y-57909953D01*
X26211250Y-57912276D01*
X26206743Y-57915432D01*
X26206741Y-57915433D01*
X26028209Y-58040442D01*
X26028206Y-58040444D01*
X26023698Y-58043601D01*
X25861801Y-58205498D01*
X25730476Y-58393050D01*
X25728153Y-58398032D01*
X25728150Y-58398037D01*
X25636037Y-58595575D01*
X25633714Y-58600557D01*
X25574455Y-58821713D01*
X25554500Y-59049800D01*
X25574455Y-59277887D01*
X25633714Y-59499043D01*
X25636036Y-59504024D01*
X25636037Y-59504025D01*
X25728150Y-59701563D01*
X25728153Y-59701568D01*
X25730476Y-59706550D01*
X25861801Y-59894102D01*
X26023698Y-60055999D01*
X26028206Y-60059156D01*
X26028209Y-60059158D01*
X26206741Y-60184167D01*
X26211250Y-60187324D01*
X26216232Y-60189647D01*
X26216237Y-60189650D01*
X26250454Y-60205605D01*
X26303739Y-60252522D01*
X26323200Y-60320799D01*
X26302658Y-60388759D01*
X26250454Y-60433995D01*
X26216237Y-60449950D01*
X26216232Y-60449953D01*
X26211250Y-60452276D01*
X26206743Y-60455432D01*
X26206741Y-60455433D01*
X26028209Y-60580442D01*
X26028206Y-60580444D01*
X26023698Y-60583601D01*
X25861801Y-60745498D01*
X25858644Y-60750006D01*
X25858642Y-60750009D01*
X25858417Y-60750331D01*
X25730476Y-60933050D01*
X25728153Y-60938032D01*
X25728150Y-60938037D01*
X25636037Y-61135575D01*
X25633714Y-61140557D01*
X25574455Y-61361713D01*
X25554500Y-61589800D01*
X25574455Y-61817887D01*
X25633714Y-62039043D01*
X25636036Y-62044024D01*
X25636037Y-62044025D01*
X25728150Y-62241563D01*
X25728153Y-62241568D01*
X25730476Y-62246550D01*
X25861801Y-62434102D01*
X26023698Y-62595999D01*
X26028206Y-62599156D01*
X26028209Y-62599158D01*
X26193935Y-62715200D01*
X26210759Y-62729318D01*
X26263382Y-62781941D01*
X26297408Y-62844253D01*
X26292343Y-62915068D01*
X26249796Y-62971904D01*
X26227539Y-62985230D01*
X26216482Y-62990386D01*
X26206996Y-62995863D01*
X26028531Y-63120825D01*
X26020123Y-63127881D01*
X25866081Y-63281923D01*
X25859025Y-63290331D01*
X25734066Y-63468791D01*
X25728583Y-63478287D01*
X25636509Y-63675743D01*
X25632761Y-63686039D01*
X25586602Y-63858303D01*
X25586938Y-63872399D01*
X25594880Y-63875800D01*
X26996000Y-63875800D01*
X27064121Y-63895802D01*
X27110614Y-63949458D01*
X27122000Y-64001800D01*
X27122000Y-64257800D01*
X27101998Y-64325921D01*
X27048342Y-64372414D01*
X26996000Y-64383800D01*
X25600029Y-64383800D01*
X25586498Y-64387773D01*
X25585269Y-64396322D01*
X25632761Y-64573561D01*
X25636509Y-64583857D01*
X25728583Y-64781313D01*
X25734066Y-64790809D01*
X25859025Y-64969269D01*
X25866081Y-64977677D01*
X26020123Y-65131719D01*
X26028531Y-65138775D01*
X26206991Y-65263734D01*
X26216491Y-65269219D01*
X26251042Y-65285330D01*
X26304328Y-65332247D01*
X26323789Y-65400524D01*
X26303247Y-65468484D01*
X26251043Y-65513720D01*
X26216238Y-65529950D01*
X26211250Y-65532276D01*
X26206743Y-65535432D01*
X26206741Y-65535433D01*
X26028209Y-65660442D01*
X26028206Y-65660444D01*
X26023698Y-65663601D01*
X25861801Y-65825498D01*
X25730476Y-66013050D01*
X25728153Y-66018032D01*
X25728150Y-66018037D01*
X25636037Y-66215575D01*
X25633714Y-66220557D01*
X25574455Y-66441713D01*
X25554500Y-66669800D01*
X25574455Y-66897887D01*
X25633714Y-67119043D01*
X25636036Y-67124024D01*
X25636037Y-67124025D01*
X25728150Y-67321563D01*
X25728153Y-67321568D01*
X25730476Y-67326550D01*
X25861801Y-67514102D01*
X26023698Y-67675999D01*
X26028206Y-67679156D01*
X26028209Y-67679158D01*
X26206741Y-67804167D01*
X26211250Y-67807324D01*
X26216232Y-67809647D01*
X26216237Y-67809650D01*
X26250454Y-67825605D01*
X26303739Y-67872522D01*
X26323200Y-67940799D01*
X26302658Y-68008759D01*
X26250454Y-68053995D01*
X26216237Y-68069950D01*
X26216232Y-68069953D01*
X26211250Y-68072276D01*
X26206743Y-68075432D01*
X26206741Y-68075433D01*
X26028209Y-68200442D01*
X26028206Y-68200444D01*
X26023698Y-68203601D01*
X25861801Y-68365498D01*
X25730476Y-68553050D01*
X25728153Y-68558032D01*
X25728150Y-68558037D01*
X25636037Y-68755575D01*
X25633714Y-68760557D01*
X25574455Y-68981713D01*
X25554500Y-69209800D01*
X25574455Y-69437887D01*
X25633714Y-69659043D01*
X25636036Y-69664024D01*
X25636037Y-69664025D01*
X25728150Y-69861563D01*
X25728153Y-69861568D01*
X25730476Y-69866550D01*
X25861801Y-70054102D01*
X26023698Y-70215999D01*
X26028206Y-70219156D01*
X26028209Y-70219158D01*
X26206741Y-70344167D01*
X26211250Y-70347324D01*
X26216232Y-70349647D01*
X26216237Y-70349650D01*
X26250454Y-70365605D01*
X26303739Y-70412522D01*
X26323200Y-70480799D01*
X26302658Y-70548759D01*
X26250454Y-70593995D01*
X26216237Y-70609950D01*
X26216232Y-70609953D01*
X26211250Y-70612276D01*
X26206743Y-70615432D01*
X26206741Y-70615433D01*
X26028209Y-70740442D01*
X26028206Y-70740444D01*
X26023698Y-70743601D01*
X25861801Y-70905498D01*
X25730476Y-71093050D01*
X25728153Y-71098032D01*
X25728150Y-71098037D01*
X25636037Y-71295575D01*
X25633714Y-71300557D01*
X25574455Y-71521713D01*
X25554500Y-71749800D01*
X25574455Y-71977887D01*
X25633714Y-72199043D01*
X25636036Y-72204024D01*
X25636037Y-72204025D01*
X25728150Y-72401563D01*
X25728153Y-72401568D01*
X25730476Y-72406550D01*
X25861801Y-72594102D01*
X26023698Y-72755999D01*
X26028206Y-72759156D01*
X26028209Y-72759158D01*
X26206741Y-72884167D01*
X26211250Y-72887324D01*
X26216232Y-72889647D01*
X26216237Y-72889650D01*
X26250454Y-72905605D01*
X26303739Y-72952522D01*
X26323200Y-73020799D01*
X26302658Y-73088759D01*
X26250454Y-73133995D01*
X26216237Y-73149950D01*
X26216232Y-73149953D01*
X26211250Y-73152276D01*
X26206743Y-73155432D01*
X26206741Y-73155433D01*
X26028209Y-73280442D01*
X26028206Y-73280444D01*
X26023698Y-73283601D01*
X25861801Y-73445498D01*
X25730476Y-73633050D01*
X25728153Y-73638032D01*
X25728150Y-73638037D01*
X25636037Y-73835575D01*
X25633714Y-73840557D01*
X25574455Y-74061713D01*
X25554500Y-74289800D01*
X25574455Y-74517887D01*
X25633714Y-74739043D01*
X25636036Y-74744024D01*
X25636037Y-74744025D01*
X25728150Y-74941563D01*
X25728153Y-74941568D01*
X25730476Y-74946550D01*
X25861801Y-75134102D01*
X26023698Y-75295999D01*
X26028206Y-75299156D01*
X26028209Y-75299158D01*
X26206741Y-75424167D01*
X26211250Y-75427324D01*
X26216232Y-75429647D01*
X26216237Y-75429650D01*
X26250454Y-75445605D01*
X26303739Y-75492522D01*
X26323200Y-75560799D01*
X26302658Y-75628759D01*
X26250454Y-75673995D01*
X26216237Y-75689950D01*
X26216232Y-75689953D01*
X26211250Y-75692276D01*
X26206743Y-75695432D01*
X26206741Y-75695433D01*
X26028209Y-75820442D01*
X26028206Y-75820444D01*
X26023698Y-75823601D01*
X25861801Y-75985498D01*
X25730476Y-76173050D01*
X25728153Y-76178032D01*
X25728150Y-76178037D01*
X25636037Y-76375575D01*
X25633714Y-76380557D01*
X25574455Y-76601713D01*
X25554500Y-76829800D01*
X25574455Y-77057887D01*
X25633714Y-77279043D01*
X25636036Y-77284024D01*
X25636037Y-77284025D01*
X25728150Y-77481563D01*
X25728153Y-77481568D01*
X25730476Y-77486550D01*
X25861801Y-77674102D01*
X26023698Y-77835999D01*
X26028206Y-77839156D01*
X26028209Y-77839158D01*
X26206741Y-77964167D01*
X26211250Y-77967324D01*
X26216232Y-77969647D01*
X26216237Y-77969650D01*
X26250454Y-77985605D01*
X26303739Y-78032522D01*
X26323200Y-78100799D01*
X26302658Y-78168759D01*
X26250454Y-78213995D01*
X26216237Y-78229950D01*
X26216232Y-78229953D01*
X26211250Y-78232276D01*
X26206743Y-78235432D01*
X26206741Y-78235433D01*
X26028209Y-78360442D01*
X26028206Y-78360444D01*
X26023698Y-78363601D01*
X25861801Y-78525498D01*
X25730476Y-78713050D01*
X25728153Y-78718032D01*
X25728150Y-78718037D01*
X25720198Y-78735091D01*
X25633714Y-78920557D01*
X25632292Y-78925865D01*
X25632291Y-78925867D01*
X25575879Y-79136398D01*
X25574455Y-79141713D01*
X25554500Y-79369800D01*
X25574455Y-79597887D01*
X25633714Y-79819043D01*
X25636036Y-79824024D01*
X25636037Y-79824025D01*
X25728150Y-80021563D01*
X25728153Y-80021568D01*
X25730476Y-80026550D01*
X25861801Y-80214102D01*
X26023698Y-80375999D01*
X26028206Y-80379156D01*
X26028209Y-80379158D01*
X26140642Y-80457884D01*
X26211250Y-80507324D01*
X26216232Y-80509647D01*
X26216237Y-80509650D01*
X26413775Y-80601763D01*
X26418757Y-80604086D01*
X26424065Y-80605508D01*
X26424067Y-80605509D01*
X26634598Y-80661921D01*
X26634600Y-80661921D01*
X26639913Y-80663345D01*
X26868000Y-80683300D01*
X27073203Y-80665347D01*
X27142807Y-80679336D01*
X27193800Y-80728736D01*
X27209990Y-80797861D01*
X27186238Y-80864767D01*
X27173279Y-80879963D01*
X25770081Y-82283161D01*
X25757691Y-82294028D01*
X25740645Y-82307108D01*
X25736872Y-82311254D01*
X25736867Y-82311259D01*
X25687182Y-82365863D01*
X25683084Y-82370158D01*
X25666007Y-82387235D01*
X25648113Y-82408636D01*
X25644668Y-82412585D01*
X25591799Y-82470686D01*
X25591792Y-82470695D01*
X25588026Y-82474834D01*
X25585049Y-82479580D01*
X25578361Y-82490241D01*
X25568287Y-82504106D01*
X25556624Y-82518055D01*
X25553844Y-82522929D01*
X25514929Y-82591154D01*
X25512218Y-82595682D01*
X25467521Y-82666935D01*
X25465429Y-82672138D01*
X25465428Y-82672141D01*
X25460741Y-82683802D01*
X25453281Y-82699235D01*
X25444269Y-82715034D01*
X25442397Y-82720321D01*
X25442395Y-82720325D01*
X25416186Y-82794339D01*
X25414320Y-82799276D01*
X25385036Y-82872122D01*
X25385034Y-82872128D01*
X25382939Y-82877340D01*
X25379250Y-82895155D01*
X25374642Y-82911658D01*
X25368573Y-82928796D01*
X25367667Y-82934330D01*
X25367666Y-82934333D01*
X25354978Y-83011814D01*
X25354016Y-83017002D01*
X25336953Y-83099398D01*
X25336806Y-83105007D01*
X25336806Y-83105008D01*
X25336477Y-83117580D01*
X25334865Y-83134640D01*
X25331926Y-83152585D01*
X25332014Y-83158198D01*
X25332014Y-83158201D01*
X25333247Y-83236686D01*
X25333220Y-83241963D01*
X25331017Y-83326089D01*
X20508001Y-83326089D01*
X20508000Y-35611600D01*
X25583100Y-35611600D01*
X25583100Y-37611600D01*
X25588327Y-37684679D01*
X25629504Y-37824916D01*
X25634375Y-37832495D01*
X25703651Y-37940291D01*
X25703653Y-37940294D01*
X25708523Y-37947871D01*
X25715333Y-37953772D01*
X25812169Y-38037682D01*
X25812172Y-38037684D01*
X25818981Y-38043584D01*
X25827179Y-38047328D01*
X25883575Y-38073083D01*
X25951930Y-38104300D01*
X25960845Y-38105582D01*
X25960846Y-38105582D01*
X26092152Y-38124461D01*
X26092159Y-38124462D01*
X26096600Y-38125100D01*
X28056006Y-38125100D01*
X28124127Y-38145102D01*
X28170620Y-38198758D01*
X28180724Y-38269032D01*
X28151230Y-38333612D01*
X28145101Y-38340195D01*
X27847297Y-38637999D01*
X27784985Y-38672025D01*
X27758202Y-38674904D01*
X27676913Y-38674904D01*
X27670461Y-38676276D01*
X27670456Y-38676276D01*
X27583513Y-38694757D01*
X27490113Y-38714610D01*
X27484083Y-38717295D01*
X27484082Y-38717295D01*
X27321680Y-38789601D01*
X27321678Y-38789602D01*
X27315650Y-38792286D01*
X27310309Y-38796166D01*
X27310308Y-38796167D01*
X27166493Y-38900654D01*
X27166491Y-38900656D01*
X27161149Y-38904537D01*
X27033363Y-39046458D01*
X26937876Y-39211846D01*
X26878862Y-39393473D01*
X26858900Y-39583400D01*
X26878862Y-39773327D01*
X26937876Y-39954954D01*
X27033363Y-40120342D01*
X27161149Y-40262263D01*
X27166491Y-40266144D01*
X27166493Y-40266146D01*
X27310308Y-40370633D01*
X27315650Y-40374514D01*
X27321678Y-40377198D01*
X27321680Y-40377199D01*
X27484082Y-40449505D01*
X27490113Y-40452190D01*
X27583513Y-40472043D01*
X27670456Y-40490524D01*
X27670461Y-40490524D01*
X27676913Y-40491896D01*
X27867887Y-40491896D01*
X27874339Y-40490524D01*
X27874344Y-40490524D01*
X27961287Y-40472043D01*
X28054687Y-40452190D01*
X28060718Y-40449505D01*
X28223120Y-40377199D01*
X28223122Y-40377198D01*
X28229150Y-40374514D01*
X28234492Y-40370633D01*
X28378307Y-40266146D01*
X28378309Y-40266144D01*
X28383651Y-40262263D01*
X28511437Y-40120342D01*
X28606924Y-39954954D01*
X28665938Y-39773327D01*
X28680319Y-39636494D01*
X28707332Y-39570838D01*
X28716534Y-39560570D01*
X31559928Y-36717176D01*
X33186787Y-36717176D01*
X33223088Y-36957209D01*
X33224634Y-36962025D01*
X33224635Y-36962028D01*
X33273564Y-37114421D01*
X33297300Y-37188350D01*
X33407511Y-37404653D01*
X33410501Y-37408738D01*
X33529264Y-37571006D01*
X33550888Y-37600552D01*
X33723741Y-37771008D01*
X33727866Y-37773940D01*
X33727869Y-37773942D01*
X33917498Y-37908705D01*
X33917502Y-37908708D01*
X33921623Y-37911636D01*
X33926161Y-37913869D01*
X33926166Y-37913872D01*
X34084202Y-37991635D01*
X34139443Y-38018817D01*
X34144278Y-38020295D01*
X34144280Y-38020296D01*
X34201148Y-38037682D01*
X34371598Y-38089793D01*
X34376617Y-38090480D01*
X34376619Y-38090481D01*
X34450183Y-38100558D01*
X34612114Y-38122740D01*
X34681458Y-38121045D01*
X34849743Y-38116933D01*
X34849747Y-38116933D01*
X34854804Y-38116809D01*
X35093423Y-38072152D01*
X35321834Y-37989920D01*
X35534158Y-37872226D01*
X35538136Y-37869096D01*
X35538140Y-37869093D01*
X35720958Y-37725229D01*
X35720959Y-37725228D01*
X35724934Y-37722100D01*
X35759345Y-37684679D01*
X35885831Y-37547127D01*
X35885834Y-37547123D01*
X35889254Y-37543404D01*
X36022890Y-37340734D01*
X36089346Y-37192863D01*
X36120330Y-37123922D01*
X36120332Y-37123916D01*
X36122404Y-37119306D01*
X36164546Y-36962028D01*
X36183927Y-36889698D01*
X36183927Y-36889697D01*
X36185235Y-36884816D01*
X36209768Y-36643296D01*
X36210100Y-36611600D01*
X36190631Y-36369620D01*
X36158843Y-36240200D01*
X36133931Y-36138779D01*
X36132724Y-36133865D01*
X36080341Y-36010457D01*
X36039845Y-35915056D01*
X36039845Y-35915055D01*
X36037869Y-35910401D01*
X35908507Y-35704978D01*
X35747965Y-35522879D01*
X35560375Y-35368791D01*
X35350562Y-35246676D01*
X35345835Y-35244862D01*
X35345832Y-35244860D01*
X35128648Y-35161491D01*
X35128644Y-35161490D01*
X35123924Y-35159678D01*
X35118974Y-35158644D01*
X35118971Y-35158643D01*
X34891243Y-35111068D01*
X34891239Y-35111068D01*
X34886292Y-35110034D01*
X34643780Y-35099022D01*
X34638760Y-35099603D01*
X34638756Y-35099603D01*
X34417215Y-35125236D01*
X34402626Y-35126924D01*
X34397755Y-35128302D01*
X34397752Y-35128303D01*
X34314752Y-35151790D01*
X34169036Y-35193024D01*
X34095003Y-35227546D01*
X33953601Y-35293482D01*
X33953597Y-35293484D01*
X33949019Y-35295619D01*
X33748235Y-35432072D01*
X33571850Y-35598871D01*
X33568772Y-35602897D01*
X33568771Y-35602898D01*
X33427475Y-35787705D01*
X33427472Y-35787709D01*
X33424402Y-35791725D01*
X33309685Y-36005672D01*
X33308039Y-36010453D01*
X33308037Y-36010457D01*
X33265544Y-36133865D01*
X33230649Y-36235208D01*
X33189329Y-36474428D01*
X33186787Y-36717176D01*
X31559928Y-36717176D01*
X32863913Y-35413191D01*
X32872001Y-35405831D01*
X32878395Y-35401773D01*
X32924270Y-35352921D01*
X32927024Y-35350080D01*
X32947338Y-35329766D01*
X32949982Y-35326358D01*
X32957692Y-35317330D01*
X32982532Y-35290878D01*
X32987957Y-35285101D01*
X32997720Y-35267342D01*
X33008563Y-35250835D01*
X33020984Y-35234823D01*
X33038542Y-35194249D01*
X33043764Y-35183589D01*
X33061246Y-35151790D01*
X33061247Y-35151787D01*
X33065062Y-35144848D01*
X33070100Y-35125228D01*
X33076499Y-35106536D01*
X33084548Y-35087935D01*
X33091464Y-35044269D01*
X33093871Y-35032644D01*
X33103388Y-34995577D01*
X33104865Y-34989825D01*
X33104900Y-34989269D01*
X33104900Y-34969353D01*
X33106451Y-34949642D01*
X33108345Y-34937684D01*
X33109585Y-34929855D01*
X33105459Y-34886206D01*
X33104900Y-34874349D01*
X33104900Y-34062919D01*
X33124902Y-33994798D01*
X33137264Y-33978609D01*
X33206018Y-33902250D01*
X33206019Y-33902249D01*
X33210437Y-33897342D01*
X33305924Y-33731954D01*
X33364938Y-33550327D01*
X33384900Y-33360400D01*
X33364938Y-33170473D01*
X33305924Y-32988846D01*
X33210437Y-32823458D01*
X33082651Y-32681537D01*
X33077309Y-32677656D01*
X33077307Y-32677654D01*
X32933492Y-32573167D01*
X32933491Y-32573166D01*
X32928150Y-32569286D01*
X32922122Y-32566602D01*
X32922120Y-32566601D01*
X32759718Y-32494295D01*
X32759717Y-32494295D01*
X32753687Y-32491610D01*
X32660287Y-32471757D01*
X32573344Y-32453276D01*
X32573339Y-32453276D01*
X32566887Y-32451904D01*
X32375913Y-32451904D01*
X32369461Y-32453276D01*
X32369456Y-32453276D01*
X32282513Y-32471757D01*
X32189113Y-32491610D01*
X32183083Y-32494295D01*
X32183082Y-32494295D01*
X32020680Y-32566601D01*
X32020678Y-32566602D01*
X32014650Y-32569286D01*
X32009309Y-32573166D01*
X32009308Y-32573167D01*
X31865493Y-32677654D01*
X31865491Y-32677656D01*
X31860149Y-32681537D01*
X31732363Y-32823458D01*
X31636876Y-32988846D01*
X31577862Y-33170473D01*
X31557900Y-33360400D01*
X31577862Y-33550327D01*
X31636876Y-33731954D01*
X31732363Y-33897342D01*
X31736781Y-33902249D01*
X31736782Y-33902250D01*
X31805536Y-33978609D01*
X31836254Y-34042616D01*
X31837900Y-34062919D01*
X31837900Y-34595205D01*
X31817898Y-34663326D01*
X31800995Y-34684300D01*
X29839146Y-36646150D01*
X28825195Y-37660101D01*
X28762883Y-37694127D01*
X28692068Y-37689062D01*
X28635232Y-37646515D01*
X28610421Y-37579995D01*
X28610100Y-37571006D01*
X28610100Y-35611600D01*
X28604873Y-35538521D01*
X28563696Y-35398284D01*
X28517993Y-35327169D01*
X28489549Y-35282909D01*
X28489547Y-35282906D01*
X28484677Y-35275329D01*
X28465445Y-35258664D01*
X28381031Y-35185518D01*
X28381028Y-35185516D01*
X28374219Y-35179616D01*
X28241270Y-35118900D01*
X28232355Y-35117618D01*
X28232354Y-35117618D01*
X28101048Y-35098739D01*
X28101041Y-35098738D01*
X28096600Y-35098100D01*
X26096600Y-35098100D01*
X26023521Y-35103327D01*
X25970484Y-35118900D01*
X25891930Y-35141965D01*
X25891928Y-35141966D01*
X25883284Y-35144504D01*
X25859673Y-35159678D01*
X25767909Y-35218651D01*
X25767906Y-35218653D01*
X25760329Y-35223523D01*
X25754428Y-35230333D01*
X25670518Y-35327169D01*
X25670516Y-35327172D01*
X25664616Y-35333981D01*
X25603900Y-35466930D01*
X25602618Y-35475845D01*
X25602618Y-35475846D01*
X25583739Y-35607152D01*
X25583738Y-35607159D01*
X25583100Y-35611600D01*
X20508000Y-35611600D01*
X20508000Y-21093270D01*
X20509746Y-21072364D01*
X20512041Y-21058726D01*
X20512041Y-21058723D01*
X20512847Y-21053934D01*
X20512972Y-21043703D01*
X20513115Y-21039060D01*
X20514966Y-21001383D01*
X20517235Y-20982985D01*
X20532238Y-20907558D01*
X20539408Y-20883922D01*
X20567644Y-20815753D01*
X20579283Y-20793977D01*
X20620286Y-20732611D01*
X20635952Y-20713524D01*
X20688123Y-20661353D01*
X20707213Y-20645685D01*
X20768576Y-20604684D01*
X20790352Y-20593045D01*
X20858521Y-20564809D01*
X20882157Y-20557639D01*
X20957584Y-20542636D01*
X20975982Y-20540367D01*
X20991571Y-20539601D01*
X21015998Y-20538401D01*
X21015998Y-20537151D01*
X21037625Y-20533701D01*
X21063618Y-20534178D01*
X21070834Y-20534310D01*
X21070835Y-20534310D01*
X21079407Y-20534467D01*
X21082678Y-20533575D01*
X21085487Y-20533401D01*
X22449413Y-20533401D01*
X38855498Y-20533402D01*
G37*
%TD.AperFunction*%
%TD*%
M02*
