%TF.GenerationSoftware,KiCad,Pcbnew,(5.99.0-11067-gb10f156dd0)*%
%TF.CreationDate,2021-06-27T22:48:24-06:00*%
%TF.ProjectId,MeditationLamp,4d656469-7461-4746-996f-6e4c616d702e,rev?*%
%TF.SameCoordinates,Original*%
%TF.FileFunction,Legend,Top*%
%TF.FilePolarity,Positive*%
%FSLAX46Y46*%
G04 Gerber Fmt 4.6, Leading zero omitted, Abs format (unit mm)*
G04 Created by KiCad (PCBNEW (5.99.0-11067-gb10f156dd0)) date 2021-06-27 22:48:24*
%MOMM*%
%LPD*%
G01*
G04 APERTURE LIST*
%ADD10C,0.300000*%
%ADD11C,0.150000*%
%ADD12C,0.120000*%
G04 APERTURE END LIST*
D10*
X36933171Y-79965600D02*
X38004600Y-79965600D01*
X38218885Y-80037028D01*
X38361742Y-80179885D01*
X38433171Y-80394171D01*
X38433171Y-80537028D01*
X38433171Y-78537028D02*
X38433171Y-79251314D01*
X36933171Y-79251314D01*
X38290314Y-77179885D02*
X38361742Y-77251314D01*
X38433171Y-77465600D01*
X38433171Y-77608457D01*
X38361742Y-77822742D01*
X38218885Y-77965600D01*
X38076028Y-78037028D01*
X37790314Y-78108457D01*
X37576028Y-78108457D01*
X37290314Y-78037028D01*
X37147457Y-77965600D01*
X37004600Y-77822742D01*
X36933171Y-77608457D01*
X36933171Y-77465600D01*
X37004600Y-77251314D01*
X37076028Y-77179885D01*
X36933171Y-76108457D02*
X38004600Y-76108457D01*
X38218885Y-76179885D01*
X38361742Y-76322742D01*
X38433171Y-76537028D01*
X38433171Y-76679885D01*
X38433171Y-74679885D02*
X38433171Y-75394171D01*
X36933171Y-75394171D01*
X38290314Y-73322742D02*
X38361742Y-73394171D01*
X38433171Y-73608457D01*
X38433171Y-73751314D01*
X38361742Y-73965600D01*
X38218885Y-74108457D01*
X38076028Y-74179885D01*
X37790314Y-74251314D01*
X37576028Y-74251314D01*
X37290314Y-74179885D01*
X37147457Y-74108457D01*
X37004600Y-73965600D01*
X36933171Y-73751314D01*
X36933171Y-73608457D01*
X37004600Y-73394171D01*
X37076028Y-73322742D01*
X36933171Y-72251314D02*
X38004600Y-72251314D01*
X38218885Y-72322742D01*
X38361742Y-72465600D01*
X38433171Y-72679885D01*
X38433171Y-72822742D01*
X38433171Y-70822742D02*
X38433171Y-71537028D01*
X36933171Y-71537028D01*
X38290314Y-69465600D02*
X38361742Y-69537028D01*
X38433171Y-69751314D01*
X38433171Y-69894171D01*
X38361742Y-70108457D01*
X38218885Y-70251314D01*
X38076028Y-70322742D01*
X37790314Y-70394171D01*
X37576028Y-70394171D01*
X37290314Y-70322742D01*
X37147457Y-70251314D01*
X37004600Y-70108457D01*
X36933171Y-69894171D01*
X36933171Y-69751314D01*
X37004600Y-69537028D01*
X37076028Y-69465600D01*
X24183771Y-80235857D02*
X22683771Y-80235857D01*
X23755200Y-79735857D01*
X22683771Y-79235857D01*
X24183771Y-79235857D01*
X24112342Y-77950142D02*
X24183771Y-78093000D01*
X24183771Y-78378714D01*
X24112342Y-78521571D01*
X23969485Y-78593000D01*
X23398057Y-78593000D01*
X23255200Y-78521571D01*
X23183771Y-78378714D01*
X23183771Y-78093000D01*
X23255200Y-77950142D01*
X23398057Y-77878714D01*
X23540914Y-77878714D01*
X23683771Y-78593000D01*
X24183771Y-76593000D02*
X22683771Y-76593000D01*
X24112342Y-76593000D02*
X24183771Y-76735857D01*
X24183771Y-77021571D01*
X24112342Y-77164428D01*
X24040914Y-77235857D01*
X23898057Y-77307285D01*
X23469485Y-77307285D01*
X23326628Y-77235857D01*
X23255200Y-77164428D01*
X23183771Y-77021571D01*
X23183771Y-76735857D01*
X23255200Y-76593000D01*
X24183771Y-75878714D02*
X23183771Y-75878714D01*
X22683771Y-75878714D02*
X22755200Y-75950142D01*
X22826628Y-75878714D01*
X22755200Y-75807285D01*
X22683771Y-75878714D01*
X22826628Y-75878714D01*
X23183771Y-75378714D02*
X23183771Y-74807285D01*
X22683771Y-75164428D02*
X23969485Y-75164428D01*
X24112342Y-75093000D01*
X24183771Y-74950142D01*
X24183771Y-74807285D01*
X24183771Y-73664428D02*
X23398057Y-73664428D01*
X23255200Y-73735857D01*
X23183771Y-73878714D01*
X23183771Y-74164428D01*
X23255200Y-74307285D01*
X24112342Y-73664428D02*
X24183771Y-73807285D01*
X24183771Y-74164428D01*
X24112342Y-74307285D01*
X23969485Y-74378714D01*
X23826628Y-74378714D01*
X23683771Y-74307285D01*
X23612342Y-74164428D01*
X23612342Y-73807285D01*
X23540914Y-73664428D01*
X23183771Y-73164428D02*
X23183771Y-72593000D01*
X22683771Y-72950142D02*
X23969485Y-72950142D01*
X24112342Y-72878714D01*
X24183771Y-72735857D01*
X24183771Y-72593000D01*
X24183771Y-72093000D02*
X23183771Y-72093000D01*
X22683771Y-72093000D02*
X22755200Y-72164428D01*
X22826628Y-72093000D01*
X22755200Y-72021571D01*
X22683771Y-72093000D01*
X22826628Y-72093000D01*
X24183771Y-71164428D02*
X24112342Y-71307285D01*
X24040914Y-71378714D01*
X23898057Y-71450142D01*
X23469485Y-71450142D01*
X23326628Y-71378714D01*
X23255200Y-71307285D01*
X23183771Y-71164428D01*
X23183771Y-70950142D01*
X23255200Y-70807285D01*
X23326628Y-70735857D01*
X23469485Y-70664428D01*
X23898057Y-70664428D01*
X24040914Y-70735857D01*
X24112342Y-70807285D01*
X24183771Y-70950142D01*
X24183771Y-71164428D01*
X23183771Y-70021571D02*
X24183771Y-70021571D01*
X23326628Y-70021571D02*
X23255200Y-69950142D01*
X23183771Y-69807285D01*
X23183771Y-69593000D01*
X23255200Y-69450142D01*
X23398057Y-69378714D01*
X24183771Y-69378714D01*
X24183771Y-66807285D02*
X24183771Y-67521571D01*
X22683771Y-67521571D01*
X24183771Y-65664428D02*
X23398057Y-65664428D01*
X23255200Y-65735857D01*
X23183771Y-65878714D01*
X23183771Y-66164428D01*
X23255200Y-66307285D01*
X24112342Y-65664428D02*
X24183771Y-65807285D01*
X24183771Y-66164428D01*
X24112342Y-66307285D01*
X23969485Y-66378714D01*
X23826628Y-66378714D01*
X23683771Y-66307285D01*
X23612342Y-66164428D01*
X23612342Y-65807285D01*
X23540914Y-65664428D01*
X24183771Y-64950142D02*
X23183771Y-64950142D01*
X23326628Y-64950142D02*
X23255200Y-64878714D01*
X23183771Y-64735857D01*
X23183771Y-64521571D01*
X23255200Y-64378714D01*
X23398057Y-64307285D01*
X24183771Y-64307285D01*
X23398057Y-64307285D02*
X23255200Y-64235857D01*
X23183771Y-64093000D01*
X23183771Y-63878714D01*
X23255200Y-63735857D01*
X23398057Y-63664428D01*
X24183771Y-63664428D01*
X23183771Y-62950142D02*
X24683771Y-62950142D01*
X23255200Y-62950142D02*
X23183771Y-62807285D01*
X23183771Y-62521571D01*
X23255200Y-62378714D01*
X23326628Y-62307285D01*
X23469485Y-62235857D01*
X23898057Y-62235857D01*
X24040914Y-62307285D01*
X24112342Y-62378714D01*
X24183771Y-62521571D01*
X24183771Y-62807285D01*
X24112342Y-62950142D01*
X23612342Y-60450142D02*
X23612342Y-59307285D01*
X24183771Y-56593000D02*
X23469485Y-57093000D01*
X24183771Y-57450142D02*
X22683771Y-57450142D01*
X22683771Y-56878714D01*
X22755200Y-56735857D01*
X22826628Y-56664428D01*
X22969485Y-56593000D01*
X23183771Y-56593000D01*
X23326628Y-56664428D01*
X23398057Y-56735857D01*
X23469485Y-56878714D01*
X23469485Y-57450142D01*
X24112342Y-55378714D02*
X24183771Y-55521571D01*
X24183771Y-55807285D01*
X24112342Y-55950142D01*
X23969485Y-56021571D01*
X23398057Y-56021571D01*
X23255200Y-55950142D01*
X23183771Y-55807285D01*
X23183771Y-55521571D01*
X23255200Y-55378714D01*
X23398057Y-55307285D01*
X23540914Y-55307285D01*
X23683771Y-56021571D01*
X23183771Y-54807285D02*
X24183771Y-54450142D01*
X23183771Y-54093000D01*
X24040914Y-53521571D02*
X24112342Y-53450142D01*
X24183771Y-53521571D01*
X24112342Y-53593000D01*
X24040914Y-53521571D01*
X24183771Y-53521571D01*
X24183771Y-50878714D02*
X24183771Y-51735857D01*
X24183771Y-51307285D02*
X22683771Y-51307285D01*
X22898057Y-51450142D01*
X23040914Y-51593000D01*
X23112342Y-51735857D01*
D11*
%TO.C,J1*%
X25341580Y-99835333D02*
X26055866Y-99835333D01*
X26198723Y-99882952D01*
X26293961Y-99978190D01*
X26341580Y-100121047D01*
X26341580Y-100216285D01*
X26341580Y-98835333D02*
X26341580Y-99406761D01*
X26341580Y-99121047D02*
X25341580Y-99121047D01*
X25484438Y-99216285D01*
X25579676Y-99311523D01*
X25627295Y-99406761D01*
%TO.C,SW1*%
X29199366Y-22429361D02*
X29342223Y-22476980D01*
X29580319Y-22476980D01*
X29675557Y-22429361D01*
X29723176Y-22381742D01*
X29770795Y-22286504D01*
X29770795Y-22191266D01*
X29723176Y-22096028D01*
X29675557Y-22048409D01*
X29580319Y-22000790D01*
X29389842Y-21953171D01*
X29294604Y-21905552D01*
X29246985Y-21857933D01*
X29199366Y-21762695D01*
X29199366Y-21667457D01*
X29246985Y-21572219D01*
X29294604Y-21524600D01*
X29389842Y-21476980D01*
X29627938Y-21476980D01*
X29770795Y-21524600D01*
X30104128Y-21476980D02*
X30342223Y-22476980D01*
X30532700Y-21762695D01*
X30723176Y-22476980D01*
X30961271Y-21476980D01*
X31866033Y-22476980D02*
X31294604Y-22476980D01*
X31580319Y-22476980D02*
X31580319Y-21476980D01*
X31485080Y-21619838D01*
X31389842Y-21715076D01*
X31294604Y-21762695D01*
%TO.C,R2*%
X33930333Y-82192180D02*
X33597000Y-81715990D01*
X33358904Y-82192180D02*
X33358904Y-81192180D01*
X33739857Y-81192180D01*
X33835095Y-81239800D01*
X33882714Y-81287419D01*
X33930333Y-81382657D01*
X33930333Y-81525514D01*
X33882714Y-81620752D01*
X33835095Y-81668371D01*
X33739857Y-81715990D01*
X33358904Y-81715990D01*
X34311285Y-81287419D02*
X34358904Y-81239800D01*
X34454142Y-81192180D01*
X34692238Y-81192180D01*
X34787476Y-81239800D01*
X34835095Y-81287419D01*
X34882714Y-81382657D01*
X34882714Y-81477895D01*
X34835095Y-81620752D01*
X34263666Y-82192180D01*
X34882714Y-82192180D01*
%TO.C,U1*%
X29916095Y-43472180D02*
X29916095Y-44281704D01*
X29963714Y-44376942D01*
X30011333Y-44424561D01*
X30106571Y-44472180D01*
X30297047Y-44472180D01*
X30392285Y-44424561D01*
X30439904Y-44376942D01*
X30487523Y-44281704D01*
X30487523Y-43472180D01*
X31487523Y-44472180D02*
X30916095Y-44472180D01*
X31201809Y-44472180D02*
X31201809Y-43472180D01*
X31106571Y-43615038D01*
X31011333Y-43710276D01*
X30916095Y-43757895D01*
%TO.C,C1*%
X30044133Y-84540542D02*
X29996514Y-84588161D01*
X29853657Y-84635780D01*
X29758419Y-84635780D01*
X29615561Y-84588161D01*
X29520323Y-84492923D01*
X29472704Y-84397685D01*
X29425085Y-84207209D01*
X29425085Y-84064352D01*
X29472704Y-83873876D01*
X29520323Y-83778638D01*
X29615561Y-83683400D01*
X29758419Y-83635780D01*
X29853657Y-83635780D01*
X29996514Y-83683400D01*
X30044133Y-83731019D01*
X30996514Y-84635780D02*
X30425085Y-84635780D01*
X30710800Y-84635780D02*
X30710800Y-83635780D01*
X30615561Y-83778638D01*
X30520323Y-83873876D01*
X30425085Y-83921495D01*
%TO.C,R3*%
X34235133Y-42669780D02*
X33901800Y-42193590D01*
X33663704Y-42669780D02*
X33663704Y-41669780D01*
X34044657Y-41669780D01*
X34139895Y-41717400D01*
X34187514Y-41765019D01*
X34235133Y-41860257D01*
X34235133Y-42003114D01*
X34187514Y-42098352D01*
X34139895Y-42145971D01*
X34044657Y-42193590D01*
X33663704Y-42193590D01*
X34568466Y-41669780D02*
X35187514Y-41669780D01*
X34854180Y-42050733D01*
X34997038Y-42050733D01*
X35092276Y-42098352D01*
X35139895Y-42145971D01*
X35187514Y-42241209D01*
X35187514Y-42479304D01*
X35139895Y-42574542D01*
X35092276Y-42622161D01*
X34997038Y-42669780D01*
X34711323Y-42669780D01*
X34616085Y-42622161D01*
X34568466Y-42574542D01*
%TO.C,BZ1*%
X30015647Y-29340171D02*
X30158504Y-29387790D01*
X30206123Y-29435409D01*
X30253742Y-29530647D01*
X30253742Y-29673504D01*
X30206123Y-29768742D01*
X30158504Y-29816361D01*
X30063266Y-29863980D01*
X29682314Y-29863980D01*
X29682314Y-28863980D01*
X30015647Y-28863980D01*
X30110885Y-28911600D01*
X30158504Y-28959219D01*
X30206123Y-29054457D01*
X30206123Y-29149695D01*
X30158504Y-29244933D01*
X30110885Y-29292552D01*
X30015647Y-29340171D01*
X29682314Y-29340171D01*
X30587076Y-28863980D02*
X31253742Y-28863980D01*
X30587076Y-29863980D01*
X31253742Y-29863980D01*
X32158504Y-29863980D02*
X31587076Y-29863980D01*
X31872790Y-29863980D02*
X31872790Y-28863980D01*
X31777552Y-29006838D01*
X31682314Y-29102076D01*
X31587076Y-29149695D01*
X26705647Y-34143028D02*
X27467552Y-34143028D01*
X27086600Y-34523980D02*
X27086600Y-33762076D01*
%TO.C,R1*%
X27135333Y-42796780D02*
X26802000Y-42320590D01*
X26563904Y-42796780D02*
X26563904Y-41796780D01*
X26944857Y-41796780D01*
X27040095Y-41844400D01*
X27087714Y-41892019D01*
X27135333Y-41987257D01*
X27135333Y-42130114D01*
X27087714Y-42225352D01*
X27040095Y-42272971D01*
X26944857Y-42320590D01*
X26563904Y-42320590D01*
X28087714Y-42796780D02*
X27516285Y-42796780D01*
X27802000Y-42796780D02*
X27802000Y-41796780D01*
X27706761Y-41939638D01*
X27611523Y-42034876D01*
X27516285Y-42082495D01*
D12*
%TO.C,J1*%
X29489200Y-100832000D02*
X34629200Y-100832000D01*
X34629200Y-100832000D02*
X34629200Y-98172000D01*
X28219200Y-100832000D02*
X26889200Y-100832000D01*
X29489200Y-100832000D02*
X29489200Y-98172000D01*
X29489200Y-98172000D02*
X34629200Y-98172000D01*
X26889200Y-100832000D02*
X26889200Y-99502000D01*
%TO.C,SW1*%
X33632700Y-25024600D02*
X33632700Y-27624600D01*
X33432700Y-23074600D02*
X27632700Y-23074600D01*
X25432700Y-24024600D02*
X25432700Y-23024600D01*
X25432700Y-23024600D02*
X26432700Y-23024600D01*
X33532700Y-29574600D02*
X27532700Y-29574600D01*
X27432700Y-25024600D02*
X27432700Y-27624600D01*
%TO.C,R2*%
X33859742Y-83692300D02*
X34334258Y-83692300D01*
X33859742Y-82647300D02*
X34334258Y-82647300D01*
%TO.C,U1*%
X31678000Y-45019800D02*
G75*
G02*
X29678000Y-45019800I-1000000J0D01*
G01*
X29678000Y-45019800D02*
X28028000Y-45019800D01*
X28028000Y-80699800D02*
X33328000Y-80699800D01*
X33328000Y-45019800D02*
X31678000Y-45019800D01*
X28028000Y-45019800D02*
X28028000Y-80699800D01*
X33328000Y-80699800D02*
X33328000Y-45019800D01*
%TO.C,C1*%
X26015237Y-85123400D02*
X35470800Y-85123400D01*
X35470800Y-95643400D02*
X35470800Y-91893400D01*
X24950800Y-86187837D02*
X24950800Y-88873400D01*
X23460800Y-87623400D02*
X24710800Y-87623400D01*
X24950800Y-86187837D02*
X26015237Y-85123400D01*
X26015237Y-95643400D02*
X35470800Y-95643400D01*
X24950800Y-94578963D02*
X24950800Y-91893400D01*
X24950800Y-94578963D02*
X26015237Y-95643400D01*
X35470800Y-85123400D02*
X35470800Y-88873400D01*
X24085800Y-86998400D02*
X24085800Y-88248400D01*
%TO.C,R3*%
X34164542Y-44169900D02*
X34639058Y-44169900D01*
X34164542Y-43124900D02*
X34639058Y-43124900D01*
%TO.C,BZ1*%
X36996600Y-36611600D02*
G75*
G03*
X36996600Y-36611600I-6100000J0D01*
G01*
%TO.C,R1*%
X27064742Y-44296900D02*
X27539258Y-44296900D01*
X27064742Y-43251900D02*
X27539258Y-43251900D01*
%TD*%
M02*
