%TF.GenerationSoftware,KiCad,Pcbnew,(5.99.0-11067-gb10f156dd0)*%
%TF.CreationDate,2021-06-27T22:48:24-06:00*%
%TF.ProjectId,MeditationLamp,4d656469-7461-4746-996f-6e4c616d702e,rev?*%
%TF.SameCoordinates,Original*%
%TF.FileFunction,Copper,L1,Top*%
%TF.FilePolarity,Positive*%
%FSLAX46Y46*%
G04 Gerber Fmt 4.6, Leading zero omitted, Abs format (unit mm)*
G04 Created by KiCad (PCBNEW (5.99.0-11067-gb10f156dd0)) date 2021-06-27 22:48:24*
%MOMM*%
%LPD*%
G01*
G04 APERTURE LIST*
G04 Aperture macros list*
%AMRoundRect*
0 Rectangle with rounded corners*
0 $1 Rounding radius*
0 $2 $3 $4 $5 $6 $7 $8 $9 X,Y pos of 4 corners*
0 Add a 4 corners polygon primitive as box body*
4,1,4,$2,$3,$4,$5,$6,$7,$8,$9,$2,$3,0*
0 Add four circle primitives for the rounded corners*
1,1,$1+$1,$2,$3*
1,1,$1+$1,$4,$5*
1,1,$1+$1,$6,$7*
1,1,$1+$1,$8,$9*
0 Add four rect primitives between the rounded corners*
20,1,$1+$1,$2,$3,$4,$5,0*
20,1,$1+$1,$4,$5,$6,$7,0*
20,1,$1+$1,$6,$7,$8,$9,0*
20,1,$1+$1,$8,$9,$2,$3,0*%
G04 Aperture macros list end*
%TA.AperFunction,ComponentPad*%
%ADD10O,1.700000X1.700000*%
%TD*%
%TA.AperFunction,ComponentPad*%
%ADD11R,1.700000X1.700000*%
%TD*%
%TA.AperFunction,SMDPad,CuDef*%
%ADD12R,1.600000X1.400000*%
%TD*%
%TA.AperFunction,SMDPad,CuDef*%
%ADD13RoundRect,0.200000X-0.200000X-0.275000X0.200000X-0.275000X0.200000X0.275000X-0.200000X0.275000X0*%
%TD*%
%TA.AperFunction,ComponentPad*%
%ADD14O,1.600000X1.600000*%
%TD*%
%TA.AperFunction,ComponentPad*%
%ADD15R,1.600000X1.600000*%
%TD*%
%TA.AperFunction,SMDPad,CuDef*%
%ADD16RoundRect,0.250000X-1.750000X-1.000000X1.750000X-1.000000X1.750000X1.000000X-1.750000X1.000000X0*%
%TD*%
%TA.AperFunction,ComponentPad*%
%ADD17C,2.000000*%
%TD*%
%TA.AperFunction,ComponentPad*%
%ADD18R,2.000000X2.000000*%
%TD*%
%TA.AperFunction,ViaPad*%
%ADD19C,1.524000*%
%TD*%
%TA.AperFunction,ViaPad*%
%ADD20C,0.800000*%
%TD*%
%TA.AperFunction,Conductor*%
%ADD21C,0.250000*%
%TD*%
%TA.AperFunction,Conductor*%
%ADD22C,1.524000*%
%TD*%
G04 APERTURE END LIST*
D10*
%TO.P,J1,3,Pin_3*%
%TO.N,GND*%
X33299200Y-99502000D03*
%TO.P,J1,2,Pin_2*%
%TO.N,Net-(J1-Pad2)*%
X30759200Y-99502000D03*
D11*
%TO.P,J1,1,Pin_1*%
%TO.N,+5V*%
X28219200Y-99502000D03*
%TD*%
D12*
%TO.P,SW1,4*%
%TO.N,N/C*%
X34532700Y-28574600D03*
%TO.P,SW1,3*%
X26532700Y-28574600D03*
%TO.P,SW1,2,B*%
%TO.N,Net-(R1-Pad1)*%
X34532700Y-24074600D03*
%TO.P,SW1,1,A*%
%TO.N,Net-(SW1-Pad1)*%
X26532700Y-24074600D03*
%TD*%
D13*
%TO.P,R2,2*%
%TO.N,Net-(J1-Pad2)*%
X34922000Y-83169800D03*
%TO.P,R2,1*%
%TO.N,Net-(U1-Pad13)*%
X33272000Y-83169800D03*
%TD*%
D14*
%TO.P,U1,28,PC5*%
%TO.N,unconnected-(U1-Pad28)*%
X34488000Y-46349800D03*
%TO.P,U1,27,PC4*%
%TO.N,unconnected-(U1-Pad27)*%
X34488000Y-48889800D03*
%TO.P,U1,26,PC3*%
%TO.N,unconnected-(U1-Pad26)*%
X34488000Y-51429800D03*
%TO.P,U1,25,PC2*%
%TO.N,unconnected-(U1-Pad25)*%
X34488000Y-53969800D03*
%TO.P,U1,24,PC1*%
%TO.N,unconnected-(U1-Pad24)*%
X34488000Y-56509800D03*
%TO.P,U1,23,PC0*%
%TO.N,unconnected-(U1-Pad23)*%
X34488000Y-59049800D03*
%TO.P,U1,22,GND*%
%TO.N,GND*%
X34488000Y-61589800D03*
%TO.P,U1,21,AREF*%
%TO.N,+5V*%
X34488000Y-64129800D03*
%TO.P,U1,20,AVCC*%
X34488000Y-66669800D03*
%TO.P,U1,19,PB5*%
%TO.N,unconnected-(U1-Pad19)*%
X34488000Y-69209800D03*
%TO.P,U1,18,PB4*%
%TO.N,unconnected-(U1-Pad18)*%
X34488000Y-71749800D03*
%TO.P,U1,17,PB3*%
%TO.N,unconnected-(U1-Pad17)*%
X34488000Y-74289800D03*
%TO.P,U1,16,PB2*%
%TO.N,unconnected-(U1-Pad16)*%
X34488000Y-76829800D03*
%TO.P,U1,15,PB1*%
%TO.N,unconnected-(U1-Pad15)*%
X34488000Y-79369800D03*
%TO.P,U1,14,PB0*%
%TO.N,unconnected-(U1-Pad14)*%
X26868000Y-79369800D03*
%TO.P,U1,13,PD7*%
%TO.N,Net-(U1-Pad13)*%
X26868000Y-76829800D03*
%TO.P,U1,12,PD6*%
%TO.N,/BUZZ*%
X26868000Y-74289800D03*
%TO.P,U1,11,PD5*%
%TO.N,unconnected-(U1-Pad11)*%
X26868000Y-71749800D03*
%TO.P,U1,10,XTAL2/PB7*%
%TO.N,unconnected-(U1-Pad10)*%
X26868000Y-69209800D03*
%TO.P,U1,9,XTAL1/PB6*%
%TO.N,unconnected-(U1-Pad9)*%
X26868000Y-66669800D03*
%TO.P,U1,8,GND*%
%TO.N,GND*%
X26868000Y-64129800D03*
%TO.P,U1,7,VCC*%
%TO.N,+5V*%
X26868000Y-61589800D03*
%TO.P,U1,6,PD4*%
%TO.N,unconnected-(U1-Pad6)*%
X26868000Y-59049800D03*
%TO.P,U1,5,PD3*%
%TO.N,Net-(SW1-Pad1)*%
X26868000Y-56509800D03*
%TO.P,U1,4,PD2*%
%TO.N,unconnected-(U1-Pad4)*%
X26868000Y-53969800D03*
%TO.P,U1,3,PD1*%
%TO.N,unconnected-(U1-Pad3)*%
X26868000Y-51429800D03*
%TO.P,U1,2,PD0*%
%TO.N,unconnected-(U1-Pad2)*%
X26868000Y-48889800D03*
D15*
%TO.P,U1,1,~{RESET}/PC6*%
%TO.N,unconnected-(U1-Pad1)*%
X26868000Y-46349800D03*
%TD*%
D16*
%TO.P,C1,2*%
%TO.N,GND*%
X34210800Y-90383400D03*
%TO.P,C1,1*%
%TO.N,+5V*%
X26210800Y-90383400D03*
%TD*%
D13*
%TO.P,R3,2*%
%TO.N,GND*%
X35226800Y-43647400D03*
%TO.P,R3,1*%
%TO.N,Net-(BZ1-Pad2)*%
X33576800Y-43647400D03*
%TD*%
D17*
%TO.P,BZ1,2,+*%
%TO.N,Net-(BZ1-Pad2)*%
X34696600Y-36611600D03*
D18*
%TO.P,BZ1,1,-*%
%TO.N,/BUZZ*%
X27096600Y-36611600D03*
%TD*%
D13*
%TO.P,R1,2*%
%TO.N,GND*%
X28127000Y-43774400D03*
%TO.P,R1,1*%
%TO.N,Net-(R1-Pad1)*%
X26477000Y-43774400D03*
%TD*%
D19*
%TO.N,+5V*%
X26604000Y-83246000D03*
D20*
%TO.N,Net-(R1-Pad1)*%
X27772400Y-39583400D03*
X32471400Y-33360400D03*
%TD*%
D21*
%TO.N,Net-(J1-Pad2)*%
X30759200Y-88285600D02*
X30759200Y-99502000D01*
X34922000Y-84122800D02*
X30759200Y-88285600D01*
X34922000Y-83169800D02*
X34922000Y-84122800D01*
D22*
%TO.N,+5V*%
X28204200Y-99487000D02*
X28219200Y-99502000D01*
X28204200Y-92376800D02*
X28204200Y-99487000D01*
X26210800Y-90383400D02*
X28204200Y-92376800D01*
D21*
%TO.N,/BUZZ*%
X26868000Y-74289800D02*
X29804400Y-71353400D01*
X29804400Y-39319400D02*
X27096600Y-36611600D01*
X29804400Y-71353400D02*
X29804400Y-39319400D01*
%TO.N,Net-(BZ1-Pad2)*%
X33576800Y-43647400D02*
X33576800Y-37731400D01*
X33576800Y-37731400D02*
X34696600Y-36611600D01*
D22*
%TO.N,+5V*%
X26210800Y-90383400D02*
X26210800Y-83639200D01*
X26210800Y-83639200D02*
X26604000Y-83246000D01*
D21*
%TO.N,Net-(R1-Pad1)*%
X32395200Y-26212100D02*
X34532700Y-24074600D01*
X32395200Y-31353800D02*
X32395200Y-26212100D01*
X26477000Y-40878800D02*
X27772400Y-39583400D01*
X26477000Y-43774400D02*
X26477000Y-40878800D01*
X32471400Y-31430000D02*
X32395200Y-31353800D01*
X32471400Y-33360400D02*
X32471400Y-31430000D01*
%TO.N,Net-(U1-Pad13)*%
X33208000Y-83169800D02*
X33272000Y-83169800D01*
X26868000Y-76829800D02*
X33208000Y-83169800D01*
%TO.N,Net-(SW1-Pad1)*%
X28128000Y-35214600D02*
X28055511Y-35287089D01*
X29354880Y-54022920D02*
X26868000Y-56509800D01*
X28128000Y-25669900D02*
X28128000Y-35214600D01*
X28055511Y-35287089D02*
X25772089Y-35287089D01*
X26532700Y-24074600D02*
X28128000Y-25669900D01*
X25772089Y-37936111D02*
X27785393Y-37936111D01*
X29354880Y-39505598D02*
X29354880Y-54022920D01*
X25772089Y-35287089D02*
X25772089Y-37936111D01*
X27785393Y-37936111D02*
X29354880Y-39505598D01*
%TD*%
%TA.AperFunction,Conductor*%
%TO.N,GND*%
G36*
X38855498Y-20533402D02*
G01*
X38881600Y-20536533D01*
X38881600Y-20538402D01*
X38893568Y-20538990D01*
X38921618Y-20540368D01*
X38940017Y-20542637D01*
X39015441Y-20557640D01*
X39039077Y-20564810D01*
X39107248Y-20593047D01*
X39129032Y-20604691D01*
X39190384Y-20645685D01*
X39209477Y-20661355D01*
X39261647Y-20713525D01*
X39277317Y-20732618D01*
X39318311Y-20793970D01*
X39329955Y-20815754D01*
X39358192Y-20883925D01*
X39365362Y-20907561D01*
X39380365Y-20982985D01*
X39382634Y-21001384D01*
X39384600Y-21041401D01*
X39382462Y-21041506D01*
X39382476Y-21041792D01*
X39385458Y-21041402D01*
X39388537Y-21064950D01*
X39389600Y-21081286D01*
X39389600Y-100774914D01*
X39388100Y-100794297D01*
X39384638Y-100816533D01*
X39385092Y-100820006D01*
X39384740Y-100822801D01*
X39384600Y-100822801D01*
X39383708Y-100840958D01*
X39382634Y-100862817D01*
X39380365Y-100881215D01*
X39365362Y-100956642D01*
X39358192Y-100980278D01*
X39329956Y-101048447D01*
X39318317Y-101070223D01*
X39277317Y-101131585D01*
X39261648Y-101150676D01*
X39209477Y-101202847D01*
X39190390Y-101218513D01*
X39129024Y-101259516D01*
X39107249Y-101271155D01*
X39073163Y-101285273D01*
X39039079Y-101299391D01*
X39015443Y-101306561D01*
X38940016Y-101321564D01*
X38921618Y-101323833D01*
X38914151Y-101324200D01*
X38881602Y-101325799D01*
X38881602Y-101327400D01*
X38861479Y-101330799D01*
X38853979Y-101330799D01*
X38853209Y-101330797D01*
X38852653Y-101330794D01*
X38811979Y-101330545D01*
X38811147Y-101330783D01*
X38810909Y-101330799D01*
X38688543Y-101330799D01*
X21042101Y-101330800D01*
X21015999Y-101327669D01*
X21015999Y-101325800D01*
X21004031Y-101325212D01*
X20975983Y-101323834D01*
X20957585Y-101321565D01*
X20882158Y-101306562D01*
X20858522Y-101299392D01*
X20790353Y-101271156D01*
X20768577Y-101259517D01*
X20707211Y-101218514D01*
X20688124Y-101202848D01*
X20635953Y-101150677D01*
X20620287Y-101131590D01*
X20579284Y-101070224D01*
X20567645Y-101048448D01*
X20539409Y-100980279D01*
X20532239Y-100956643D01*
X20517236Y-100881216D01*
X20514967Y-100862818D01*
X20513193Y-100826704D01*
X20513193Y-100826703D01*
X20513001Y-100822802D01*
X20513001Y-100822801D01*
X20509274Y-100796777D01*
X20508001Y-100778914D01*
X20508001Y-89327378D01*
X23702300Y-89327378D01*
X23702300Y-91426286D01*
X23707730Y-91472858D01*
X23716917Y-91551655D01*
X23717778Y-91559043D01*
X23720274Y-91565921D01*
X23720275Y-91565923D01*
X23766754Y-91693971D01*
X23778113Y-91725264D01*
X23807030Y-91769370D01*
X23863988Y-91856245D01*
X23875069Y-91873147D01*
X24003445Y-91994758D01*
X24156355Y-92083575D01*
X24325596Y-92134833D01*
X24332036Y-92135408D01*
X24332037Y-92135408D01*
X24401985Y-92141651D01*
X24401991Y-92141651D01*
X24404778Y-92141900D01*
X26120350Y-92141900D01*
X26188471Y-92161902D01*
X26209445Y-92178804D01*
X26896795Y-92866153D01*
X26930820Y-92928466D01*
X26933700Y-92955249D01*
X26933700Y-98354670D01*
X26922313Y-98407013D01*
X26886855Y-98484656D01*
X26876500Y-98507330D01*
X26875218Y-98516245D01*
X26875218Y-98516246D01*
X26856339Y-98647552D01*
X26856338Y-98647559D01*
X26855700Y-98652000D01*
X26855700Y-100352000D01*
X26860927Y-100425079D01*
X26864391Y-100436875D01*
X26893550Y-100536182D01*
X26902104Y-100565316D01*
X26906975Y-100572895D01*
X26976251Y-100680691D01*
X26976253Y-100680694D01*
X26981123Y-100688271D01*
X26987933Y-100694172D01*
X27084769Y-100778082D01*
X27084772Y-100778084D01*
X27091581Y-100783984D01*
X27099779Y-100787728D01*
X27212198Y-100839068D01*
X27224530Y-100844700D01*
X27233445Y-100845982D01*
X27233446Y-100845982D01*
X27364752Y-100864861D01*
X27364759Y-100864862D01*
X27369200Y-100865500D01*
X29069200Y-100865500D01*
X29142279Y-100860273D01*
X29234836Y-100833096D01*
X29273870Y-100821635D01*
X29273872Y-100821634D01*
X29282516Y-100819096D01*
X29349646Y-100775954D01*
X29397891Y-100744949D01*
X29397894Y-100744947D01*
X29405471Y-100740077D01*
X29430286Y-100711439D01*
X29495282Y-100636431D01*
X29495284Y-100636428D01*
X29501184Y-100629619D01*
X29561900Y-100496670D01*
X29562520Y-100492360D01*
X29599632Y-100434610D01*
X29664212Y-100405117D01*
X29734486Y-100415220D01*
X29766535Y-100436270D01*
X29934829Y-100588069D01*
X30129606Y-100711439D01*
X30342384Y-100800228D01*
X30347587Y-100801425D01*
X30347592Y-100801426D01*
X30561878Y-100850701D01*
X30561883Y-100850702D01*
X30567081Y-100851897D01*
X30572409Y-100852200D01*
X30572412Y-100852200D01*
X30723077Y-100860755D01*
X30797271Y-100864968D01*
X30802578Y-100864368D01*
X30802580Y-100864368D01*
X30976554Y-100844700D01*
X31026373Y-100839068D01*
X31031488Y-100837587D01*
X31031492Y-100837586D01*
X31118100Y-100812506D01*
X31247835Y-100774937D01*
X31455325Y-100674409D01*
X31459663Y-100671309D01*
X31459668Y-100671306D01*
X31638570Y-100543459D01*
X31642911Y-100540357D01*
X31805230Y-100376617D01*
X31927153Y-100202816D01*
X31982649Y-100158536D01*
X32053275Y-100151289D01*
X32116607Y-100183375D01*
X32140981Y-100214958D01*
X32158750Y-100247617D01*
X32164602Y-100256491D01*
X32300686Y-100429113D01*
X32307950Y-100436875D01*
X32471167Y-100584094D01*
X32479644Y-100590528D01*
X32665322Y-100708136D01*
X32674767Y-100713053D01*
X32877606Y-100797694D01*
X32887745Y-100800950D01*
X33027545Y-100833096D01*
X33041622Y-100832257D01*
X33045200Y-100822999D01*
X33045200Y-99769548D01*
X33553200Y-99769548D01*
X33553200Y-100821941D01*
X33557351Y-100836079D01*
X33567998Y-100837774D01*
X33571392Y-100837096D01*
X33782533Y-100775954D01*
X33792459Y-100772143D01*
X33990265Y-100676307D01*
X33999412Y-100670876D01*
X34178241Y-100543083D01*
X34186349Y-100536182D01*
X34341093Y-100380082D01*
X34347906Y-100371933D01*
X34474140Y-100191988D01*
X34479495Y-100182787D01*
X34573599Y-99984156D01*
X34577323Y-99974197D01*
X34635168Y-99767718D01*
X34633630Y-99759351D01*
X34621337Y-99756000D01*
X33571315Y-99756000D01*
X33556076Y-99760475D01*
X33554871Y-99761865D01*
X33553200Y-99769548D01*
X33045200Y-99769548D01*
X33045200Y-98185717D01*
X33044528Y-98183430D01*
X33553200Y-98183430D01*
X33553200Y-99229885D01*
X33557675Y-99245124D01*
X33559065Y-99246329D01*
X33566748Y-99248000D01*
X34618279Y-99248000D01*
X34631810Y-99244027D01*
X34633076Y-99235218D01*
X34586154Y-99054433D01*
X34582619Y-99044395D01*
X34492347Y-98843998D01*
X34487167Y-98834692D01*
X34364418Y-98652366D01*
X34357757Y-98644080D01*
X34206030Y-98485030D01*
X34198073Y-98477990D01*
X34021723Y-98346782D01*
X34012686Y-98341178D01*
X33816750Y-98241559D01*
X33806899Y-98237559D01*
X33596978Y-98172378D01*
X33586596Y-98170095D01*
X33571159Y-98168049D01*
X33556992Y-98170246D01*
X33553200Y-98183430D01*
X33044528Y-98183430D01*
X33041227Y-98172186D01*
X33030620Y-98170661D01*
X32912754Y-98195391D01*
X32902558Y-98198451D01*
X32698132Y-98279182D01*
X32688596Y-98283916D01*
X32500686Y-98397942D01*
X32492096Y-98404206D01*
X32326084Y-98548264D01*
X32318664Y-98555895D01*
X32179300Y-98725860D01*
X32173279Y-98734622D01*
X32139627Y-98793739D01*
X32088544Y-98843045D01*
X32018914Y-98856906D01*
X31952843Y-98830922D01*
X31925605Y-98801773D01*
X31874497Y-98725860D01*
X31821827Y-98647626D01*
X31662682Y-98480799D01*
X31477704Y-98343171D01*
X31472947Y-98340752D01*
X31472943Y-98340750D01*
X31461594Y-98334980D01*
X31409937Y-98286276D01*
X31392700Y-98222664D01*
X31392700Y-90650948D01*
X31702800Y-90650948D01*
X31702800Y-91422623D01*
X31703224Y-91429924D01*
X31717417Y-91551655D01*
X31720763Y-91565810D01*
X31776063Y-91718161D01*
X31782573Y-91731160D01*
X31871441Y-91866706D01*
X31880765Y-91877858D01*
X31998429Y-91989322D01*
X32010076Y-91998035D01*
X32150229Y-92079443D01*
X32163554Y-92085237D01*
X32319500Y-92132468D01*
X32332123Y-92134916D01*
X32401984Y-92141151D01*
X32407579Y-92141400D01*
X33938685Y-92141400D01*
X33953924Y-92136925D01*
X33955129Y-92135535D01*
X33956800Y-92127852D01*
X33956800Y-90655515D01*
X33955459Y-90650948D01*
X34464800Y-90650948D01*
X34464800Y-92123285D01*
X34469275Y-92138524D01*
X34470665Y-92139729D01*
X34478348Y-92141400D01*
X36000023Y-92141400D01*
X36007324Y-92140976D01*
X36129055Y-92126783D01*
X36143210Y-92123437D01*
X36295561Y-92068137D01*
X36308560Y-92061627D01*
X36444106Y-91972759D01*
X36455258Y-91963435D01*
X36566722Y-91845771D01*
X36575435Y-91834124D01*
X36656843Y-91693971D01*
X36662637Y-91680646D01*
X36709868Y-91524700D01*
X36712316Y-91512077D01*
X36718551Y-91442216D01*
X36718800Y-91436621D01*
X36718800Y-90655515D01*
X36714325Y-90640276D01*
X36712935Y-90639071D01*
X36705252Y-90637400D01*
X34482915Y-90637400D01*
X34467676Y-90641875D01*
X34466471Y-90643265D01*
X34464800Y-90650948D01*
X33955459Y-90650948D01*
X33952325Y-90640276D01*
X33950935Y-90639071D01*
X33943252Y-90637400D01*
X31720915Y-90637400D01*
X31705676Y-90641875D01*
X31704471Y-90643265D01*
X31702800Y-90650948D01*
X31392700Y-90650948D01*
X31392700Y-89330179D01*
X31702800Y-89330179D01*
X31702800Y-90111285D01*
X31707275Y-90126524D01*
X31708665Y-90127729D01*
X31716348Y-90129400D01*
X33938685Y-90129400D01*
X33953924Y-90124925D01*
X33955129Y-90123535D01*
X33956800Y-90115852D01*
X33956800Y-88643515D01*
X33955459Y-88638948D01*
X34464800Y-88638948D01*
X34464800Y-90111285D01*
X34469275Y-90126524D01*
X34470665Y-90127729D01*
X34478348Y-90129400D01*
X36700685Y-90129400D01*
X36715924Y-90124925D01*
X36717129Y-90123535D01*
X36718800Y-90115852D01*
X36718800Y-89344177D01*
X36718376Y-89336876D01*
X36704183Y-89215145D01*
X36700837Y-89200990D01*
X36645537Y-89048639D01*
X36639027Y-89035640D01*
X36550159Y-88900094D01*
X36540835Y-88888942D01*
X36423171Y-88777478D01*
X36411524Y-88768765D01*
X36271371Y-88687357D01*
X36258046Y-88681563D01*
X36102100Y-88634332D01*
X36089477Y-88631884D01*
X36019616Y-88625649D01*
X36014021Y-88625400D01*
X34482915Y-88625400D01*
X34467676Y-88629875D01*
X34466471Y-88631265D01*
X34464800Y-88638948D01*
X33955459Y-88638948D01*
X33952325Y-88628276D01*
X33950935Y-88627071D01*
X33943252Y-88625400D01*
X32421577Y-88625400D01*
X32414276Y-88625824D01*
X32292545Y-88640017D01*
X32278390Y-88643363D01*
X32126039Y-88698663D01*
X32113040Y-88705173D01*
X31977494Y-88794041D01*
X31966342Y-88803365D01*
X31854878Y-88921029D01*
X31846165Y-88932676D01*
X31764757Y-89072829D01*
X31758963Y-89086154D01*
X31711732Y-89242100D01*
X31709284Y-89254723D01*
X31703049Y-89324584D01*
X31702800Y-89330179D01*
X31392700Y-89330179D01*
X31392700Y-88600194D01*
X31412702Y-88532073D01*
X31429605Y-88511099D01*
X35314513Y-84626191D01*
X35322601Y-84618831D01*
X35328995Y-84614773D01*
X35374870Y-84565921D01*
X35377624Y-84563080D01*
X35397938Y-84542766D01*
X35400583Y-84539355D01*
X35408289Y-84530333D01*
X35433133Y-84503877D01*
X35438557Y-84498101D01*
X35442376Y-84491155D01*
X35448318Y-84480347D01*
X35459172Y-84463823D01*
X35466725Y-84454086D01*
X35466725Y-84454085D01*
X35471583Y-84447823D01*
X35489142Y-84407247D01*
X35494363Y-84396590D01*
X35515662Y-84357848D01*
X35517635Y-84350164D01*
X35520699Y-84338232D01*
X35527103Y-84319528D01*
X35531999Y-84308215D01*
X35532001Y-84308208D01*
X35535148Y-84300936D01*
X35542065Y-84257265D01*
X35544472Y-84245644D01*
X35553987Y-84208582D01*
X35553987Y-84208581D01*
X35555465Y-84202825D01*
X35555500Y-84202269D01*
X35555500Y-84182348D01*
X35557051Y-84162638D01*
X35558944Y-84150686D01*
X35558944Y-84150685D01*
X35560184Y-84142856D01*
X35556059Y-84099217D01*
X35555500Y-84087360D01*
X35555500Y-84069485D01*
X35575502Y-84001364D01*
X35593849Y-83980007D01*
X35593846Y-83980004D01*
X35593990Y-83979843D01*
X35594005Y-83979826D01*
X35607638Y-83964524D01*
X35702836Y-83857677D01*
X35702838Y-83857675D01*
X35707890Y-83852004D01*
X35711442Y-83845295D01*
X35711445Y-83845291D01*
X35784555Y-83707211D01*
X35784556Y-83707208D01*
X35788110Y-83700496D01*
X35829874Y-83534225D01*
X35830309Y-83527309D01*
X35830375Y-83526270D01*
X35830376Y-83526254D01*
X35830500Y-83524275D01*
X35830500Y-82853483D01*
X35814904Y-82724606D01*
X35754306Y-82564238D01*
X35739352Y-82542480D01*
X35661506Y-82429213D01*
X35661505Y-82429211D01*
X35657204Y-82422954D01*
X35650653Y-82417117D01*
X35534877Y-82313964D01*
X35534875Y-82313962D01*
X35529204Y-82308910D01*
X35522495Y-82305358D01*
X35522491Y-82305355D01*
X35384411Y-82232245D01*
X35384408Y-82232244D01*
X35377696Y-82228690D01*
X35211425Y-82186926D01*
X35205662Y-82186563D01*
X35205659Y-82186563D01*
X35203470Y-82186425D01*
X35203454Y-82186424D01*
X35201475Y-82186300D01*
X34680683Y-82186300D01*
X34551806Y-82201896D01*
X34391438Y-82262494D01*
X34385180Y-82266795D01*
X34318336Y-82312736D01*
X34250154Y-82359596D01*
X34245102Y-82365266D01*
X34245101Y-82365267D01*
X34193924Y-82422707D01*
X34133674Y-82460263D01*
X34062684Y-82459283D01*
X34007782Y-82423796D01*
X34007204Y-82422954D01*
X34000653Y-82417117D01*
X33884877Y-82313964D01*
X33884875Y-82313962D01*
X33879204Y-82308910D01*
X33872495Y-82305358D01*
X33872491Y-82305355D01*
X33734411Y-82232245D01*
X33734408Y-82232244D01*
X33727696Y-82228690D01*
X33561425Y-82186926D01*
X33555662Y-82186563D01*
X33555659Y-82186563D01*
X33553470Y-82186425D01*
X33553454Y-82186424D01*
X33551475Y-82186300D01*
X33172594Y-82186300D01*
X33104473Y-82166298D01*
X33083499Y-82149395D01*
X28177154Y-77243050D01*
X28143128Y-77180738D01*
X28144542Y-77121344D01*
X28160121Y-77063202D01*
X28160121Y-77063200D01*
X28161545Y-77057887D01*
X28181500Y-76829800D01*
X28161545Y-76601713D01*
X28102286Y-76380557D01*
X28099963Y-76375575D01*
X28007850Y-76178037D01*
X28007847Y-76178032D01*
X28005524Y-76173050D01*
X27874199Y-75985498D01*
X27712302Y-75823601D01*
X27707794Y-75820444D01*
X27707791Y-75820442D01*
X27529259Y-75695433D01*
X27529257Y-75695432D01*
X27524750Y-75692276D01*
X27519768Y-75689953D01*
X27519763Y-75689950D01*
X27485546Y-75673995D01*
X27432261Y-75627078D01*
X27412800Y-75558801D01*
X27433342Y-75490841D01*
X27485546Y-75445605D01*
X27519763Y-75429650D01*
X27519768Y-75429647D01*
X27524750Y-75427324D01*
X27529259Y-75424167D01*
X27707791Y-75299158D01*
X27707794Y-75299156D01*
X27712302Y-75295999D01*
X27874199Y-75134102D01*
X28005524Y-74946550D01*
X28007847Y-74941568D01*
X28007850Y-74941563D01*
X28099963Y-74744025D01*
X28099964Y-74744024D01*
X28102286Y-74739043D01*
X28161545Y-74517887D01*
X28181500Y-74289800D01*
X28161545Y-74061713D01*
X28144542Y-73998256D01*
X28146232Y-73927279D01*
X28177154Y-73876550D01*
X30196913Y-71856791D01*
X30205001Y-71849431D01*
X30211395Y-71845373D01*
X30257270Y-71796521D01*
X30260024Y-71793680D01*
X30280338Y-71773366D01*
X30282983Y-71769955D01*
X30290689Y-71760933D01*
X30315533Y-71734477D01*
X30320957Y-71728701D01*
X30324776Y-71721755D01*
X30330718Y-71710947D01*
X30341572Y-71694423D01*
X30349125Y-71684686D01*
X30349125Y-71684685D01*
X30353983Y-71678423D01*
X30371542Y-71637847D01*
X30376763Y-71627190D01*
X30398062Y-71588448D01*
X30400035Y-71580764D01*
X30403099Y-71568832D01*
X30409503Y-71550128D01*
X30414398Y-71538817D01*
X30414400Y-71538810D01*
X30417548Y-71531536D01*
X30424465Y-71487862D01*
X30426873Y-71476237D01*
X30436387Y-71439182D01*
X30436387Y-71439180D01*
X30437865Y-71433425D01*
X30437900Y-71432869D01*
X30437900Y-71412953D01*
X30439451Y-71393243D01*
X30441345Y-71381284D01*
X30442585Y-71373455D01*
X30438459Y-71329806D01*
X30437900Y-71317949D01*
X30437900Y-64129800D01*
X33174500Y-64129800D01*
X33194455Y-64357887D01*
X33253714Y-64579043D01*
X33256036Y-64584024D01*
X33256037Y-64584025D01*
X33348150Y-64781563D01*
X33348153Y-64781568D01*
X33350476Y-64786550D01*
X33481801Y-64974102D01*
X33643698Y-65135999D01*
X33648206Y-65139156D01*
X33648209Y-65139158D01*
X33826123Y-65263734D01*
X33831250Y-65267324D01*
X33836232Y-65269647D01*
X33836237Y-65269650D01*
X33870454Y-65285605D01*
X33923739Y-65332522D01*
X33943200Y-65400799D01*
X33922658Y-65468759D01*
X33870454Y-65513995D01*
X33836237Y-65529950D01*
X33836232Y-65529953D01*
X33831250Y-65532276D01*
X33826743Y-65535432D01*
X33826741Y-65535433D01*
X33648209Y-65660442D01*
X33648206Y-65660444D01*
X33643698Y-65663601D01*
X33481801Y-65825498D01*
X33350476Y-66013050D01*
X33348153Y-66018032D01*
X33348150Y-66018037D01*
X33256037Y-66215575D01*
X33253714Y-66220557D01*
X33194455Y-66441713D01*
X33174500Y-66669800D01*
X33194455Y-66897887D01*
X33253714Y-67119043D01*
X33256036Y-67124024D01*
X33256037Y-67124025D01*
X33348150Y-67321563D01*
X33348153Y-67321568D01*
X33350476Y-67326550D01*
X33481801Y-67514102D01*
X33643698Y-67675999D01*
X33648206Y-67679156D01*
X33648209Y-67679158D01*
X33826741Y-67804167D01*
X33831250Y-67807324D01*
X33836232Y-67809647D01*
X33836237Y-67809650D01*
X33870454Y-67825605D01*
X33923739Y-67872522D01*
X33943200Y-67940799D01*
X33922658Y-68008759D01*
X33870454Y-68053995D01*
X33836237Y-68069950D01*
X33836232Y-68069953D01*
X33831250Y-68072276D01*
X33826743Y-68075432D01*
X33826741Y-68075433D01*
X33648209Y-68200442D01*
X33648206Y-68200444D01*
X33643698Y-68203601D01*
X33481801Y-68365498D01*
X33350476Y-68553050D01*
X33348153Y-68558032D01*
X33348150Y-68558037D01*
X33256037Y-68755575D01*
X33253714Y-68760557D01*
X33194455Y-68981713D01*
X33174500Y-69209800D01*
X33194455Y-69437887D01*
X33253714Y-69659043D01*
X33256036Y-69664024D01*
X33256037Y-69664025D01*
X33348150Y-69861563D01*
X33348153Y-69861568D01*
X33350476Y-69866550D01*
X33481801Y-70054102D01*
X33643698Y-70215999D01*
X33648206Y-70219156D01*
X33648209Y-70219158D01*
X33826741Y-70344167D01*
X33831250Y-70347324D01*
X33836232Y-70349647D01*
X33836237Y-70349650D01*
X33870454Y-70365605D01*
X33923739Y-70412522D01*
X33943200Y-70480799D01*
X33922658Y-70548759D01*
X33870454Y-70593995D01*
X33836237Y-70609950D01*
X33836232Y-70609953D01*
X33831250Y-70612276D01*
X33826743Y-70615432D01*
X33826741Y-70615433D01*
X33648209Y-70740442D01*
X33648206Y-70740444D01*
X33643698Y-70743601D01*
X33481801Y-70905498D01*
X33350476Y-71093050D01*
X33348153Y-71098032D01*
X33348150Y-71098037D01*
X33256037Y-71295575D01*
X33253714Y-71300557D01*
X33252292Y-71305865D01*
X33252291Y-71305867D01*
X33223597Y-71412953D01*
X33194455Y-71521713D01*
X33174500Y-71749800D01*
X33194455Y-71977887D01*
X33253714Y-72199043D01*
X33256036Y-72204024D01*
X33256037Y-72204025D01*
X33348150Y-72401563D01*
X33348153Y-72401568D01*
X33350476Y-72406550D01*
X33481801Y-72594102D01*
X33643698Y-72755999D01*
X33648206Y-72759156D01*
X33648209Y-72759158D01*
X33826741Y-72884167D01*
X33831250Y-72887324D01*
X33836232Y-72889647D01*
X33836237Y-72889650D01*
X33870454Y-72905605D01*
X33923739Y-72952522D01*
X33943200Y-73020799D01*
X33922658Y-73088759D01*
X33870454Y-73133995D01*
X33836237Y-73149950D01*
X33836232Y-73149953D01*
X33831250Y-73152276D01*
X33826743Y-73155432D01*
X33826741Y-73155433D01*
X33648209Y-73280442D01*
X33648206Y-73280444D01*
X33643698Y-73283601D01*
X33481801Y-73445498D01*
X33350476Y-73633050D01*
X33348153Y-73638032D01*
X33348150Y-73638037D01*
X33256037Y-73835575D01*
X33253714Y-73840557D01*
X33252292Y-73845865D01*
X33252291Y-73845867D01*
X33230477Y-73927279D01*
X33194455Y-74061713D01*
X33174500Y-74289800D01*
X33194455Y-74517887D01*
X33253714Y-74739043D01*
X33256036Y-74744024D01*
X33256037Y-74744025D01*
X33348150Y-74941563D01*
X33348153Y-74941568D01*
X33350476Y-74946550D01*
X33481801Y-75134102D01*
X33643698Y-75295999D01*
X33648206Y-75299156D01*
X33648209Y-75299158D01*
X33826741Y-75424167D01*
X33831250Y-75427324D01*
X33836232Y-75429647D01*
X33836237Y-75429650D01*
X33870454Y-75445605D01*
X33923739Y-75492522D01*
X33943200Y-75560799D01*
X33922658Y-75628759D01*
X33870454Y-75673995D01*
X33836237Y-75689950D01*
X33836232Y-75689953D01*
X33831250Y-75692276D01*
X33826743Y-75695432D01*
X33826741Y-75695433D01*
X33648209Y-75820442D01*
X33648206Y-75820444D01*
X33643698Y-75823601D01*
X33481801Y-75985498D01*
X33350476Y-76173050D01*
X33348153Y-76178032D01*
X33348150Y-76178037D01*
X33256037Y-76375575D01*
X33253714Y-76380557D01*
X33194455Y-76601713D01*
X33174500Y-76829800D01*
X33194455Y-77057887D01*
X33195879Y-77063200D01*
X33195879Y-77063202D01*
X33244070Y-77243050D01*
X33253714Y-77279043D01*
X33256036Y-77284024D01*
X33256037Y-77284025D01*
X33348150Y-77481563D01*
X33348153Y-77481568D01*
X33350476Y-77486550D01*
X33481801Y-77674102D01*
X33643698Y-77835999D01*
X33648206Y-77839156D01*
X33648209Y-77839158D01*
X33826741Y-77964167D01*
X33831250Y-77967324D01*
X33836232Y-77969647D01*
X33836237Y-77969650D01*
X33870454Y-77985605D01*
X33923739Y-78032522D01*
X33943200Y-78100799D01*
X33922658Y-78168759D01*
X33870454Y-78213995D01*
X33836237Y-78229950D01*
X33836232Y-78229953D01*
X33831250Y-78232276D01*
X33826743Y-78235432D01*
X33826741Y-78235433D01*
X33648209Y-78360442D01*
X33648206Y-78360444D01*
X33643698Y-78363601D01*
X33481801Y-78525498D01*
X33350476Y-78713050D01*
X33348153Y-78718032D01*
X33348150Y-78718037D01*
X33256037Y-78915575D01*
X33253714Y-78920557D01*
X33194455Y-79141713D01*
X33174500Y-79369800D01*
X33194455Y-79597887D01*
X33253714Y-79819043D01*
X33256036Y-79824024D01*
X33256037Y-79824025D01*
X33348150Y-80021563D01*
X33348153Y-80021568D01*
X33350476Y-80026550D01*
X33481801Y-80214102D01*
X33643698Y-80375999D01*
X33648206Y-80379156D01*
X33648209Y-80379158D01*
X33826741Y-80504167D01*
X33831250Y-80507324D01*
X33836232Y-80509647D01*
X33836237Y-80509650D01*
X34033775Y-80601763D01*
X34038757Y-80604086D01*
X34044065Y-80605508D01*
X34044067Y-80605509D01*
X34254598Y-80661921D01*
X34254600Y-80661921D01*
X34259913Y-80663345D01*
X34488000Y-80683300D01*
X34716087Y-80663345D01*
X34721400Y-80661921D01*
X34721402Y-80661921D01*
X34931933Y-80605509D01*
X34931935Y-80605508D01*
X34937243Y-80604086D01*
X34942225Y-80601763D01*
X35139763Y-80509650D01*
X35139768Y-80509647D01*
X35144750Y-80507324D01*
X35149259Y-80504167D01*
X35327791Y-80379158D01*
X35327794Y-80379156D01*
X35332302Y-80375999D01*
X35494199Y-80214102D01*
X35625524Y-80026550D01*
X35627847Y-80021568D01*
X35627850Y-80021563D01*
X35719963Y-79824025D01*
X35719964Y-79824024D01*
X35722286Y-79819043D01*
X35781545Y-79597887D01*
X35801500Y-79369800D01*
X35781545Y-79141713D01*
X35722286Y-78920557D01*
X35719963Y-78915575D01*
X35627850Y-78718037D01*
X35627847Y-78718032D01*
X35625524Y-78713050D01*
X35494199Y-78525498D01*
X35332302Y-78363601D01*
X35327794Y-78360444D01*
X35327791Y-78360442D01*
X35149259Y-78235433D01*
X35149257Y-78235432D01*
X35144750Y-78232276D01*
X35139768Y-78229953D01*
X35139763Y-78229950D01*
X35105546Y-78213995D01*
X35052261Y-78167078D01*
X35032800Y-78098801D01*
X35053342Y-78030841D01*
X35105546Y-77985605D01*
X35139763Y-77969650D01*
X35139768Y-77969647D01*
X35144750Y-77967324D01*
X35149259Y-77964167D01*
X35327791Y-77839158D01*
X35327794Y-77839156D01*
X35332302Y-77835999D01*
X35494199Y-77674102D01*
X35625524Y-77486550D01*
X35627847Y-77481568D01*
X35627850Y-77481563D01*
X35719963Y-77284025D01*
X35719964Y-77284024D01*
X35722286Y-77279043D01*
X35731931Y-77243050D01*
X35780121Y-77063202D01*
X35780121Y-77063200D01*
X35781545Y-77057887D01*
X35801500Y-76829800D01*
X35781545Y-76601713D01*
X35722286Y-76380557D01*
X35719963Y-76375575D01*
X35627850Y-76178037D01*
X35627847Y-76178032D01*
X35625524Y-76173050D01*
X35494199Y-75985498D01*
X35332302Y-75823601D01*
X35327794Y-75820444D01*
X35327791Y-75820442D01*
X35149259Y-75695433D01*
X35149257Y-75695432D01*
X35144750Y-75692276D01*
X35139768Y-75689953D01*
X35139763Y-75689950D01*
X35105546Y-75673995D01*
X35052261Y-75627078D01*
X35032800Y-75558801D01*
X35053342Y-75490841D01*
X35105546Y-75445605D01*
X35139763Y-75429650D01*
X35139768Y-75429647D01*
X35144750Y-75427324D01*
X35149259Y-75424167D01*
X35327791Y-75299158D01*
X35327794Y-75299156D01*
X35332302Y-75295999D01*
X35494199Y-75134102D01*
X35625524Y-74946550D01*
X35627847Y-74941568D01*
X35627850Y-74941563D01*
X35719963Y-74744025D01*
X35719964Y-74744024D01*
X35722286Y-74739043D01*
X35781545Y-74517887D01*
X35801500Y-74289800D01*
X35781545Y-74061713D01*
X35745523Y-73927279D01*
X35723709Y-73845867D01*
X35723708Y-73845865D01*
X35722286Y-73840557D01*
X35719963Y-73835575D01*
X35627850Y-73638037D01*
X35627847Y-73638032D01*
X35625524Y-73633050D01*
X35494199Y-73445498D01*
X35332302Y-73283601D01*
X35327794Y-73280444D01*
X35327791Y-73280442D01*
X35149259Y-73155433D01*
X35149257Y-73155432D01*
X35144750Y-73152276D01*
X35139768Y-73149953D01*
X35139763Y-73149950D01*
X35105546Y-73133995D01*
X35052261Y-73087078D01*
X35032800Y-73018801D01*
X35053342Y-72950841D01*
X35105546Y-72905605D01*
X35139763Y-72889650D01*
X35139768Y-72889647D01*
X35144750Y-72887324D01*
X35149259Y-72884167D01*
X35327791Y-72759158D01*
X35327794Y-72759156D01*
X35332302Y-72755999D01*
X35494199Y-72594102D01*
X35625524Y-72406550D01*
X35627847Y-72401568D01*
X35627850Y-72401563D01*
X35719963Y-72204025D01*
X35719964Y-72204024D01*
X35722286Y-72199043D01*
X35781545Y-71977887D01*
X35801500Y-71749800D01*
X35781545Y-71521713D01*
X35752403Y-71412953D01*
X35723709Y-71305867D01*
X35723708Y-71305865D01*
X35722286Y-71300557D01*
X35719963Y-71295575D01*
X35627850Y-71098037D01*
X35627847Y-71098032D01*
X35625524Y-71093050D01*
X35494199Y-70905498D01*
X35332302Y-70743601D01*
X35327794Y-70740444D01*
X35327791Y-70740442D01*
X35149259Y-70615433D01*
X35149257Y-70615432D01*
X35144750Y-70612276D01*
X35139768Y-70609953D01*
X35139763Y-70609950D01*
X35105546Y-70593995D01*
X35052261Y-70547078D01*
X35032800Y-70478801D01*
X35053342Y-70410841D01*
X35105546Y-70365605D01*
X35139763Y-70349650D01*
X35139768Y-70349647D01*
X35144750Y-70347324D01*
X35149259Y-70344167D01*
X35327791Y-70219158D01*
X35327794Y-70219156D01*
X35332302Y-70215999D01*
X35494199Y-70054102D01*
X35625524Y-69866550D01*
X35627847Y-69861568D01*
X35627850Y-69861563D01*
X35719963Y-69664025D01*
X35719964Y-69664024D01*
X35722286Y-69659043D01*
X35781545Y-69437887D01*
X35801500Y-69209800D01*
X35781545Y-68981713D01*
X35722286Y-68760557D01*
X35719963Y-68755575D01*
X35627850Y-68558037D01*
X35627847Y-68558032D01*
X35625524Y-68553050D01*
X35494199Y-68365498D01*
X35332302Y-68203601D01*
X35327794Y-68200444D01*
X35327791Y-68200442D01*
X35149259Y-68075433D01*
X35149257Y-68075432D01*
X35144750Y-68072276D01*
X35139768Y-68069953D01*
X35139763Y-68069950D01*
X35105546Y-68053995D01*
X35052261Y-68007078D01*
X35032800Y-67938801D01*
X35053342Y-67870841D01*
X35105546Y-67825605D01*
X35139763Y-67809650D01*
X35139768Y-67809647D01*
X35144750Y-67807324D01*
X35149259Y-67804167D01*
X35327791Y-67679158D01*
X35327794Y-67679156D01*
X35332302Y-67675999D01*
X35494199Y-67514102D01*
X35625524Y-67326550D01*
X35627847Y-67321568D01*
X35627850Y-67321563D01*
X35719963Y-67124025D01*
X35719964Y-67124024D01*
X35722286Y-67119043D01*
X35781545Y-66897887D01*
X35801500Y-66669800D01*
X35781545Y-66441713D01*
X35722286Y-66220557D01*
X35719963Y-66215575D01*
X35627850Y-66018037D01*
X35627847Y-66018032D01*
X35625524Y-66013050D01*
X35494199Y-65825498D01*
X35332302Y-65663601D01*
X35327794Y-65660444D01*
X35327791Y-65660442D01*
X35149259Y-65535433D01*
X35149257Y-65535432D01*
X35144750Y-65532276D01*
X35139768Y-65529953D01*
X35139763Y-65529950D01*
X35105546Y-65513995D01*
X35052261Y-65467078D01*
X35032800Y-65398801D01*
X35053342Y-65330841D01*
X35105546Y-65285605D01*
X35139763Y-65269650D01*
X35139768Y-65269647D01*
X35144750Y-65267324D01*
X35149877Y-65263734D01*
X35327791Y-65139158D01*
X35327794Y-65139156D01*
X35332302Y-65135999D01*
X35494199Y-64974102D01*
X35625524Y-64786550D01*
X35627847Y-64781568D01*
X35627850Y-64781563D01*
X35719963Y-64584025D01*
X35719964Y-64584024D01*
X35722286Y-64579043D01*
X35781545Y-64357887D01*
X35801500Y-64129800D01*
X35781545Y-63901713D01*
X35722286Y-63680557D01*
X35719963Y-63675575D01*
X35627850Y-63478037D01*
X35627847Y-63478032D01*
X35625524Y-63473050D01*
X35494199Y-63285498D01*
X35332302Y-63123601D01*
X35327794Y-63120444D01*
X35327791Y-63120442D01*
X35149259Y-62995433D01*
X35149257Y-62995432D01*
X35144750Y-62992276D01*
X35106136Y-62974270D01*
X35104957Y-62973720D01*
X35051672Y-62926802D01*
X35032211Y-62858525D01*
X35052753Y-62790565D01*
X35104958Y-62745330D01*
X35139509Y-62729219D01*
X35149009Y-62723734D01*
X35327469Y-62598775D01*
X35335877Y-62591719D01*
X35489919Y-62437677D01*
X35496975Y-62429269D01*
X35621934Y-62250809D01*
X35627417Y-62241313D01*
X35719491Y-62043857D01*
X35723239Y-62033561D01*
X35769398Y-61861297D01*
X35769062Y-61847201D01*
X35761120Y-61843800D01*
X33220029Y-61843800D01*
X33206498Y-61847773D01*
X33205269Y-61856322D01*
X33252761Y-62033561D01*
X33256509Y-62043857D01*
X33348583Y-62241313D01*
X33354066Y-62250809D01*
X33479025Y-62429269D01*
X33486081Y-62437677D01*
X33640123Y-62591719D01*
X33648531Y-62598775D01*
X33826991Y-62723734D01*
X33836491Y-62729219D01*
X33871042Y-62745330D01*
X33924328Y-62792247D01*
X33943789Y-62860524D01*
X33923247Y-62928484D01*
X33871043Y-62973720D01*
X33869864Y-62974270D01*
X33831250Y-62992276D01*
X33826743Y-62995432D01*
X33826741Y-62995433D01*
X33648209Y-63120442D01*
X33648206Y-63120444D01*
X33643698Y-63123601D01*
X33481801Y-63285498D01*
X33350476Y-63473050D01*
X33348153Y-63478032D01*
X33348150Y-63478037D01*
X33256037Y-63675575D01*
X33253714Y-63680557D01*
X33194455Y-63901713D01*
X33174500Y-64129800D01*
X30437900Y-64129800D01*
X30437900Y-46349800D01*
X33174500Y-46349800D01*
X33194455Y-46577887D01*
X33253714Y-46799043D01*
X33256036Y-46804024D01*
X33256037Y-46804025D01*
X33348150Y-47001563D01*
X33348153Y-47001568D01*
X33350476Y-47006550D01*
X33353632Y-47011057D01*
X33353633Y-47011059D01*
X33447632Y-47145303D01*
X33481801Y-47194102D01*
X33643698Y-47355999D01*
X33648206Y-47359156D01*
X33648209Y-47359158D01*
X33755425Y-47434231D01*
X33831250Y-47487324D01*
X33836232Y-47489647D01*
X33836237Y-47489650D01*
X33870454Y-47505605D01*
X33923739Y-47552522D01*
X33943200Y-47620799D01*
X33922658Y-47688759D01*
X33870454Y-47733995D01*
X33836237Y-47749950D01*
X33836232Y-47749953D01*
X33831250Y-47752276D01*
X33826743Y-47755432D01*
X33826741Y-47755433D01*
X33648209Y-47880442D01*
X33648206Y-47880444D01*
X33643698Y-47883601D01*
X33481801Y-48045498D01*
X33350476Y-48233050D01*
X33348153Y-48238032D01*
X33348150Y-48238037D01*
X33256037Y-48435575D01*
X33253714Y-48440557D01*
X33194455Y-48661713D01*
X33174500Y-48889800D01*
X33194455Y-49117887D01*
X33253714Y-49339043D01*
X33256036Y-49344024D01*
X33256037Y-49344025D01*
X33348150Y-49541563D01*
X33348153Y-49541568D01*
X33350476Y-49546550D01*
X33481801Y-49734102D01*
X33643698Y-49895999D01*
X33648206Y-49899156D01*
X33648209Y-49899158D01*
X33826741Y-50024167D01*
X33831250Y-50027324D01*
X33836232Y-50029647D01*
X33836237Y-50029650D01*
X33870454Y-50045605D01*
X33923739Y-50092522D01*
X33943200Y-50160799D01*
X33922658Y-50228759D01*
X33870454Y-50273995D01*
X33836237Y-50289950D01*
X33836232Y-50289953D01*
X33831250Y-50292276D01*
X33826743Y-50295432D01*
X33826741Y-50295433D01*
X33648209Y-50420442D01*
X33648206Y-50420444D01*
X33643698Y-50423601D01*
X33481801Y-50585498D01*
X33350476Y-50773050D01*
X33348153Y-50778032D01*
X33348150Y-50778037D01*
X33256037Y-50975575D01*
X33253714Y-50980557D01*
X33194455Y-51201713D01*
X33174500Y-51429800D01*
X33194455Y-51657887D01*
X33253714Y-51879043D01*
X33256036Y-51884024D01*
X33256037Y-51884025D01*
X33348150Y-52081563D01*
X33348153Y-52081568D01*
X33350476Y-52086550D01*
X33481801Y-52274102D01*
X33643698Y-52435999D01*
X33648206Y-52439156D01*
X33648209Y-52439158D01*
X33826741Y-52564167D01*
X33831250Y-52567324D01*
X33836232Y-52569647D01*
X33836237Y-52569650D01*
X33870454Y-52585605D01*
X33923739Y-52632522D01*
X33943200Y-52700799D01*
X33922658Y-52768759D01*
X33870454Y-52813995D01*
X33836237Y-52829950D01*
X33836232Y-52829953D01*
X33831250Y-52832276D01*
X33826743Y-52835432D01*
X33826741Y-52835433D01*
X33648209Y-52960442D01*
X33648206Y-52960444D01*
X33643698Y-52963601D01*
X33481801Y-53125498D01*
X33350476Y-53313050D01*
X33348153Y-53318032D01*
X33348150Y-53318037D01*
X33256037Y-53515575D01*
X33253714Y-53520557D01*
X33194455Y-53741713D01*
X33174500Y-53969800D01*
X33194455Y-54197887D01*
X33253714Y-54419043D01*
X33256036Y-54424024D01*
X33256037Y-54424025D01*
X33348150Y-54621563D01*
X33348153Y-54621568D01*
X33350476Y-54626550D01*
X33481801Y-54814102D01*
X33643698Y-54975999D01*
X33648206Y-54979156D01*
X33648209Y-54979158D01*
X33824796Y-55102805D01*
X33831250Y-55107324D01*
X33836232Y-55109647D01*
X33836237Y-55109650D01*
X33870454Y-55125605D01*
X33923739Y-55172522D01*
X33943200Y-55240799D01*
X33922658Y-55308759D01*
X33870454Y-55353995D01*
X33836237Y-55369950D01*
X33836232Y-55369953D01*
X33831250Y-55372276D01*
X33826743Y-55375432D01*
X33826741Y-55375433D01*
X33648209Y-55500442D01*
X33648206Y-55500444D01*
X33643698Y-55503601D01*
X33481801Y-55665498D01*
X33350476Y-55853050D01*
X33348153Y-55858032D01*
X33348150Y-55858037D01*
X33256037Y-56055575D01*
X33253714Y-56060557D01*
X33194455Y-56281713D01*
X33174500Y-56509800D01*
X33194455Y-56737887D01*
X33253714Y-56959043D01*
X33256036Y-56964024D01*
X33256037Y-56964025D01*
X33348150Y-57161563D01*
X33348153Y-57161568D01*
X33350476Y-57166550D01*
X33481801Y-57354102D01*
X33643698Y-57515999D01*
X33648206Y-57519156D01*
X33648209Y-57519158D01*
X33826741Y-57644167D01*
X33831250Y-57647324D01*
X33836232Y-57649647D01*
X33836237Y-57649650D01*
X33870454Y-57665605D01*
X33923739Y-57712522D01*
X33943200Y-57780799D01*
X33922658Y-57848759D01*
X33870454Y-57893995D01*
X33836237Y-57909950D01*
X33836232Y-57909953D01*
X33831250Y-57912276D01*
X33826743Y-57915432D01*
X33826741Y-57915433D01*
X33648209Y-58040442D01*
X33648206Y-58040444D01*
X33643698Y-58043601D01*
X33481801Y-58205498D01*
X33350476Y-58393050D01*
X33348153Y-58398032D01*
X33348150Y-58398037D01*
X33256037Y-58595575D01*
X33253714Y-58600557D01*
X33194455Y-58821713D01*
X33174500Y-59049800D01*
X33194455Y-59277887D01*
X33253714Y-59499043D01*
X33256036Y-59504024D01*
X33256037Y-59504025D01*
X33348150Y-59701563D01*
X33348153Y-59701568D01*
X33350476Y-59706550D01*
X33481801Y-59894102D01*
X33643698Y-60055999D01*
X33648206Y-60059156D01*
X33648209Y-60059158D01*
X33826741Y-60184167D01*
X33831250Y-60187324D01*
X33836237Y-60189650D01*
X33836238Y-60189650D01*
X33871043Y-60205880D01*
X33924328Y-60252798D01*
X33943789Y-60321075D01*
X33923247Y-60389035D01*
X33871042Y-60434270D01*
X33836491Y-60450381D01*
X33826991Y-60455866D01*
X33648531Y-60580825D01*
X33640123Y-60587881D01*
X33486081Y-60741923D01*
X33479025Y-60750331D01*
X33354066Y-60928791D01*
X33348583Y-60938287D01*
X33256509Y-61135743D01*
X33252761Y-61146039D01*
X33206602Y-61318303D01*
X33206938Y-61332399D01*
X33214880Y-61335800D01*
X35755971Y-61335800D01*
X35769502Y-61331827D01*
X35770731Y-61323278D01*
X35723239Y-61146039D01*
X35719491Y-61135743D01*
X35627417Y-60938287D01*
X35621934Y-60928791D01*
X35496975Y-60750331D01*
X35489919Y-60741923D01*
X35335877Y-60587881D01*
X35327469Y-60580825D01*
X35149009Y-60455866D01*
X35139509Y-60450381D01*
X35104958Y-60434270D01*
X35051672Y-60387353D01*
X35032211Y-60319076D01*
X35052753Y-60251116D01*
X35104957Y-60205880D01*
X35139762Y-60189650D01*
X35139763Y-60189650D01*
X35144750Y-60187324D01*
X35149259Y-60184167D01*
X35327791Y-60059158D01*
X35327794Y-60059156D01*
X35332302Y-60055999D01*
X35494199Y-59894102D01*
X35625524Y-59706550D01*
X35627847Y-59701568D01*
X35627850Y-59701563D01*
X35719963Y-59504025D01*
X35719964Y-59504024D01*
X35722286Y-59499043D01*
X35781545Y-59277887D01*
X35801500Y-59049800D01*
X35781545Y-58821713D01*
X35722286Y-58600557D01*
X35719963Y-58595575D01*
X35627850Y-58398037D01*
X35627847Y-58398032D01*
X35625524Y-58393050D01*
X35494199Y-58205498D01*
X35332302Y-58043601D01*
X35327794Y-58040444D01*
X35327791Y-58040442D01*
X35149259Y-57915433D01*
X35149257Y-57915432D01*
X35144750Y-57912276D01*
X35139768Y-57909953D01*
X35139763Y-57909950D01*
X35105546Y-57893995D01*
X35052261Y-57847078D01*
X35032800Y-57778801D01*
X35053342Y-57710841D01*
X35105546Y-57665605D01*
X35139763Y-57649650D01*
X35139768Y-57649647D01*
X35144750Y-57647324D01*
X35149259Y-57644167D01*
X35327791Y-57519158D01*
X35327794Y-57519156D01*
X35332302Y-57515999D01*
X35494199Y-57354102D01*
X35625524Y-57166550D01*
X35627847Y-57161568D01*
X35627850Y-57161563D01*
X35719963Y-56964025D01*
X35719964Y-56964024D01*
X35722286Y-56959043D01*
X35781545Y-56737887D01*
X35801500Y-56509800D01*
X35781545Y-56281713D01*
X35722286Y-56060557D01*
X35719963Y-56055575D01*
X35627850Y-55858037D01*
X35627847Y-55858032D01*
X35625524Y-55853050D01*
X35494199Y-55665498D01*
X35332302Y-55503601D01*
X35327794Y-55500444D01*
X35327791Y-55500442D01*
X35149259Y-55375433D01*
X35149257Y-55375432D01*
X35144750Y-55372276D01*
X35139768Y-55369953D01*
X35139763Y-55369950D01*
X35105546Y-55353995D01*
X35052261Y-55307078D01*
X35032800Y-55238801D01*
X35053342Y-55170841D01*
X35105546Y-55125605D01*
X35139763Y-55109650D01*
X35139768Y-55109647D01*
X35144750Y-55107324D01*
X35151204Y-55102805D01*
X35327791Y-54979158D01*
X35327794Y-54979156D01*
X35332302Y-54975999D01*
X35494199Y-54814102D01*
X35625524Y-54626550D01*
X35627847Y-54621568D01*
X35627850Y-54621563D01*
X35719963Y-54424025D01*
X35719964Y-54424024D01*
X35722286Y-54419043D01*
X35781545Y-54197887D01*
X35801500Y-53969800D01*
X35781545Y-53741713D01*
X35722286Y-53520557D01*
X35719963Y-53515575D01*
X35627850Y-53318037D01*
X35627847Y-53318032D01*
X35625524Y-53313050D01*
X35494199Y-53125498D01*
X35332302Y-52963601D01*
X35327794Y-52960444D01*
X35327791Y-52960442D01*
X35149259Y-52835433D01*
X35149257Y-52835432D01*
X35144750Y-52832276D01*
X35139768Y-52829953D01*
X35139763Y-52829950D01*
X35105546Y-52813995D01*
X35052261Y-52767078D01*
X35032800Y-52698801D01*
X35053342Y-52630841D01*
X35105546Y-52585605D01*
X35139763Y-52569650D01*
X35139768Y-52569647D01*
X35144750Y-52567324D01*
X35149259Y-52564167D01*
X35327791Y-52439158D01*
X35327794Y-52439156D01*
X35332302Y-52435999D01*
X35494199Y-52274102D01*
X35625524Y-52086550D01*
X35627847Y-52081568D01*
X35627850Y-52081563D01*
X35719963Y-51884025D01*
X35719964Y-51884024D01*
X35722286Y-51879043D01*
X35781545Y-51657887D01*
X35801500Y-51429800D01*
X35781545Y-51201713D01*
X35722286Y-50980557D01*
X35719963Y-50975575D01*
X35627850Y-50778037D01*
X35627847Y-50778032D01*
X35625524Y-50773050D01*
X35494199Y-50585498D01*
X35332302Y-50423601D01*
X35327794Y-50420444D01*
X35327791Y-50420442D01*
X35149259Y-50295433D01*
X35149257Y-50295432D01*
X35144750Y-50292276D01*
X35139768Y-50289953D01*
X35139763Y-50289950D01*
X35105546Y-50273995D01*
X35052261Y-50227078D01*
X35032800Y-50158801D01*
X35053342Y-50090841D01*
X35105546Y-50045605D01*
X35139763Y-50029650D01*
X35139768Y-50029647D01*
X35144750Y-50027324D01*
X35149259Y-50024167D01*
X35327791Y-49899158D01*
X35327794Y-49899156D01*
X35332302Y-49895999D01*
X35494199Y-49734102D01*
X35625524Y-49546550D01*
X35627847Y-49541568D01*
X35627850Y-49541563D01*
X35719963Y-49344025D01*
X35719964Y-49344024D01*
X35722286Y-49339043D01*
X35781545Y-49117887D01*
X35801500Y-48889800D01*
X35781545Y-48661713D01*
X35722286Y-48440557D01*
X35719963Y-48435575D01*
X35627850Y-48238037D01*
X35627847Y-48238032D01*
X35625524Y-48233050D01*
X35494199Y-48045498D01*
X35332302Y-47883601D01*
X35327794Y-47880444D01*
X35327791Y-47880442D01*
X35149259Y-47755433D01*
X35149257Y-47755432D01*
X35144750Y-47752276D01*
X35139768Y-47749953D01*
X35139763Y-47749950D01*
X35105546Y-47733995D01*
X35052261Y-47687078D01*
X35032800Y-47618801D01*
X35053342Y-47550841D01*
X35105546Y-47505605D01*
X35139763Y-47489650D01*
X35139768Y-47489647D01*
X35144750Y-47487324D01*
X35220575Y-47434231D01*
X35327791Y-47359158D01*
X35327794Y-47359156D01*
X35332302Y-47355999D01*
X35494199Y-47194102D01*
X35528369Y-47145303D01*
X35622367Y-47011059D01*
X35622368Y-47011057D01*
X35625524Y-47006550D01*
X35627847Y-47001568D01*
X35627850Y-47001563D01*
X35719963Y-46804025D01*
X35719964Y-46804024D01*
X35722286Y-46799043D01*
X35781545Y-46577887D01*
X35801500Y-46349800D01*
X35781545Y-46121713D01*
X35722286Y-45900557D01*
X35719963Y-45895575D01*
X35627850Y-45698037D01*
X35627847Y-45698032D01*
X35625524Y-45693050D01*
X35494199Y-45505498D01*
X35332302Y-45343601D01*
X35327794Y-45340444D01*
X35327791Y-45340442D01*
X35149259Y-45215433D01*
X35149257Y-45215432D01*
X35144750Y-45212276D01*
X35139768Y-45209953D01*
X35139763Y-45209950D01*
X34942225Y-45117837D01*
X34942224Y-45117836D01*
X34937243Y-45115514D01*
X34931935Y-45114092D01*
X34931933Y-45114091D01*
X34721402Y-45057679D01*
X34721400Y-45057679D01*
X34716087Y-45056255D01*
X34488000Y-45036300D01*
X34259913Y-45056255D01*
X34254600Y-45057679D01*
X34254598Y-45057679D01*
X34044067Y-45114091D01*
X34044065Y-45114092D01*
X34038757Y-45115514D01*
X34033776Y-45117836D01*
X34033775Y-45117837D01*
X33836237Y-45209950D01*
X33836232Y-45209953D01*
X33831250Y-45212276D01*
X33826743Y-45215432D01*
X33826741Y-45215433D01*
X33648209Y-45340442D01*
X33648206Y-45340444D01*
X33643698Y-45343601D01*
X33481801Y-45505498D01*
X33350476Y-45693050D01*
X33348153Y-45698032D01*
X33348150Y-45698037D01*
X33256037Y-45895575D01*
X33253714Y-45900557D01*
X33194455Y-46121713D01*
X33174500Y-46349800D01*
X30437900Y-46349800D01*
X30437900Y-43292925D01*
X32668300Y-43292925D01*
X32668300Y-43963717D01*
X32683896Y-44092594D01*
X32744494Y-44252962D01*
X32841596Y-44394246D01*
X32847266Y-44399298D01*
X32847267Y-44399299D01*
X32963923Y-44503236D01*
X32963925Y-44503238D01*
X32969596Y-44508290D01*
X32976305Y-44511842D01*
X32976309Y-44511845D01*
X33114389Y-44584955D01*
X33114392Y-44584956D01*
X33121104Y-44588510D01*
X33287375Y-44630274D01*
X33293138Y-44630637D01*
X33293141Y-44630637D01*
X33295330Y-44630775D01*
X33295346Y-44630776D01*
X33297325Y-44630900D01*
X33818117Y-44630900D01*
X33946994Y-44615304D01*
X34107362Y-44554706D01*
X34148694Y-44526299D01*
X34242387Y-44461906D01*
X34242389Y-44461905D01*
X34248646Y-44457604D01*
X34305211Y-44394117D01*
X34365461Y-44356561D01*
X34436451Y-44357541D01*
X34493799Y-44394609D01*
X34497641Y-44398967D01*
X34614209Y-44502826D01*
X34626595Y-44511434D01*
X34764570Y-44584488D01*
X34778650Y-44589893D01*
X34931840Y-44628372D01*
X34943200Y-44630141D01*
X34945327Y-44630274D01*
X34949318Y-44630400D01*
X34954685Y-44630400D01*
X34969924Y-44625925D01*
X34971129Y-44624535D01*
X34972800Y-44616852D01*
X34972800Y-43914948D01*
X35480800Y-43914948D01*
X35480800Y-44610750D01*
X35484905Y-44624732D01*
X35498071Y-44626775D01*
X35589334Y-44615731D01*
X35603977Y-44612135D01*
X35750027Y-44556947D01*
X35763388Y-44549962D01*
X35892056Y-44461531D01*
X35903368Y-44451558D01*
X36007226Y-44334991D01*
X36015834Y-44322605D01*
X36088888Y-44184630D01*
X36094293Y-44170550D01*
X36132772Y-44017360D01*
X36134541Y-44006000D01*
X36134674Y-44003873D01*
X36134800Y-43999882D01*
X36134800Y-43919515D01*
X36130325Y-43904276D01*
X36128935Y-43903071D01*
X36121252Y-43901400D01*
X35498915Y-43901400D01*
X35483676Y-43905875D01*
X35482471Y-43907265D01*
X35480800Y-43914948D01*
X34972800Y-43914948D01*
X34972800Y-42684050D01*
X34971009Y-42677948D01*
X35480800Y-42677948D01*
X35480800Y-43375285D01*
X35485275Y-43390524D01*
X35486665Y-43391729D01*
X35494348Y-43393400D01*
X36116685Y-43393400D01*
X36131924Y-43388925D01*
X36133129Y-43387535D01*
X36134800Y-43379852D01*
X36134800Y-43334871D01*
X36134344Y-43327316D01*
X36120131Y-43209866D01*
X36116535Y-43195223D01*
X36061347Y-43049173D01*
X36054362Y-43035812D01*
X35965931Y-42907144D01*
X35955958Y-42895832D01*
X35839391Y-42791974D01*
X35827005Y-42783366D01*
X35689030Y-42710312D01*
X35674950Y-42704907D01*
X35521760Y-42666428D01*
X35510400Y-42664659D01*
X35508273Y-42664526D01*
X35504282Y-42664400D01*
X35498915Y-42664400D01*
X35483676Y-42668875D01*
X35482471Y-42670265D01*
X35480800Y-42677948D01*
X34971009Y-42677948D01*
X34968695Y-42670068D01*
X34955529Y-42668025D01*
X34864266Y-42679069D01*
X34849623Y-42682665D01*
X34703573Y-42737853D01*
X34690212Y-42744838D01*
X34561544Y-42833269D01*
X34550232Y-42843242D01*
X34499055Y-42900682D01*
X34438805Y-42938238D01*
X34367815Y-42937258D01*
X34312782Y-42901687D01*
X34312004Y-42900554D01*
X34252481Y-42847521D01*
X34214925Y-42787271D01*
X34210300Y-42753445D01*
X34210300Y-38210627D01*
X34230302Y-38142506D01*
X34283958Y-38096013D01*
X34354232Y-38085909D01*
X34363350Y-38087565D01*
X34366769Y-38088317D01*
X34371598Y-38089793D01*
X34376605Y-38090479D01*
X34376610Y-38090480D01*
X34562021Y-38115878D01*
X34612114Y-38122740D01*
X34681458Y-38121045D01*
X34849743Y-38116933D01*
X34849747Y-38116933D01*
X34854804Y-38116809D01*
X35093423Y-38072152D01*
X35117228Y-38063582D01*
X35294649Y-37999707D01*
X35321834Y-37989920D01*
X35534158Y-37872226D01*
X35538136Y-37869096D01*
X35538140Y-37869093D01*
X35720958Y-37725229D01*
X35720959Y-37725228D01*
X35724934Y-37722100D01*
X35742025Y-37703514D01*
X35885831Y-37547127D01*
X35885834Y-37547123D01*
X35889254Y-37543404D01*
X36022890Y-37340734D01*
X36037318Y-37308630D01*
X36120330Y-37123922D01*
X36120332Y-37123916D01*
X36122404Y-37119306D01*
X36164546Y-36962028D01*
X36183927Y-36889698D01*
X36183927Y-36889697D01*
X36185235Y-36884816D01*
X36209768Y-36643296D01*
X36210100Y-36611600D01*
X36190631Y-36369620D01*
X36158843Y-36240200D01*
X36133931Y-36138779D01*
X36132724Y-36133865D01*
X36080341Y-36010457D01*
X36039845Y-35915056D01*
X36039845Y-35915055D01*
X36037869Y-35910401D01*
X35908507Y-35704978D01*
X35747965Y-35522879D01*
X35560375Y-35368791D01*
X35350562Y-35246676D01*
X35345835Y-35244862D01*
X35345832Y-35244860D01*
X35128648Y-35161491D01*
X35128644Y-35161490D01*
X35123924Y-35159678D01*
X35118974Y-35158644D01*
X35118971Y-35158643D01*
X34891243Y-35111068D01*
X34891239Y-35111068D01*
X34886292Y-35110034D01*
X34643780Y-35099022D01*
X34638760Y-35099603D01*
X34638756Y-35099603D01*
X34407656Y-35126342D01*
X34402626Y-35126924D01*
X34397755Y-35128302D01*
X34397752Y-35128303D01*
X34325170Y-35148842D01*
X34169036Y-35193024D01*
X34070240Y-35239093D01*
X33953601Y-35293482D01*
X33953597Y-35293484D01*
X33949019Y-35295619D01*
X33748235Y-35432072D01*
X33744551Y-35435556D01*
X33581336Y-35589901D01*
X33571850Y-35598871D01*
X33568772Y-35602897D01*
X33568771Y-35602898D01*
X33427475Y-35787705D01*
X33427472Y-35787709D01*
X33424402Y-35791725D01*
X33309685Y-36005672D01*
X33308039Y-36010453D01*
X33308037Y-36010457D01*
X33265544Y-36133865D01*
X33230649Y-36235208D01*
X33189329Y-36474428D01*
X33186787Y-36717176D01*
X33223088Y-36957209D01*
X33224634Y-36962025D01*
X33224635Y-36962028D01*
X33255961Y-37059595D01*
X33257741Y-37130569D01*
X33225088Y-37187208D01*
X33184287Y-37228009D01*
X33176199Y-37235369D01*
X33169805Y-37239427D01*
X33164380Y-37245204D01*
X33123931Y-37288278D01*
X33121176Y-37291120D01*
X33100862Y-37311434D01*
X33098217Y-37314845D01*
X33090513Y-37323865D01*
X33060243Y-37356099D01*
X33056426Y-37363043D01*
X33056424Y-37363045D01*
X33050482Y-37373853D01*
X33039628Y-37390377D01*
X33027217Y-37406377D01*
X33024070Y-37413648D01*
X33024070Y-37413649D01*
X33009659Y-37446951D01*
X33004438Y-37457607D01*
X32983138Y-37496352D01*
X32981166Y-37504035D01*
X32981165Y-37504036D01*
X32978101Y-37515968D01*
X32971697Y-37534672D01*
X32966801Y-37545985D01*
X32966799Y-37545992D01*
X32963652Y-37553264D01*
X32962413Y-37561088D01*
X32962412Y-37561091D01*
X32956735Y-37596935D01*
X32954328Y-37608556D01*
X32944813Y-37645618D01*
X32943335Y-37651375D01*
X32943300Y-37651931D01*
X32943300Y-37671852D01*
X32941749Y-37691562D01*
X32938616Y-37711344D01*
X32939362Y-37719236D01*
X32942741Y-37754982D01*
X32943300Y-37766840D01*
X32943300Y-42747715D01*
X32923298Y-42815836D01*
X32904951Y-42837193D01*
X32904954Y-42837196D01*
X32904810Y-42837357D01*
X32904795Y-42837374D01*
X32899903Y-42842865D01*
X32899902Y-42842866D01*
X32814929Y-42938238D01*
X32790910Y-42965196D01*
X32787358Y-42971905D01*
X32787355Y-42971909D01*
X32737940Y-43065238D01*
X32710690Y-43116704D01*
X32668926Y-43282975D01*
X32668563Y-43288738D01*
X32668563Y-43288741D01*
X32668425Y-43290930D01*
X32668424Y-43290946D01*
X32668300Y-43292925D01*
X30437900Y-43292925D01*
X30437900Y-39397783D01*
X30438414Y-39386879D01*
X30440066Y-39379488D01*
X30437962Y-39312546D01*
X30437900Y-39308589D01*
X30437900Y-39279822D01*
X30437360Y-39275548D01*
X30436426Y-39263696D01*
X30435287Y-39227443D01*
X30435038Y-39219517D01*
X30429386Y-39200061D01*
X30425381Y-39180721D01*
X30422840Y-39160612D01*
X30419921Y-39153240D01*
X30419920Y-39153235D01*
X30406564Y-39119501D01*
X30402719Y-39108272D01*
X30392597Y-39073431D01*
X30392597Y-39073430D01*
X30390386Y-39065821D01*
X30380076Y-39048388D01*
X30371382Y-39030641D01*
X30363922Y-39011800D01*
X30337933Y-38976029D01*
X30331417Y-38966110D01*
X30311943Y-38933182D01*
X30308913Y-38928058D01*
X30308545Y-38927641D01*
X30294462Y-38913558D01*
X30281628Y-38898533D01*
X30269846Y-38882317D01*
X30236064Y-38854370D01*
X30227285Y-38846381D01*
X28647005Y-37266101D01*
X28612979Y-37203789D01*
X28610100Y-37177006D01*
X28610100Y-35676481D01*
X28630102Y-35608360D01*
X28634804Y-35602333D01*
X28634472Y-35602092D01*
X28639132Y-35595678D01*
X28644557Y-35589901D01*
X28648376Y-35582955D01*
X28654318Y-35572147D01*
X28665172Y-35555623D01*
X28672725Y-35545886D01*
X28672725Y-35545885D01*
X28677583Y-35539623D01*
X28683188Y-35526672D01*
X28695141Y-35499049D01*
X28700363Y-35488390D01*
X28721662Y-35449648D01*
X28723635Y-35441964D01*
X28726699Y-35430032D01*
X28733103Y-35411328D01*
X28737999Y-35400015D01*
X28738001Y-35400008D01*
X28741148Y-35392736D01*
X28744432Y-35372006D01*
X28748065Y-35349065D01*
X28750472Y-35337444D01*
X28759987Y-35300382D01*
X28759987Y-35300381D01*
X28761465Y-35294625D01*
X28761500Y-35294069D01*
X28761500Y-35274148D01*
X28763051Y-35254438D01*
X28764944Y-35242486D01*
X28764944Y-35242485D01*
X28766184Y-35234656D01*
X28762059Y-35191017D01*
X28761500Y-35179160D01*
X28761500Y-33360400D01*
X31557900Y-33360400D01*
X31577862Y-33550327D01*
X31636876Y-33731954D01*
X31732363Y-33897342D01*
X31860149Y-34039263D01*
X31865491Y-34043144D01*
X31865493Y-34043146D01*
X32009308Y-34147633D01*
X32014650Y-34151514D01*
X32020678Y-34154198D01*
X32020680Y-34154199D01*
X32183082Y-34226505D01*
X32189113Y-34229190D01*
X32282513Y-34249043D01*
X32369456Y-34267524D01*
X32369461Y-34267524D01*
X32375913Y-34268896D01*
X32566887Y-34268896D01*
X32573339Y-34267524D01*
X32573344Y-34267524D01*
X32660287Y-34249043D01*
X32753687Y-34229190D01*
X32759718Y-34226505D01*
X32922120Y-34154199D01*
X32922122Y-34154198D01*
X32928150Y-34151514D01*
X32933492Y-34147633D01*
X33077307Y-34043146D01*
X33077309Y-34043144D01*
X33082651Y-34039263D01*
X33210437Y-33897342D01*
X33305924Y-33731954D01*
X33364938Y-33550327D01*
X33384900Y-33360400D01*
X33364938Y-33170473D01*
X33305924Y-32988846D01*
X33210437Y-32823458D01*
X33137264Y-32742191D01*
X33106546Y-32678184D01*
X33104900Y-32657881D01*
X33104900Y-31508383D01*
X33105414Y-31497479D01*
X33107066Y-31490088D01*
X33104962Y-31423134D01*
X33104900Y-31419176D01*
X33104900Y-31390422D01*
X33104361Y-31386155D01*
X33103427Y-31374305D01*
X33102288Y-31338040D01*
X33102039Y-31330117D01*
X33096388Y-31310666D01*
X33092378Y-31291304D01*
X33090833Y-31279070D01*
X33090832Y-31279067D01*
X33089840Y-31271212D01*
X33086924Y-31263847D01*
X33086923Y-31263843D01*
X33073563Y-31230099D01*
X33069718Y-31218870D01*
X33059597Y-31184034D01*
X33057386Y-31176422D01*
X33053348Y-31169594D01*
X33047077Y-31158989D01*
X33038391Y-31141263D01*
X33037559Y-31139163D01*
X33028700Y-31092753D01*
X33028700Y-29545294D01*
X33048702Y-29477173D01*
X33102358Y-29430680D01*
X33172632Y-29420576D01*
X33237212Y-29450070D01*
X33265563Y-29487942D01*
X33265604Y-29487916D01*
X33270475Y-29495495D01*
X33339751Y-29603291D01*
X33339753Y-29603294D01*
X33344623Y-29610871D01*
X33351433Y-29616772D01*
X33448269Y-29700682D01*
X33448272Y-29700684D01*
X33455081Y-29706584D01*
X33588030Y-29767300D01*
X33596945Y-29768582D01*
X33596946Y-29768582D01*
X33728252Y-29787461D01*
X33728259Y-29787462D01*
X33732700Y-29788100D01*
X35332700Y-29788100D01*
X35405779Y-29782873D01*
X35494501Y-29756822D01*
X35537370Y-29744235D01*
X35537372Y-29744234D01*
X35546016Y-29741696D01*
X35609835Y-29700682D01*
X35661391Y-29667549D01*
X35661394Y-29667547D01*
X35668971Y-29662677D01*
X35708748Y-29616772D01*
X35758782Y-29559031D01*
X35758784Y-29559028D01*
X35764684Y-29552219D01*
X35793789Y-29488489D01*
X35821658Y-29427464D01*
X35821658Y-29427463D01*
X35825400Y-29419270D01*
X35836662Y-29340940D01*
X35845561Y-29279048D01*
X35845562Y-29279041D01*
X35846200Y-29274600D01*
X35846200Y-27874600D01*
X35840973Y-27801521D01*
X35799796Y-27661284D01*
X35754093Y-27590169D01*
X35725649Y-27545909D01*
X35725647Y-27545906D01*
X35720777Y-27538329D01*
X35713967Y-27532428D01*
X35617131Y-27448518D01*
X35617128Y-27448516D01*
X35610319Y-27442616D01*
X35477370Y-27381900D01*
X35468455Y-27380618D01*
X35468454Y-27380618D01*
X35337148Y-27361739D01*
X35337141Y-27361738D01*
X35332700Y-27361100D01*
X33732700Y-27361100D01*
X33659621Y-27366327D01*
X33606584Y-27381900D01*
X33528030Y-27404965D01*
X33528028Y-27404966D01*
X33519384Y-27407504D01*
X33511805Y-27412375D01*
X33404009Y-27481651D01*
X33404006Y-27481653D01*
X33396429Y-27486523D01*
X33390528Y-27493333D01*
X33306618Y-27590169D01*
X33306616Y-27590172D01*
X33300716Y-27596981D01*
X33296972Y-27605179D01*
X33269314Y-27665742D01*
X33222821Y-27719398D01*
X33154700Y-27739400D01*
X33086579Y-27719398D01*
X33040086Y-27665742D01*
X33028700Y-27613400D01*
X33028700Y-26526694D01*
X33048702Y-26458573D01*
X33065605Y-26437599D01*
X34178200Y-25325005D01*
X34240512Y-25290979D01*
X34267295Y-25288100D01*
X35332700Y-25288100D01*
X35405779Y-25282873D01*
X35521056Y-25249025D01*
X35537370Y-25244235D01*
X35537372Y-25244234D01*
X35546016Y-25241696D01*
X35600651Y-25206584D01*
X35661391Y-25167549D01*
X35661394Y-25167547D01*
X35668971Y-25162677D01*
X35708748Y-25116772D01*
X35758782Y-25059031D01*
X35758784Y-25059028D01*
X35764684Y-25052219D01*
X35825400Y-24919270D01*
X35836662Y-24840940D01*
X35845561Y-24779048D01*
X35845562Y-24779041D01*
X35846200Y-24774600D01*
X35846200Y-23374600D01*
X35840973Y-23301521D01*
X35799796Y-23161284D01*
X35754093Y-23090169D01*
X35725649Y-23045909D01*
X35725647Y-23045906D01*
X35720777Y-23038329D01*
X35713967Y-23032428D01*
X35617131Y-22948518D01*
X35617128Y-22948516D01*
X35610319Y-22942616D01*
X35477370Y-22881900D01*
X35468455Y-22880618D01*
X35468454Y-22880618D01*
X35337148Y-22861739D01*
X35337141Y-22861738D01*
X35332700Y-22861100D01*
X33732700Y-22861100D01*
X33659621Y-22866327D01*
X33606584Y-22881900D01*
X33528030Y-22904965D01*
X33528028Y-22904966D01*
X33519384Y-22907504D01*
X33511805Y-22912375D01*
X33404009Y-22981651D01*
X33404006Y-22981653D01*
X33396429Y-22986523D01*
X33390528Y-22993333D01*
X33306618Y-23090169D01*
X33306616Y-23090172D01*
X33300716Y-23096981D01*
X33240000Y-23229930D01*
X33238718Y-23238845D01*
X33238718Y-23238846D01*
X33219839Y-23370152D01*
X33219838Y-23370159D01*
X33219200Y-23374600D01*
X33219200Y-24440006D01*
X33199198Y-24508127D01*
X33182295Y-24529101D01*
X32002687Y-25708709D01*
X31994599Y-25716069D01*
X31988205Y-25720127D01*
X31982780Y-25725904D01*
X31942331Y-25768978D01*
X31939576Y-25771820D01*
X31919262Y-25792134D01*
X31916617Y-25795545D01*
X31908913Y-25804565D01*
X31878643Y-25836799D01*
X31874826Y-25843743D01*
X31874824Y-25843745D01*
X31868882Y-25854553D01*
X31858028Y-25871077D01*
X31845617Y-25887077D01*
X31842470Y-25894348D01*
X31842470Y-25894349D01*
X31828059Y-25927651D01*
X31822838Y-25938307D01*
X31801538Y-25977052D01*
X31799566Y-25984735D01*
X31799565Y-25984736D01*
X31796501Y-25996668D01*
X31790097Y-26015372D01*
X31785201Y-26026685D01*
X31785199Y-26026692D01*
X31782052Y-26033964D01*
X31780813Y-26041788D01*
X31780812Y-26041791D01*
X31775135Y-26077635D01*
X31772728Y-26089256D01*
X31763213Y-26126318D01*
X31761735Y-26132075D01*
X31761700Y-26132631D01*
X31761700Y-26152552D01*
X31760149Y-26172262D01*
X31757016Y-26192044D01*
X31757762Y-26199936D01*
X31761141Y-26235682D01*
X31761700Y-26247540D01*
X31761700Y-31275416D01*
X31761186Y-31286320D01*
X31759534Y-31293711D01*
X31759783Y-31301637D01*
X31759783Y-31301638D01*
X31761638Y-31360666D01*
X31761700Y-31364623D01*
X31761700Y-31393378D01*
X31762196Y-31397303D01*
X31762196Y-31397304D01*
X31762239Y-31397643D01*
X31763172Y-31409487D01*
X31764561Y-31453683D01*
X31766773Y-31461295D01*
X31770212Y-31473133D01*
X31774222Y-31492495D01*
X31776760Y-31512588D01*
X31779676Y-31519953D01*
X31779677Y-31519957D01*
X31793037Y-31553701D01*
X31796881Y-31564928D01*
X31809214Y-31607378D01*
X31813252Y-31614206D01*
X31819523Y-31624811D01*
X31828209Y-31642537D01*
X31829041Y-31644637D01*
X31837900Y-31691047D01*
X31837900Y-32657881D01*
X31817898Y-32726002D01*
X31805536Y-32742191D01*
X31732363Y-32823458D01*
X31636876Y-32988846D01*
X31577862Y-33170473D01*
X31557900Y-33360400D01*
X28761500Y-33360400D01*
X28761500Y-25748284D01*
X28762014Y-25737380D01*
X28763666Y-25729989D01*
X28761562Y-25663034D01*
X28761500Y-25659077D01*
X28761500Y-25630322D01*
X28760961Y-25626055D01*
X28760027Y-25614205D01*
X28758888Y-25577942D01*
X28758639Y-25570017D01*
X28752987Y-25550561D01*
X28748978Y-25531202D01*
X28747434Y-25518979D01*
X28747434Y-25518978D01*
X28746440Y-25511112D01*
X28741230Y-25497954D01*
X28730168Y-25470011D01*
X28726323Y-25458782D01*
X28716199Y-25423935D01*
X28716198Y-25423934D01*
X28713987Y-25416322D01*
X28703674Y-25398883D01*
X28694978Y-25381131D01*
X28690442Y-25369675D01*
X28687522Y-25362300D01*
X28661533Y-25326529D01*
X28655016Y-25316608D01*
X28632514Y-25278559D01*
X28632145Y-25278141D01*
X28618062Y-25264058D01*
X28605228Y-25249033D01*
X28593446Y-25232817D01*
X28559664Y-25204870D01*
X28550885Y-25196881D01*
X27883105Y-24529101D01*
X27849079Y-24466789D01*
X27846200Y-24440006D01*
X27846200Y-23374600D01*
X27840973Y-23301521D01*
X27799796Y-23161284D01*
X27754093Y-23090169D01*
X27725649Y-23045909D01*
X27725647Y-23045906D01*
X27720777Y-23038329D01*
X27713967Y-23032428D01*
X27617131Y-22948518D01*
X27617128Y-22948516D01*
X27610319Y-22942616D01*
X27477370Y-22881900D01*
X27468455Y-22880618D01*
X27468454Y-22880618D01*
X27337148Y-22861739D01*
X27337141Y-22861738D01*
X27332700Y-22861100D01*
X25732700Y-22861100D01*
X25659621Y-22866327D01*
X25606584Y-22881900D01*
X25528030Y-22904965D01*
X25528028Y-22904966D01*
X25519384Y-22907504D01*
X25511805Y-22912375D01*
X25404009Y-22981651D01*
X25404006Y-22981653D01*
X25396429Y-22986523D01*
X25390528Y-22993333D01*
X25306618Y-23090169D01*
X25306616Y-23090172D01*
X25300716Y-23096981D01*
X25240000Y-23229930D01*
X25238718Y-23238845D01*
X25238718Y-23238846D01*
X25219839Y-23370152D01*
X25219838Y-23370159D01*
X25219200Y-23374600D01*
X25219200Y-24774600D01*
X25224427Y-24847679D01*
X25265604Y-24987916D01*
X25270475Y-24995495D01*
X25339751Y-25103291D01*
X25339753Y-25103294D01*
X25344623Y-25110871D01*
X25351433Y-25116772D01*
X25448269Y-25200682D01*
X25448272Y-25200684D01*
X25455081Y-25206584D01*
X25463279Y-25210328D01*
X25501459Y-25227764D01*
X25588030Y-25267300D01*
X25596945Y-25268582D01*
X25596946Y-25268582D01*
X25728252Y-25287461D01*
X25728259Y-25287462D01*
X25732700Y-25288100D01*
X26798106Y-25288100D01*
X26866227Y-25308102D01*
X26887201Y-25325005D01*
X27457595Y-25895399D01*
X27491621Y-25957711D01*
X27494500Y-25984494D01*
X27494500Y-27238951D01*
X27474498Y-27307072D01*
X27420842Y-27353565D01*
X27350570Y-27363669D01*
X27342870Y-27362562D01*
X27332700Y-27361100D01*
X25732700Y-27361100D01*
X25659621Y-27366327D01*
X25606584Y-27381900D01*
X25528030Y-27404965D01*
X25528028Y-27404966D01*
X25519384Y-27407504D01*
X25511805Y-27412375D01*
X25404009Y-27481651D01*
X25404006Y-27481653D01*
X25396429Y-27486523D01*
X25390528Y-27493333D01*
X25306618Y-27590169D01*
X25306616Y-27590172D01*
X25300716Y-27596981D01*
X25240000Y-27729930D01*
X25238718Y-27738845D01*
X25238718Y-27738846D01*
X25219839Y-27870152D01*
X25219838Y-27870159D01*
X25219200Y-27874600D01*
X25219200Y-29274600D01*
X25224427Y-29347679D01*
X25226331Y-29354162D01*
X25262450Y-29477173D01*
X25265604Y-29487916D01*
X25270475Y-29495495D01*
X25339751Y-29603291D01*
X25339753Y-29603294D01*
X25344623Y-29610871D01*
X25351433Y-29616772D01*
X25448269Y-29700682D01*
X25448272Y-29700684D01*
X25455081Y-29706584D01*
X25588030Y-29767300D01*
X25596945Y-29768582D01*
X25596946Y-29768582D01*
X25728252Y-29787461D01*
X25728259Y-29787462D01*
X25732700Y-29788100D01*
X27332700Y-29788100D01*
X27359511Y-29786182D01*
X27428884Y-29801272D01*
X27479087Y-29851474D01*
X27494500Y-29911861D01*
X27494500Y-34527589D01*
X27474498Y-34595710D01*
X27420842Y-34642203D01*
X27368500Y-34653589D01*
X25843696Y-34653589D01*
X25820088Y-34651357D01*
X25812181Y-34649849D01*
X25756695Y-34653340D01*
X25748783Y-34653589D01*
X25732511Y-34653589D01*
X25716351Y-34655631D01*
X25708506Y-34656372D01*
X25671567Y-34658696D01*
X25660359Y-34659401D01*
X25660358Y-34659401D01*
X25652446Y-34659899D01*
X25644612Y-34662444D01*
X25621474Y-34667616D01*
X25613301Y-34668649D01*
X25605929Y-34671568D01*
X25605928Y-34671568D01*
X25561075Y-34689326D01*
X25553628Y-34692007D01*
X25544824Y-34694868D01*
X25500229Y-34709357D01*
X25493281Y-34713767D01*
X25472140Y-34724538D01*
X25464489Y-34727567D01*
X25458078Y-34732225D01*
X25458076Y-34732226D01*
X25419058Y-34760575D01*
X25412510Y-34765024D01*
X25371793Y-34790863D01*
X25371784Y-34790870D01*
X25365094Y-34795116D01*
X25359666Y-34800896D01*
X25359665Y-34800897D01*
X25359454Y-34801122D01*
X25341667Y-34816803D01*
X25341422Y-34816981D01*
X25341420Y-34816983D01*
X25335006Y-34821643D01*
X25329956Y-34827747D01*
X25329951Y-34827752D01*
X25299208Y-34864915D01*
X25293997Y-34870827D01*
X25255532Y-34911788D01*
X25251560Y-34919012D01*
X25238239Y-34938614D01*
X25232986Y-34944964D01*
X25229612Y-34952135D01*
X25209074Y-34995780D01*
X25205492Y-35002810D01*
X25178427Y-35052041D01*
X25176454Y-35059724D01*
X25176453Y-35059727D01*
X25176376Y-35060026D01*
X25168350Y-35082321D01*
X25164839Y-35089782D01*
X25163033Y-35099252D01*
X25154315Y-35144953D01*
X25152591Y-35152667D01*
X25138624Y-35207064D01*
X25138589Y-35207620D01*
X25138589Y-35215482D01*
X25136357Y-35239090D01*
X25134849Y-35246997D01*
X25136557Y-35274148D01*
X25138340Y-35302483D01*
X25138589Y-35310395D01*
X25138589Y-37864504D01*
X25136357Y-37888112D01*
X25134849Y-37896019D01*
X25135347Y-37903930D01*
X25138340Y-37951505D01*
X25138589Y-37959417D01*
X25138589Y-37975689D01*
X25140631Y-37991849D01*
X25141372Y-37999694D01*
X25144899Y-38055754D01*
X25147444Y-38063588D01*
X25152616Y-38086726D01*
X25153649Y-38094899D01*
X25156568Y-38102271D01*
X25156568Y-38102272D01*
X25174326Y-38147125D01*
X25177007Y-38154572D01*
X25194357Y-38207971D01*
X25198767Y-38214919D01*
X25209538Y-38236060D01*
X25212567Y-38243711D01*
X25217225Y-38250122D01*
X25217226Y-38250124D01*
X25245575Y-38289142D01*
X25250024Y-38295690D01*
X25275863Y-38336407D01*
X25275870Y-38336416D01*
X25280116Y-38343106D01*
X25285896Y-38348534D01*
X25285897Y-38348535D01*
X25286122Y-38348746D01*
X25301803Y-38366533D01*
X25306643Y-38373194D01*
X25312747Y-38378244D01*
X25312752Y-38378249D01*
X25349915Y-38408992D01*
X25355827Y-38414203D01*
X25396788Y-38452668D01*
X25404012Y-38456640D01*
X25423614Y-38469961D01*
X25429964Y-38475214D01*
X25480788Y-38499130D01*
X25487810Y-38502708D01*
X25537041Y-38529773D01*
X25544724Y-38531746D01*
X25544727Y-38531747D01*
X25545026Y-38531824D01*
X25567321Y-38539850D01*
X25574782Y-38543361D01*
X25629958Y-38553886D01*
X25637667Y-38555609D01*
X25692064Y-38569576D01*
X25692620Y-38569611D01*
X25700482Y-38569611D01*
X25724090Y-38571843D01*
X25731997Y-38573351D01*
X25787484Y-38569860D01*
X25795395Y-38569611D01*
X27234348Y-38569611D01*
X27302469Y-38589613D01*
X27348962Y-38643269D01*
X27359066Y-38713543D01*
X27329572Y-38778123D01*
X27308409Y-38797547D01*
X27166493Y-38900654D01*
X27166491Y-38900656D01*
X27161149Y-38904537D01*
X27156728Y-38909447D01*
X27156727Y-38909448D01*
X27047615Y-39030630D01*
X27033363Y-39046458D01*
X26937876Y-39211846D01*
X26878862Y-39393473D01*
X26878172Y-39400036D01*
X26878172Y-39400037D01*
X26861497Y-39558690D01*
X26834484Y-39624346D01*
X26825282Y-39634614D01*
X26084487Y-40375409D01*
X26076399Y-40382769D01*
X26070005Y-40386827D01*
X26064580Y-40392604D01*
X26024131Y-40435678D01*
X26021376Y-40438520D01*
X26001062Y-40458834D01*
X25998417Y-40462245D01*
X25990713Y-40471265D01*
X25960443Y-40503499D01*
X25956626Y-40510443D01*
X25956624Y-40510445D01*
X25950682Y-40521253D01*
X25939828Y-40537777D01*
X25927417Y-40553777D01*
X25924270Y-40561048D01*
X25924270Y-40561049D01*
X25909859Y-40594351D01*
X25904638Y-40605007D01*
X25883338Y-40643752D01*
X25881366Y-40651435D01*
X25881365Y-40651436D01*
X25878301Y-40663368D01*
X25871897Y-40682072D01*
X25867001Y-40693385D01*
X25866999Y-40693392D01*
X25863852Y-40700664D01*
X25862613Y-40708488D01*
X25862612Y-40708491D01*
X25856935Y-40744335D01*
X25854528Y-40755956D01*
X25845013Y-40793018D01*
X25843535Y-40798775D01*
X25843500Y-40799331D01*
X25843500Y-40819252D01*
X25841949Y-40838962D01*
X25838816Y-40858744D01*
X25839562Y-40866636D01*
X25842941Y-40902382D01*
X25843500Y-40914240D01*
X25843500Y-42874715D01*
X25823498Y-42942836D01*
X25805151Y-42964193D01*
X25805154Y-42964196D01*
X25805010Y-42964357D01*
X25804995Y-42964374D01*
X25800103Y-42969865D01*
X25800102Y-42969866D01*
X25715129Y-43065238D01*
X25691110Y-43092196D01*
X25687558Y-43098905D01*
X25687555Y-43098909D01*
X25632862Y-43202206D01*
X25610890Y-43243704D01*
X25569126Y-43409975D01*
X25568763Y-43415738D01*
X25568763Y-43415741D01*
X25568625Y-43417930D01*
X25568624Y-43417946D01*
X25568500Y-43419925D01*
X25568500Y-44090717D01*
X25584096Y-44219594D01*
X25644694Y-44379962D01*
X25648995Y-44386220D01*
X25732892Y-44508290D01*
X25741796Y-44521246D01*
X25747466Y-44526298D01*
X25747467Y-44526299D01*
X25864123Y-44630236D01*
X25864125Y-44630238D01*
X25869796Y-44635290D01*
X25876505Y-44638842D01*
X25876509Y-44638845D01*
X26014589Y-44711955D01*
X26014592Y-44711956D01*
X26021304Y-44715510D01*
X26187575Y-44757274D01*
X26193338Y-44757637D01*
X26193341Y-44757637D01*
X26195530Y-44757775D01*
X26195546Y-44757776D01*
X26197525Y-44757900D01*
X26718317Y-44757900D01*
X26847194Y-44742304D01*
X27007562Y-44681706D01*
X27082451Y-44630236D01*
X27142587Y-44588906D01*
X27142589Y-44588905D01*
X27148846Y-44584604D01*
X27205411Y-44521117D01*
X27265661Y-44483561D01*
X27336651Y-44484541D01*
X27393999Y-44521609D01*
X27397841Y-44525967D01*
X27514409Y-44629826D01*
X27526795Y-44638434D01*
X27664770Y-44711488D01*
X27678850Y-44716893D01*
X27832040Y-44755372D01*
X27843400Y-44757141D01*
X27845527Y-44757274D01*
X27849518Y-44757400D01*
X27854885Y-44757400D01*
X27870124Y-44752925D01*
X27871329Y-44751535D01*
X27873000Y-44743852D01*
X27873000Y-42811050D01*
X27868895Y-42797068D01*
X27855729Y-42795025D01*
X27764466Y-42806069D01*
X27749823Y-42809665D01*
X27603773Y-42864853D01*
X27590412Y-42871838D01*
X27461744Y-42960269D01*
X27450432Y-42970242D01*
X27399255Y-43027682D01*
X27339005Y-43065238D01*
X27268015Y-43064258D01*
X27212982Y-43028687D01*
X27212204Y-43027554D01*
X27152681Y-42974521D01*
X27115125Y-42914271D01*
X27110500Y-42880445D01*
X27110500Y-41193394D01*
X27130502Y-41125273D01*
X27147405Y-41104299D01*
X27722903Y-40528801D01*
X27785215Y-40494775D01*
X27811998Y-40491896D01*
X27867887Y-40491896D01*
X27874339Y-40490524D01*
X27874344Y-40490524D01*
X27964938Y-40471267D01*
X28054687Y-40452190D01*
X28060718Y-40449505D01*
X28223120Y-40377199D01*
X28223122Y-40377198D01*
X28229150Y-40374514D01*
X28234492Y-40370633D01*
X28378307Y-40266146D01*
X28378309Y-40266144D01*
X28383651Y-40262263D01*
X28501744Y-40131107D01*
X28562190Y-40093867D01*
X28633173Y-40095219D01*
X28692158Y-40134732D01*
X28720416Y-40199863D01*
X28721380Y-40215417D01*
X28721380Y-42707074D01*
X28701378Y-42775195D01*
X28647722Y-42821688D01*
X28577448Y-42831792D01*
X28564684Y-42829278D01*
X28421960Y-42793428D01*
X28410600Y-42791659D01*
X28408473Y-42791526D01*
X28404482Y-42791400D01*
X28399115Y-42791400D01*
X28383876Y-42795875D01*
X28382671Y-42797265D01*
X28381000Y-42804948D01*
X28381000Y-44737750D01*
X28385105Y-44751732D01*
X28398271Y-44753775D01*
X28489534Y-44742731D01*
X28504180Y-44739134D01*
X28550843Y-44721502D01*
X28621636Y-44716134D01*
X28684093Y-44749892D01*
X28718385Y-44812058D01*
X28721380Y-44839368D01*
X28721380Y-53708326D01*
X28701378Y-53776447D01*
X28684475Y-53797421D01*
X28394591Y-54087305D01*
X28332279Y-54121331D01*
X28261464Y-54116266D01*
X28204628Y-54073719D01*
X28179817Y-54007199D01*
X28179976Y-53987227D01*
X28181021Y-53975285D01*
X28181021Y-53975275D01*
X28181500Y-53969800D01*
X28161545Y-53741713D01*
X28102286Y-53520557D01*
X28099963Y-53515575D01*
X28007850Y-53318037D01*
X28007847Y-53318032D01*
X28005524Y-53313050D01*
X27874199Y-53125498D01*
X27712302Y-52963601D01*
X27707794Y-52960444D01*
X27707791Y-52960442D01*
X27529259Y-52835433D01*
X27529257Y-52835432D01*
X27524750Y-52832276D01*
X27519768Y-52829953D01*
X27519763Y-52829950D01*
X27485546Y-52813995D01*
X27432261Y-52767078D01*
X27412800Y-52698801D01*
X27433342Y-52630841D01*
X27485546Y-52585605D01*
X27519763Y-52569650D01*
X27519768Y-52569647D01*
X27524750Y-52567324D01*
X27529259Y-52564167D01*
X27707791Y-52439158D01*
X27707794Y-52439156D01*
X27712302Y-52435999D01*
X27874199Y-52274102D01*
X28005524Y-52086550D01*
X28007847Y-52081568D01*
X28007850Y-52081563D01*
X28099963Y-51884025D01*
X28099964Y-51884024D01*
X28102286Y-51879043D01*
X28161545Y-51657887D01*
X28181500Y-51429800D01*
X28161545Y-51201713D01*
X28102286Y-50980557D01*
X28099963Y-50975575D01*
X28007850Y-50778037D01*
X28007847Y-50778032D01*
X28005524Y-50773050D01*
X27874199Y-50585498D01*
X27712302Y-50423601D01*
X27707794Y-50420444D01*
X27707791Y-50420442D01*
X27529259Y-50295433D01*
X27529257Y-50295432D01*
X27524750Y-50292276D01*
X27519768Y-50289953D01*
X27519763Y-50289950D01*
X27485546Y-50273995D01*
X27432261Y-50227078D01*
X27412800Y-50158801D01*
X27433342Y-50090841D01*
X27485546Y-50045605D01*
X27519763Y-50029650D01*
X27519768Y-50029647D01*
X27524750Y-50027324D01*
X27529259Y-50024167D01*
X27707791Y-49899158D01*
X27707794Y-49899156D01*
X27712302Y-49895999D01*
X27874199Y-49734102D01*
X28005524Y-49546550D01*
X28007847Y-49541568D01*
X28007850Y-49541563D01*
X28099963Y-49344025D01*
X28099964Y-49344024D01*
X28102286Y-49339043D01*
X28161545Y-49117887D01*
X28181500Y-48889800D01*
X28161545Y-48661713D01*
X28102286Y-48440557D01*
X28099963Y-48435575D01*
X28007850Y-48238037D01*
X28007847Y-48238032D01*
X28005524Y-48233050D01*
X27874199Y-48045498D01*
X27712302Y-47883601D01*
X27707791Y-47880442D01*
X27703578Y-47876907D01*
X27704450Y-47875867D01*
X27664182Y-47825486D01*
X27656876Y-47754866D01*
X27688909Y-47691507D01*
X27745285Y-47656838D01*
X27872670Y-47619435D01*
X27872672Y-47619434D01*
X27881316Y-47616896D01*
X27945135Y-47575882D01*
X27996691Y-47542749D01*
X27996694Y-47542747D01*
X28004271Y-47537877D01*
X28044048Y-47491972D01*
X28094082Y-47434231D01*
X28094084Y-47434228D01*
X28099984Y-47427419D01*
X28160700Y-47294470D01*
X28171962Y-47216140D01*
X28180861Y-47154248D01*
X28180862Y-47154241D01*
X28181500Y-47149800D01*
X28181500Y-45549800D01*
X28176273Y-45476721D01*
X28135096Y-45336484D01*
X28089393Y-45265369D01*
X28060949Y-45221109D01*
X28060947Y-45221106D01*
X28056077Y-45213529D01*
X28049267Y-45207628D01*
X27952431Y-45123718D01*
X27952428Y-45123716D01*
X27945619Y-45117816D01*
X27812670Y-45057100D01*
X27803755Y-45055818D01*
X27803754Y-45055818D01*
X27672448Y-45036939D01*
X27672441Y-45036938D01*
X27668000Y-45036300D01*
X26068000Y-45036300D01*
X25994921Y-45041527D01*
X25944762Y-45056255D01*
X25863330Y-45080165D01*
X25863328Y-45080166D01*
X25854684Y-45082704D01*
X25847105Y-45087575D01*
X25739309Y-45156851D01*
X25739306Y-45156853D01*
X25731729Y-45161723D01*
X25725828Y-45168533D01*
X25641918Y-45265369D01*
X25641916Y-45265372D01*
X25636016Y-45272181D01*
X25575300Y-45405130D01*
X25574018Y-45414045D01*
X25574018Y-45414046D01*
X25555139Y-45545352D01*
X25555138Y-45545359D01*
X25554500Y-45549800D01*
X25554500Y-47149800D01*
X25559727Y-47222879D01*
X25600904Y-47363116D01*
X25605775Y-47370695D01*
X25675051Y-47478491D01*
X25675053Y-47478494D01*
X25679923Y-47486071D01*
X25686733Y-47491972D01*
X25783569Y-47575882D01*
X25783572Y-47575884D01*
X25790381Y-47581784D01*
X25798579Y-47585528D01*
X25875812Y-47620799D01*
X25923330Y-47642500D01*
X25932245Y-47643782D01*
X25932246Y-47643782D01*
X25977122Y-47650234D01*
X26041703Y-47679727D01*
X26080087Y-47739453D01*
X26080087Y-47810450D01*
X26041704Y-47870176D01*
X26031465Y-47878162D01*
X26023698Y-47883601D01*
X25861801Y-48045498D01*
X25730476Y-48233050D01*
X25728153Y-48238032D01*
X25728150Y-48238037D01*
X25636037Y-48435575D01*
X25633714Y-48440557D01*
X25574455Y-48661713D01*
X25554500Y-48889800D01*
X25574455Y-49117887D01*
X25633714Y-49339043D01*
X25636036Y-49344024D01*
X25636037Y-49344025D01*
X25728150Y-49541563D01*
X25728153Y-49541568D01*
X25730476Y-49546550D01*
X25861801Y-49734102D01*
X26023698Y-49895999D01*
X26028206Y-49899156D01*
X26028209Y-49899158D01*
X26206741Y-50024167D01*
X26211250Y-50027324D01*
X26216232Y-50029647D01*
X26216237Y-50029650D01*
X26250454Y-50045605D01*
X26303739Y-50092522D01*
X26323200Y-50160799D01*
X26302658Y-50228759D01*
X26250454Y-50273995D01*
X26216237Y-50289950D01*
X26216232Y-50289953D01*
X26211250Y-50292276D01*
X26206743Y-50295432D01*
X26206741Y-50295433D01*
X26028209Y-50420442D01*
X26028206Y-50420444D01*
X26023698Y-50423601D01*
X25861801Y-50585498D01*
X25730476Y-50773050D01*
X25728153Y-50778032D01*
X25728150Y-50778037D01*
X25636037Y-50975575D01*
X25633714Y-50980557D01*
X25574455Y-51201713D01*
X25554500Y-51429800D01*
X25574455Y-51657887D01*
X25633714Y-51879043D01*
X25636036Y-51884024D01*
X25636037Y-51884025D01*
X25728150Y-52081563D01*
X25728153Y-52081568D01*
X25730476Y-52086550D01*
X25861801Y-52274102D01*
X26023698Y-52435999D01*
X26028206Y-52439156D01*
X26028209Y-52439158D01*
X26206741Y-52564167D01*
X26211250Y-52567324D01*
X26216232Y-52569647D01*
X26216237Y-52569650D01*
X26250454Y-52585605D01*
X26303739Y-52632522D01*
X26323200Y-52700799D01*
X26302658Y-52768759D01*
X26250454Y-52813995D01*
X26216237Y-52829950D01*
X26216232Y-52829953D01*
X26211250Y-52832276D01*
X26206743Y-52835432D01*
X26206741Y-52835433D01*
X26028209Y-52960442D01*
X26028206Y-52960444D01*
X26023698Y-52963601D01*
X25861801Y-53125498D01*
X25730476Y-53313050D01*
X25728153Y-53318032D01*
X25728150Y-53318037D01*
X25636037Y-53515575D01*
X25633714Y-53520557D01*
X25574455Y-53741713D01*
X25554500Y-53969800D01*
X25574455Y-54197887D01*
X25633714Y-54419043D01*
X25636036Y-54424024D01*
X25636037Y-54424025D01*
X25728150Y-54621563D01*
X25728153Y-54621568D01*
X25730476Y-54626550D01*
X25861801Y-54814102D01*
X26023698Y-54975999D01*
X26028206Y-54979156D01*
X26028209Y-54979158D01*
X26204796Y-55102805D01*
X26211250Y-55107324D01*
X26216232Y-55109647D01*
X26216237Y-55109650D01*
X26250454Y-55125605D01*
X26303739Y-55172522D01*
X26323200Y-55240799D01*
X26302658Y-55308759D01*
X26250454Y-55353995D01*
X26216237Y-55369950D01*
X26216232Y-55369953D01*
X26211250Y-55372276D01*
X26206743Y-55375432D01*
X26206741Y-55375433D01*
X26028209Y-55500442D01*
X26028206Y-55500444D01*
X26023698Y-55503601D01*
X25861801Y-55665498D01*
X25730476Y-55853050D01*
X25728153Y-55858032D01*
X25728150Y-55858037D01*
X25636037Y-56055575D01*
X25633714Y-56060557D01*
X25574455Y-56281713D01*
X25554500Y-56509800D01*
X25574455Y-56737887D01*
X25633714Y-56959043D01*
X25636036Y-56964024D01*
X25636037Y-56964025D01*
X25728150Y-57161563D01*
X25728153Y-57161568D01*
X25730476Y-57166550D01*
X25861801Y-57354102D01*
X26023698Y-57515999D01*
X26028206Y-57519156D01*
X26028209Y-57519158D01*
X26206741Y-57644167D01*
X26211250Y-57647324D01*
X26216232Y-57649647D01*
X26216237Y-57649650D01*
X26250454Y-57665605D01*
X26303739Y-57712522D01*
X26323200Y-57780799D01*
X26302658Y-57848759D01*
X26250454Y-57893995D01*
X26216237Y-57909950D01*
X26216232Y-57909953D01*
X26211250Y-57912276D01*
X26206743Y-57915432D01*
X26206741Y-57915433D01*
X26028209Y-58040442D01*
X26028206Y-58040444D01*
X26023698Y-58043601D01*
X25861801Y-58205498D01*
X25730476Y-58393050D01*
X25728153Y-58398032D01*
X25728150Y-58398037D01*
X25636037Y-58595575D01*
X25633714Y-58600557D01*
X25574455Y-58821713D01*
X25554500Y-59049800D01*
X25574455Y-59277887D01*
X25633714Y-59499043D01*
X25636036Y-59504024D01*
X25636037Y-59504025D01*
X25728150Y-59701563D01*
X25728153Y-59701568D01*
X25730476Y-59706550D01*
X25861801Y-59894102D01*
X26023698Y-60055999D01*
X26028206Y-60059156D01*
X26028209Y-60059158D01*
X26206741Y-60184167D01*
X26211250Y-60187324D01*
X26216232Y-60189647D01*
X26216237Y-60189650D01*
X26250454Y-60205605D01*
X26303739Y-60252522D01*
X26323200Y-60320799D01*
X26302658Y-60388759D01*
X26250454Y-60433995D01*
X26216237Y-60449950D01*
X26216232Y-60449953D01*
X26211250Y-60452276D01*
X26206743Y-60455432D01*
X26206741Y-60455433D01*
X26028209Y-60580442D01*
X26028206Y-60580444D01*
X26023698Y-60583601D01*
X25861801Y-60745498D01*
X25730476Y-60933050D01*
X25728153Y-60938032D01*
X25728150Y-60938037D01*
X25636037Y-61135575D01*
X25633714Y-61140557D01*
X25574455Y-61361713D01*
X25554500Y-61589800D01*
X25574455Y-61817887D01*
X25633714Y-62039043D01*
X25636036Y-62044024D01*
X25636037Y-62044025D01*
X25728150Y-62241563D01*
X25728153Y-62241568D01*
X25730476Y-62246550D01*
X25861801Y-62434102D01*
X26023698Y-62595999D01*
X26028206Y-62599156D01*
X26028209Y-62599158D01*
X26206123Y-62723734D01*
X26211250Y-62727324D01*
X26216237Y-62729650D01*
X26216238Y-62729650D01*
X26251043Y-62745880D01*
X26304328Y-62792798D01*
X26323789Y-62861075D01*
X26303247Y-62929035D01*
X26251042Y-62974270D01*
X26216491Y-62990381D01*
X26206991Y-62995866D01*
X26028531Y-63120825D01*
X26020123Y-63127881D01*
X25866081Y-63281923D01*
X25859025Y-63290331D01*
X25734066Y-63468791D01*
X25728583Y-63478287D01*
X25636509Y-63675743D01*
X25632761Y-63686039D01*
X25586602Y-63858303D01*
X25586938Y-63872399D01*
X25594880Y-63875800D01*
X28135971Y-63875800D01*
X28149502Y-63871827D01*
X28150731Y-63863278D01*
X28103239Y-63686039D01*
X28099491Y-63675743D01*
X28007417Y-63478287D01*
X28001934Y-63468791D01*
X27876975Y-63290331D01*
X27869919Y-63281923D01*
X27715877Y-63127881D01*
X27707469Y-63120825D01*
X27529009Y-62995866D01*
X27519509Y-62990381D01*
X27484958Y-62974270D01*
X27431672Y-62927353D01*
X27412211Y-62859076D01*
X27432753Y-62791116D01*
X27484957Y-62745880D01*
X27519762Y-62729650D01*
X27519763Y-62729650D01*
X27524750Y-62727324D01*
X27529877Y-62723734D01*
X27707791Y-62599158D01*
X27707794Y-62599156D01*
X27712302Y-62595999D01*
X27874199Y-62434102D01*
X28005524Y-62246550D01*
X28007847Y-62241568D01*
X28007850Y-62241563D01*
X28099963Y-62044025D01*
X28099964Y-62044024D01*
X28102286Y-62039043D01*
X28161545Y-61817887D01*
X28181500Y-61589800D01*
X28161545Y-61361713D01*
X28102286Y-61140557D01*
X28099963Y-61135575D01*
X28007850Y-60938037D01*
X28007847Y-60938032D01*
X28005524Y-60933050D01*
X27874199Y-60745498D01*
X27712302Y-60583601D01*
X27707794Y-60580444D01*
X27707791Y-60580442D01*
X27529259Y-60455433D01*
X27529257Y-60455432D01*
X27524750Y-60452276D01*
X27519768Y-60449953D01*
X27519763Y-60449950D01*
X27485546Y-60433995D01*
X27432261Y-60387078D01*
X27412800Y-60318801D01*
X27433342Y-60250841D01*
X27485546Y-60205605D01*
X27519763Y-60189650D01*
X27519768Y-60189647D01*
X27524750Y-60187324D01*
X27529259Y-60184167D01*
X27707791Y-60059158D01*
X27707794Y-60059156D01*
X27712302Y-60055999D01*
X27874199Y-59894102D01*
X28005524Y-59706550D01*
X28007847Y-59701568D01*
X28007850Y-59701563D01*
X28099963Y-59504025D01*
X28099964Y-59504024D01*
X28102286Y-59499043D01*
X28161545Y-59277887D01*
X28181500Y-59049800D01*
X28161545Y-58821713D01*
X28102286Y-58600557D01*
X28099963Y-58595575D01*
X28007850Y-58398037D01*
X28007847Y-58398032D01*
X28005524Y-58393050D01*
X27874199Y-58205498D01*
X27712302Y-58043601D01*
X27707794Y-58040444D01*
X27707791Y-58040442D01*
X27529259Y-57915433D01*
X27529257Y-57915432D01*
X27524750Y-57912276D01*
X27519768Y-57909953D01*
X27519763Y-57909950D01*
X27485546Y-57893995D01*
X27432261Y-57847078D01*
X27412800Y-57778801D01*
X27433342Y-57710841D01*
X27485546Y-57665605D01*
X27519763Y-57649650D01*
X27519768Y-57649647D01*
X27524750Y-57647324D01*
X27529259Y-57644167D01*
X27707791Y-57519158D01*
X27707794Y-57519156D01*
X27712302Y-57515999D01*
X27874199Y-57354102D01*
X28005524Y-57166550D01*
X28007847Y-57161568D01*
X28007850Y-57161563D01*
X28099963Y-56964025D01*
X28099964Y-56964024D01*
X28102286Y-56959043D01*
X28161545Y-56737887D01*
X28181500Y-56509800D01*
X28161545Y-56281713D01*
X28144542Y-56218256D01*
X28146232Y-56147279D01*
X28177152Y-56096552D01*
X28955807Y-55317898D01*
X29018117Y-55283874D01*
X29088933Y-55288939D01*
X29145768Y-55331486D01*
X29170579Y-55398006D01*
X29170900Y-55406995D01*
X29170900Y-71038806D01*
X29150898Y-71106927D01*
X29133995Y-71127901D01*
X28394591Y-71867305D01*
X28332279Y-71901331D01*
X28261464Y-71896266D01*
X28204628Y-71853719D01*
X28179817Y-71787199D01*
X28179976Y-71767227D01*
X28181021Y-71755285D01*
X28181021Y-71755275D01*
X28181500Y-71749800D01*
X28161545Y-71521713D01*
X28132403Y-71412953D01*
X28103709Y-71305867D01*
X28103708Y-71305865D01*
X28102286Y-71300557D01*
X28099963Y-71295575D01*
X28007850Y-71098037D01*
X28007847Y-71098032D01*
X28005524Y-71093050D01*
X27874199Y-70905498D01*
X27712302Y-70743601D01*
X27707794Y-70740444D01*
X27707791Y-70740442D01*
X27529259Y-70615433D01*
X27529257Y-70615432D01*
X27524750Y-70612276D01*
X27519768Y-70609953D01*
X27519763Y-70609950D01*
X27485546Y-70593995D01*
X27432261Y-70547078D01*
X27412800Y-70478801D01*
X27433342Y-70410841D01*
X27485546Y-70365605D01*
X27519763Y-70349650D01*
X27519768Y-70349647D01*
X27524750Y-70347324D01*
X27529259Y-70344167D01*
X27707791Y-70219158D01*
X27707794Y-70219156D01*
X27712302Y-70215999D01*
X27874199Y-70054102D01*
X28005524Y-69866550D01*
X28007847Y-69861568D01*
X28007850Y-69861563D01*
X28099963Y-69664025D01*
X28099964Y-69664024D01*
X28102286Y-69659043D01*
X28161545Y-69437887D01*
X28181500Y-69209800D01*
X28161545Y-68981713D01*
X28102286Y-68760557D01*
X28099963Y-68755575D01*
X28007850Y-68558037D01*
X28007847Y-68558032D01*
X28005524Y-68553050D01*
X27874199Y-68365498D01*
X27712302Y-68203601D01*
X27707794Y-68200444D01*
X27707791Y-68200442D01*
X27529259Y-68075433D01*
X27529257Y-68075432D01*
X27524750Y-68072276D01*
X27519768Y-68069953D01*
X27519763Y-68069950D01*
X27485546Y-68053995D01*
X27432261Y-68007078D01*
X27412800Y-67938801D01*
X27433342Y-67870841D01*
X27485546Y-67825605D01*
X27519763Y-67809650D01*
X27519768Y-67809647D01*
X27524750Y-67807324D01*
X27529259Y-67804167D01*
X27707791Y-67679158D01*
X27707794Y-67679156D01*
X27712302Y-67675999D01*
X27874199Y-67514102D01*
X28005524Y-67326550D01*
X28007847Y-67321568D01*
X28007850Y-67321563D01*
X28099963Y-67124025D01*
X28099964Y-67124024D01*
X28102286Y-67119043D01*
X28161545Y-66897887D01*
X28181500Y-66669800D01*
X28161545Y-66441713D01*
X28102286Y-66220557D01*
X28099963Y-66215575D01*
X28007850Y-66018037D01*
X28007847Y-66018032D01*
X28005524Y-66013050D01*
X27874199Y-65825498D01*
X27712302Y-65663601D01*
X27707794Y-65660444D01*
X27707791Y-65660442D01*
X27529259Y-65535433D01*
X27529257Y-65535432D01*
X27524750Y-65532276D01*
X27519762Y-65529950D01*
X27484957Y-65513720D01*
X27431672Y-65466802D01*
X27412211Y-65398525D01*
X27432753Y-65330565D01*
X27484958Y-65285330D01*
X27519509Y-65269219D01*
X27529009Y-65263734D01*
X27707469Y-65138775D01*
X27715877Y-65131719D01*
X27869919Y-64977677D01*
X27876975Y-64969269D01*
X28001934Y-64790809D01*
X28007417Y-64781313D01*
X28099491Y-64583857D01*
X28103239Y-64573561D01*
X28149398Y-64401297D01*
X28149062Y-64387201D01*
X28141120Y-64383800D01*
X25600029Y-64383800D01*
X25586498Y-64387773D01*
X25585269Y-64396322D01*
X25632761Y-64573561D01*
X25636509Y-64583857D01*
X25728583Y-64781313D01*
X25734066Y-64790809D01*
X25859025Y-64969269D01*
X25866081Y-64977677D01*
X26020123Y-65131719D01*
X26028531Y-65138775D01*
X26206991Y-65263734D01*
X26216491Y-65269219D01*
X26251042Y-65285330D01*
X26304328Y-65332247D01*
X26323789Y-65400524D01*
X26303247Y-65468484D01*
X26251043Y-65513720D01*
X26216238Y-65529950D01*
X26211250Y-65532276D01*
X26206743Y-65535432D01*
X26206741Y-65535433D01*
X26028209Y-65660442D01*
X26028206Y-65660444D01*
X26023698Y-65663601D01*
X25861801Y-65825498D01*
X25730476Y-66013050D01*
X25728153Y-66018032D01*
X25728150Y-66018037D01*
X25636037Y-66215575D01*
X25633714Y-66220557D01*
X25574455Y-66441713D01*
X25554500Y-66669800D01*
X25574455Y-66897887D01*
X25633714Y-67119043D01*
X25636036Y-67124024D01*
X25636037Y-67124025D01*
X25728150Y-67321563D01*
X25728153Y-67321568D01*
X25730476Y-67326550D01*
X25861801Y-67514102D01*
X26023698Y-67675999D01*
X26028206Y-67679156D01*
X26028209Y-67679158D01*
X26206741Y-67804167D01*
X26211250Y-67807324D01*
X26216232Y-67809647D01*
X26216237Y-67809650D01*
X26250454Y-67825605D01*
X26303739Y-67872522D01*
X26323200Y-67940799D01*
X26302658Y-68008759D01*
X26250454Y-68053995D01*
X26216237Y-68069950D01*
X26216232Y-68069953D01*
X26211250Y-68072276D01*
X26206743Y-68075432D01*
X26206741Y-68075433D01*
X26028209Y-68200442D01*
X26028206Y-68200444D01*
X26023698Y-68203601D01*
X25861801Y-68365498D01*
X25730476Y-68553050D01*
X25728153Y-68558032D01*
X25728150Y-68558037D01*
X25636037Y-68755575D01*
X25633714Y-68760557D01*
X25574455Y-68981713D01*
X25554500Y-69209800D01*
X25574455Y-69437887D01*
X25633714Y-69659043D01*
X25636036Y-69664024D01*
X25636037Y-69664025D01*
X25728150Y-69861563D01*
X25728153Y-69861568D01*
X25730476Y-69866550D01*
X25861801Y-70054102D01*
X26023698Y-70215999D01*
X26028206Y-70219156D01*
X26028209Y-70219158D01*
X26206741Y-70344167D01*
X26211250Y-70347324D01*
X26216232Y-70349647D01*
X26216237Y-70349650D01*
X26250454Y-70365605D01*
X26303739Y-70412522D01*
X26323200Y-70480799D01*
X26302658Y-70548759D01*
X26250454Y-70593995D01*
X26216237Y-70609950D01*
X26216232Y-70609953D01*
X26211250Y-70612276D01*
X26206743Y-70615432D01*
X26206741Y-70615433D01*
X26028209Y-70740442D01*
X26028206Y-70740444D01*
X26023698Y-70743601D01*
X25861801Y-70905498D01*
X25730476Y-71093050D01*
X25728153Y-71098032D01*
X25728150Y-71098037D01*
X25636037Y-71295575D01*
X25633714Y-71300557D01*
X25632292Y-71305865D01*
X25632291Y-71305867D01*
X25603597Y-71412953D01*
X25574455Y-71521713D01*
X25554500Y-71749800D01*
X25574455Y-71977887D01*
X25633714Y-72199043D01*
X25636036Y-72204024D01*
X25636037Y-72204025D01*
X25728150Y-72401563D01*
X25728153Y-72401568D01*
X25730476Y-72406550D01*
X25861801Y-72594102D01*
X26023698Y-72755999D01*
X26028206Y-72759156D01*
X26028209Y-72759158D01*
X26206741Y-72884167D01*
X26211250Y-72887324D01*
X26216232Y-72889647D01*
X26216237Y-72889650D01*
X26250454Y-72905605D01*
X26303739Y-72952522D01*
X26323200Y-73020799D01*
X26302658Y-73088759D01*
X26250454Y-73133995D01*
X26216237Y-73149950D01*
X26216232Y-73149953D01*
X26211250Y-73152276D01*
X26206743Y-73155432D01*
X26206741Y-73155433D01*
X26028209Y-73280442D01*
X26028206Y-73280444D01*
X26023698Y-73283601D01*
X25861801Y-73445498D01*
X25730476Y-73633050D01*
X25728153Y-73638032D01*
X25728150Y-73638037D01*
X25636037Y-73835575D01*
X25633714Y-73840557D01*
X25632292Y-73845865D01*
X25632291Y-73845867D01*
X25610477Y-73927279D01*
X25574455Y-74061713D01*
X25554500Y-74289800D01*
X25574455Y-74517887D01*
X25633714Y-74739043D01*
X25636036Y-74744024D01*
X25636037Y-74744025D01*
X25728150Y-74941563D01*
X25728153Y-74941568D01*
X25730476Y-74946550D01*
X25861801Y-75134102D01*
X26023698Y-75295999D01*
X26028206Y-75299156D01*
X26028209Y-75299158D01*
X26206741Y-75424167D01*
X26211250Y-75427324D01*
X26216232Y-75429647D01*
X26216237Y-75429650D01*
X26250454Y-75445605D01*
X26303739Y-75492522D01*
X26323200Y-75560799D01*
X26302658Y-75628759D01*
X26250454Y-75673995D01*
X26216237Y-75689950D01*
X26216232Y-75689953D01*
X26211250Y-75692276D01*
X26206743Y-75695432D01*
X26206741Y-75695433D01*
X26028209Y-75820442D01*
X26028206Y-75820444D01*
X26023698Y-75823601D01*
X25861801Y-75985498D01*
X25730476Y-76173050D01*
X25728153Y-76178032D01*
X25728150Y-76178037D01*
X25636037Y-76375575D01*
X25633714Y-76380557D01*
X25574455Y-76601713D01*
X25554500Y-76829800D01*
X25574455Y-77057887D01*
X25575879Y-77063200D01*
X25575879Y-77063202D01*
X25624070Y-77243050D01*
X25633714Y-77279043D01*
X25636036Y-77284024D01*
X25636037Y-77284025D01*
X25728150Y-77481563D01*
X25728153Y-77481568D01*
X25730476Y-77486550D01*
X25861801Y-77674102D01*
X26023698Y-77835999D01*
X26028206Y-77839156D01*
X26028209Y-77839158D01*
X26206741Y-77964167D01*
X26211250Y-77967324D01*
X26216232Y-77969647D01*
X26216237Y-77969650D01*
X26250454Y-77985605D01*
X26303739Y-78032522D01*
X26323200Y-78100799D01*
X26302658Y-78168759D01*
X26250454Y-78213995D01*
X26216237Y-78229950D01*
X26216232Y-78229953D01*
X26211250Y-78232276D01*
X26206743Y-78235432D01*
X26206741Y-78235433D01*
X26028209Y-78360442D01*
X26028206Y-78360444D01*
X26023698Y-78363601D01*
X25861801Y-78525498D01*
X25730476Y-78713050D01*
X25728153Y-78718032D01*
X25728150Y-78718037D01*
X25636037Y-78915575D01*
X25633714Y-78920557D01*
X25574455Y-79141713D01*
X25554500Y-79369800D01*
X25574455Y-79597887D01*
X25633714Y-79819043D01*
X25636036Y-79824024D01*
X25636037Y-79824025D01*
X25728150Y-80021563D01*
X25728153Y-80021568D01*
X25730476Y-80026550D01*
X25861801Y-80214102D01*
X26023698Y-80375999D01*
X26028206Y-80379156D01*
X26028209Y-80379158D01*
X26206741Y-80504167D01*
X26211250Y-80507324D01*
X26216232Y-80509647D01*
X26216237Y-80509650D01*
X26413775Y-80601763D01*
X26418757Y-80604086D01*
X26424065Y-80605508D01*
X26424067Y-80605509D01*
X26634598Y-80661921D01*
X26634600Y-80661921D01*
X26639913Y-80663345D01*
X26868000Y-80683300D01*
X27096087Y-80663345D01*
X27101400Y-80661921D01*
X27101402Y-80661921D01*
X27311933Y-80605509D01*
X27311935Y-80605508D01*
X27317243Y-80604086D01*
X27322225Y-80601763D01*
X27519763Y-80509650D01*
X27519768Y-80509647D01*
X27524750Y-80507324D01*
X27529259Y-80504167D01*
X27707791Y-80379158D01*
X27707794Y-80379156D01*
X27712302Y-80375999D01*
X27874199Y-80214102D01*
X28005524Y-80026550D01*
X28007847Y-80021568D01*
X28007850Y-80021563D01*
X28099963Y-79824025D01*
X28099964Y-79824024D01*
X28102286Y-79819043D01*
X28161545Y-79597887D01*
X28181500Y-79369800D01*
X28181021Y-79364325D01*
X28181021Y-79364315D01*
X28179976Y-79352373D01*
X28193963Y-79282768D01*
X28243362Y-79231775D01*
X28312488Y-79215584D01*
X28379394Y-79239335D01*
X28394591Y-79252295D01*
X32326595Y-83184299D01*
X32360621Y-83246611D01*
X32363500Y-83273394D01*
X32363500Y-83486117D01*
X32379096Y-83614994D01*
X32439694Y-83775362D01*
X32443995Y-83781620D01*
X32496268Y-83857677D01*
X32536796Y-83916646D01*
X32542466Y-83921698D01*
X32542467Y-83921699D01*
X32659123Y-84025636D01*
X32659125Y-84025638D01*
X32664796Y-84030690D01*
X32671505Y-84034242D01*
X32671509Y-84034245D01*
X32809589Y-84107355D01*
X32809592Y-84107356D01*
X32816304Y-84110910D01*
X32823673Y-84112761D01*
X32854293Y-84120452D01*
X32982575Y-84152674D01*
X32988338Y-84153037D01*
X32988341Y-84153037D01*
X32990530Y-84153175D01*
X32990546Y-84153176D01*
X32992525Y-84153300D01*
X33513317Y-84153300D01*
X33642194Y-84137704D01*
X33687850Y-84120452D01*
X33758643Y-84115084D01*
X33821101Y-84148842D01*
X33855393Y-84211007D01*
X33850631Y-84281844D01*
X33821483Y-84327413D01*
X30366687Y-87782209D01*
X30358599Y-87789569D01*
X30352205Y-87793627D01*
X30346780Y-87799404D01*
X30306331Y-87842478D01*
X30303576Y-87845320D01*
X30283262Y-87865634D01*
X30280617Y-87869045D01*
X30272913Y-87878065D01*
X30242643Y-87910299D01*
X30238826Y-87917243D01*
X30238824Y-87917245D01*
X30232882Y-87928053D01*
X30222028Y-87944577D01*
X30209617Y-87960577D01*
X30206470Y-87967848D01*
X30206470Y-87967849D01*
X30192059Y-88001151D01*
X30186838Y-88011807D01*
X30165538Y-88050552D01*
X30163566Y-88058235D01*
X30163565Y-88058236D01*
X30160501Y-88070168D01*
X30154097Y-88088872D01*
X30149201Y-88100185D01*
X30149199Y-88100192D01*
X30146052Y-88107464D01*
X30144813Y-88115288D01*
X30144812Y-88115291D01*
X30139135Y-88151135D01*
X30136728Y-88162756D01*
X30127213Y-88199818D01*
X30125735Y-88205575D01*
X30125700Y-88206131D01*
X30125700Y-88226052D01*
X30124149Y-88245762D01*
X30121016Y-88265544D01*
X30121762Y-88273436D01*
X30125141Y-88309182D01*
X30125700Y-88321040D01*
X30125700Y-98226302D01*
X30105698Y-98294423D01*
X30065067Y-98334020D01*
X29955831Y-98400306D01*
X29951801Y-98403803D01*
X29825606Y-98513309D01*
X29781692Y-98551415D01*
X29776539Y-98557700D01*
X29775564Y-98558365D01*
X29774590Y-98559366D01*
X29774386Y-98559168D01*
X29717881Y-98597695D01*
X29646910Y-98599628D01*
X29586161Y-98562885D01*
X29558208Y-98513309D01*
X29538834Y-98447329D01*
X29536296Y-98438684D01*
X29494702Y-98373963D01*
X29474700Y-98305842D01*
X29474700Y-92467950D01*
X29475778Y-92451503D01*
X29477849Y-92435771D01*
X29478581Y-92430213D01*
X29474840Y-92350883D01*
X29474700Y-92344948D01*
X29474700Y-92320777D01*
X29472222Y-92293008D01*
X29471863Y-92287745D01*
X29468163Y-92209299D01*
X29467899Y-92203694D01*
X29463837Y-92185958D01*
X29461158Y-92169041D01*
X29460040Y-92156514D01*
X29460039Y-92156510D01*
X29459541Y-92150928D01*
X29458062Y-92145522D01*
X29458061Y-92145516D01*
X29437346Y-92069796D01*
X29436060Y-92064678D01*
X29418525Y-91988115D01*
X29418525Y-91988114D01*
X29417273Y-91982649D01*
X29410138Y-91965921D01*
X29404500Y-91949732D01*
X29401182Y-91937603D01*
X29399703Y-91932196D01*
X29395243Y-91922846D01*
X29363477Y-91856245D01*
X29361306Y-91851436D01*
X29330503Y-91779221D01*
X29328302Y-91774061D01*
X29318319Y-91758863D01*
X29309904Y-91743930D01*
X29304491Y-91732581D01*
X29302076Y-91727518D01*
X29252981Y-91659195D01*
X29249992Y-91654846D01*
X29206337Y-91588387D01*
X29203801Y-91584526D01*
X29200727Y-91581076D01*
X29200721Y-91581068D01*
X29185066Y-91563497D01*
X29176822Y-91553208D01*
X29169747Y-91543362D01*
X29098426Y-91474247D01*
X29097016Y-91472858D01*
X28756205Y-91132047D01*
X28722179Y-91069735D01*
X28719300Y-91042952D01*
X28719300Y-89340514D01*
X28707815Y-89242005D01*
X28704670Y-89215029D01*
X28704670Y-89215028D01*
X28703822Y-89207757D01*
X28659683Y-89086154D01*
X28645984Y-89048415D01*
X28643487Y-89041536D01*
X28567768Y-88926045D01*
X28550543Y-88899772D01*
X28550542Y-88899771D01*
X28546531Y-88893653D01*
X28418155Y-88772042D01*
X28265245Y-88683225D01*
X28096004Y-88631967D01*
X28089564Y-88631392D01*
X28089563Y-88631392D01*
X28019615Y-88625149D01*
X28019609Y-88625149D01*
X28016822Y-88624900D01*
X27607300Y-88624900D01*
X27539179Y-88604898D01*
X27492686Y-88551242D01*
X27481300Y-88498900D01*
X27481300Y-84223895D01*
X27501302Y-84155774D01*
X27517253Y-84137296D01*
X27516493Y-84136567D01*
X27520375Y-84132519D01*
X27524605Y-84128829D01*
X27586372Y-84051731D01*
X27588016Y-84049724D01*
X27647777Y-83978249D01*
X27647779Y-83978246D01*
X27651376Y-83973944D01*
X27654153Y-83969074D01*
X27657359Y-83964462D01*
X27657449Y-83964524D01*
X27659865Y-83960968D01*
X27659775Y-83960908D01*
X27662885Y-83956227D01*
X27666391Y-83951851D01*
X27713522Y-83865048D01*
X27714790Y-83862770D01*
X27760950Y-83781843D01*
X27760953Y-83781836D01*
X27763731Y-83776966D01*
X27765604Y-83771678D01*
X27767938Y-83766579D01*
X27768036Y-83766624D01*
X27769790Y-83762683D01*
X27769691Y-83762640D01*
X27771917Y-83757496D01*
X27774596Y-83752562D01*
X27789595Y-83707211D01*
X27805618Y-83658761D01*
X27806473Y-83656265D01*
X27837553Y-83568495D01*
X27839427Y-83563204D01*
X27840334Y-83557663D01*
X27841729Y-83552231D01*
X27841835Y-83552258D01*
X27842861Y-83548078D01*
X27842756Y-83548053D01*
X27844036Y-83542595D01*
X27845800Y-83537262D01*
X27853079Y-83486117D01*
X27859718Y-83439474D01*
X27860117Y-83436867D01*
X27875169Y-83344945D01*
X27876075Y-83339415D01*
X27875987Y-83333812D01*
X27876399Y-83328208D01*
X27876507Y-83328216D01*
X27877025Y-83319972D01*
X27876938Y-83319965D01*
X27877243Y-83316331D01*
X27877752Y-83312755D01*
X27878714Y-83276036D01*
X27879405Y-83249631D01*
X27879405Y-83249630D01*
X27879500Y-83246000D01*
X27873972Y-83184061D01*
X27873489Y-83174845D01*
X27872601Y-83118286D01*
X27872513Y-83112673D01*
X27871434Y-83107172D01*
X27871433Y-83107165D01*
X27864772Y-83073214D01*
X27862914Y-83060159D01*
X27859840Y-83025723D01*
X27859341Y-83020128D01*
X27842937Y-82960165D01*
X27840828Y-82951175D01*
X27829936Y-82895656D01*
X27829935Y-82895654D01*
X27828855Y-82890147D01*
X27816038Y-82857272D01*
X27814251Y-82852689D01*
X27810110Y-82840169D01*
X27800982Y-82806804D01*
X27799503Y-82801396D01*
X27797089Y-82796334D01*
X27772738Y-82745281D01*
X27769071Y-82736808D01*
X27761544Y-82717503D01*
X27746481Y-82678868D01*
X27725464Y-82644571D01*
X27719187Y-82633010D01*
X27701876Y-82596718D01*
X27665605Y-82546241D01*
X27660496Y-82538552D01*
X27630925Y-82490297D01*
X27630922Y-82490292D01*
X27627994Y-82485515D01*
X27624266Y-82481331D01*
X27624261Y-82481324D01*
X27601246Y-82455492D01*
X27593001Y-82445201D01*
X27572820Y-82417117D01*
X27569547Y-82412562D01*
X27525782Y-82370150D01*
X27524901Y-82369296D01*
X27518511Y-82362633D01*
X27477141Y-82316200D01*
X27472728Y-82312740D01*
X27472724Y-82312736D01*
X27445498Y-82291388D01*
X27435559Y-82282718D01*
X27410726Y-82258653D01*
X27410724Y-82258651D01*
X27406698Y-82254750D01*
X27355076Y-82220061D01*
X27347629Y-82214650D01*
X27303109Y-82179742D01*
X27303100Y-82179736D01*
X27298687Y-82176276D01*
X27293731Y-82173652D01*
X27293728Y-82173650D01*
X27263155Y-82157463D01*
X27251848Y-82150696D01*
X27218477Y-82128271D01*
X27213337Y-82126015D01*
X27213334Y-82126013D01*
X27161539Y-82103276D01*
X27153228Y-82099258D01*
X27103238Y-82072790D01*
X27103236Y-82072789D01*
X27098276Y-82070163D01*
X27059966Y-82057937D01*
X27047645Y-82053280D01*
X27015975Y-82039378D01*
X27015973Y-82039377D01*
X27010833Y-82037121D01*
X27005382Y-82035812D01*
X27005378Y-82035811D01*
X26950361Y-82022603D01*
X26941467Y-82020119D01*
X26887588Y-82002924D01*
X26887587Y-82002924D01*
X26882242Y-82001218D01*
X26873158Y-82000022D01*
X26842389Y-81995971D01*
X26829425Y-81993568D01*
X26795791Y-81985494D01*
X26795788Y-81985494D01*
X26790329Y-81984183D01*
X26753087Y-81982036D01*
X26728252Y-81980604D01*
X26719058Y-81979735D01*
X26699009Y-81977096D01*
X26657413Y-81971619D01*
X26651813Y-81971883D01*
X26651812Y-81971883D01*
X26617261Y-81973512D01*
X26604075Y-81973443D01*
X26563936Y-81971129D01*
X26506084Y-81978130D01*
X26502196Y-81978600D01*
X26492995Y-81979372D01*
X26486794Y-81979665D01*
X26430895Y-81982301D01*
X26395395Y-81990431D01*
X26391706Y-81991276D01*
X26378717Y-81993543D01*
X26369663Y-81994639D01*
X26338809Y-81998373D01*
X26333451Y-82000021D01*
X26333448Y-82000022D01*
X26308455Y-82007711D01*
X26279373Y-82016658D01*
X26270462Y-82019045D01*
X26209849Y-82032927D01*
X26172861Y-82048704D01*
X26160488Y-82053232D01*
X26151707Y-82055933D01*
X26127430Y-82063401D01*
X26127428Y-82063402D01*
X26122064Y-82065052D01*
X26117074Y-82067628D01*
X26117073Y-82067628D01*
X26066806Y-82093572D01*
X26058452Y-82097503D01*
X26006424Y-82119695D01*
X26006422Y-82119696D01*
X26001262Y-82121897D01*
X25967651Y-82143976D01*
X25956280Y-82150620D01*
X25920553Y-82169060D01*
X25871226Y-82206910D01*
X25863705Y-82212255D01*
X25815592Y-82243859D01*
X25815587Y-82243863D01*
X25811726Y-82246399D01*
X25766938Y-82286303D01*
X25766904Y-82286265D01*
X25758675Y-82293273D01*
X25740645Y-82307108D01*
X25736874Y-82311252D01*
X25736870Y-82311256D01*
X25687191Y-82365854D01*
X25683092Y-82370150D01*
X25376877Y-82676365D01*
X25364486Y-82687232D01*
X25347445Y-82700308D01*
X25343668Y-82704459D01*
X25293973Y-82759073D01*
X25289874Y-82763368D01*
X25272807Y-82780435D01*
X25254913Y-82801836D01*
X25251468Y-82805785D01*
X25198599Y-82863886D01*
X25198592Y-82863895D01*
X25194826Y-82868034D01*
X25191849Y-82872780D01*
X25185161Y-82883441D01*
X25175087Y-82897306D01*
X25163424Y-82911255D01*
X25160644Y-82916129D01*
X25121729Y-82984354D01*
X25119018Y-82988882D01*
X25074321Y-83060135D01*
X25072229Y-83065338D01*
X25072228Y-83065341D01*
X25069486Y-83072162D01*
X25069064Y-83073214D01*
X25067541Y-83077002D01*
X25060081Y-83092435D01*
X25051069Y-83108234D01*
X25049197Y-83113521D01*
X25049195Y-83113525D01*
X25022986Y-83187539D01*
X25021120Y-83192476D01*
X24991836Y-83265322D01*
X24991834Y-83265328D01*
X24989739Y-83270540D01*
X24986050Y-83288355D01*
X24981442Y-83304858D01*
X24975373Y-83321996D01*
X24974467Y-83327530D01*
X24974466Y-83327533D01*
X24961778Y-83405014D01*
X24960816Y-83410202D01*
X24954754Y-83439474D01*
X24943753Y-83492598D01*
X24943487Y-83497210D01*
X24943487Y-83497211D01*
X24942132Y-83520717D01*
X24940684Y-83533830D01*
X24938726Y-83545785D01*
X24938814Y-83551404D01*
X24938814Y-83551407D01*
X24940284Y-83644988D01*
X24940300Y-83646967D01*
X24940300Y-88498900D01*
X24920298Y-88567021D01*
X24866642Y-88613514D01*
X24814300Y-88624900D01*
X24417914Y-88624900D01*
X24322694Y-88636002D01*
X24292429Y-88639530D01*
X24292428Y-88639530D01*
X24285157Y-88640378D01*
X24278279Y-88642874D01*
X24278277Y-88642875D01*
X24167115Y-88683225D01*
X24118936Y-88700713D01*
X24015749Y-88768365D01*
X24001850Y-88777478D01*
X23971053Y-88797669D01*
X23849442Y-88926045D01*
X23760625Y-89078955D01*
X23709367Y-89248196D01*
X23702300Y-89327378D01*
X20508001Y-89327378D01*
X20508000Y-21093270D01*
X20509746Y-21072364D01*
X20512041Y-21058726D01*
X20512041Y-21058723D01*
X20512847Y-21053934D01*
X20512972Y-21043703D01*
X20513115Y-21039060D01*
X20514966Y-21001383D01*
X20517235Y-20982985D01*
X20532238Y-20907558D01*
X20539408Y-20883922D01*
X20567644Y-20815753D01*
X20579283Y-20793977D01*
X20620286Y-20732611D01*
X20635952Y-20713524D01*
X20688123Y-20661353D01*
X20707213Y-20645685D01*
X20768576Y-20604684D01*
X20790352Y-20593045D01*
X20858521Y-20564809D01*
X20882157Y-20557639D01*
X20957584Y-20542636D01*
X20975982Y-20540367D01*
X20991571Y-20539601D01*
X21015998Y-20538401D01*
X21015998Y-20537151D01*
X21037625Y-20533701D01*
X21063618Y-20534178D01*
X21070834Y-20534310D01*
X21070835Y-20534310D01*
X21079407Y-20534467D01*
X21082678Y-20533575D01*
X21085487Y-20533401D01*
X22449413Y-20533401D01*
X38855498Y-20533402D01*
G37*
%TD.AperFunction*%
%TD*%
M02*
